# This file uses centimeters as units for non-parametric coordinates.

mtllib BigRock1.mtl
g default
v 0.649938 -4.762970 -9.156368
v 2.405662 1.393530 4.422870
v -4.706488 -1.293813 -1.679916
v 2.065263 0.939828 7.800442
v 0.448292 -1.594386 8.869208
v 0.411146 2.331835 -4.648810
v -1.574113 2.517179 -6.807332
v -1.630193 4.458198 -2.059320
v -1.179520 5.200062 -0.059055
v -2.911947 -4.759703 4.760430
v 3.051386 -4.468361 9.049930
v -3.460396 1.252590 3.841068
v 2.053986 2.255696 -4.112996
v -4.062605 1.774988 0.199801
v -4.020542 -4.634224 1.682206
v -4.016042 -3.378827 -7.422620
v 1.809504 -1.764727 8.827576
v 3.342944 -0.918926 -2.934344
v -3.714971 -2.817317 3.505153
v -1.475255 1.427979 6.386442
v -0.159268 -4.680595 9.748830
v 0.232482 0.590767 7.626895
v -5.246644 -4.173246 -0.172815
v -0.027993 4.991508 2.899294
v -4.237992 0.600817 -1.390119
v 3.906970 -1.285320 2.830030
v 4.713033 -0.824079 1.052608
v 0.019133 3.226522 5.663474
v -2.217328 2.014796 -7.999865
v -5.205819 -1.869566 -0.839578
v -3.053750 3.668992 -4.144783
v 3.720647 0.791371 1.415649
v 2.593482 1.891438 -1.707740
v -0.288004 5.154314 -1.882181
v -2.438406 2.559453 3.789099
v -5.031573 -4.768030 -2.666005
v -1.250669 3.486472 5.046923
v 3.351138 -4.674176 5.390793
v 2.809083 -2.192445 6.849554
v -2.555854 -4.279289 6.873918
v -1.499764 4.055918 -5.399384
v -4.111941 -4.572222 3.972020
v 2.048423 4.002395 2.741232
v 0.411231 -4.770053 7.326377
v 3.677447 -4.263680 -4.905465
v -4.088959 0.037429 -4.870158
v 2.258365 -0.510825 -6.871381
v -2.300754 -2.724344 -8.504968
v -3.951070 -4.758011 -7.888311
v -0.311530 1.758942 -9.269555
v -2.635731 3.869700 1.901955
v 4.184388 -4.733269 -5.030587
v -0.604341 -2.634312 -9.748830
v 2.597050 1.353800 0.198138
v 3.794205 0.108166 4.318026
v -2.788383 -1.155981 5.190486
v -4.097533 -2.944315 -5.287101
v 1.148644 1.608379 6.390663
v 5.246644 -4.615124 2.956213
v 3.903760 -1.579273 -3.921205
v 2.057751 -4.684537 -7.813133
v -3.140358 0.744875 -5.948369
v -3.335896 3.503780 -1.052416
v -1.322048 -1.360456 9.098382
v -3.029097 -3.295311 -9.013683
v 0.003003 3.872277 -5.087056
v 1.603079 4.869165 2.109350
v 4.747540 -2.627148 -0.229063
v 4.527078 -5.200062 1.418446
vn 0.507671 0.059925 -0.859465
vn 0.507671 0.059925 -0.859465
vn 0.507671 0.059925 -0.859465
vn 0.685030 0.088438 -0.723127
vn 0.685030 0.088438 -0.723127
vn 0.685030 0.088438 -0.723127
vn 0.437703 0.899047 0.011374
vn 0.437703 0.899047 0.011374
vn 0.437703 0.899048 0.011374
vn 0.985720 0.162775 0.043124
vn 0.985720 0.162775 0.043124
vn 0.985720 0.162775 0.043124
vn 0.912896 0.346638 -0.215554
vn 0.912896 0.346638 -0.215554
vn 0.912896 0.346638 -0.215554
vn 0.787351 0.547408 -0.283590
vn 0.787351 0.547408 -0.283590
vn 0.787351 0.547408 -0.283590
vn 0.252509 0.692475 -0.675809
vn 0.252509 0.692475 -0.675809
vn 0.252509 0.692475 -0.675808
vn -0.964504 0.251033 -0.081945
vn -0.964504 0.251033 -0.081945
vn -0.964504 0.251033 -0.081945
vn -0.156203 0.363555 0.918384
vn -0.156203 0.363555 0.918384
vn -0.156203 0.363555 0.918384
vn -0.195135 0.667145 0.718916
vn -0.195135 0.667145 0.718916
vn -0.195135 0.667145 0.718916
vn 0.900369 0.084213 0.426901
vn 0.900369 0.084213 0.426901
vn 0.900369 0.084213 0.426901
vn 0.527139 0.847710 0.059265
vn 0.527139 0.847710 0.059265
vn 0.527139 0.847709 0.059265
vn 0.175821 0.499602 0.848225
vn 0.175821 0.499602 0.848225
vn 0.175821 0.499602 0.848225
vn 0.964844 -0.123875 0.231800
vn 0.964844 -0.123875 0.231800
vn 0.964844 -0.123875 0.231800
vn -0.454297 0.869418 -0.194235
vn -0.454297 0.869418 -0.194235
vn -0.454297 0.869418 -0.194235
vn -0.480563 0.839360 -0.254037
vn -0.480563 0.839360 -0.254037
vn -0.480563 0.839360 -0.254037
vn 0.736134 0.002485 -0.676831
vn 0.736134 0.002485 -0.676831
vn 0.736134 0.002485 -0.676831
vn 0.805475 0.045306 -0.590895
vn 0.805475 0.045306 -0.590895
vn 0.805475 0.045306 -0.590895
vn 0.749869 0.628573 -0.206378
vn 0.749869 0.628573 -0.206378
vn 0.749869 0.628573 -0.206378
vn 0.229912 0.650903 -0.723509
vn 0.229912 0.650903 -0.723509
vn 0.229912 0.650903 -0.723509
vn -0.003251 0.988613 0.150447
vn -0.003251 0.988613 0.150447
vn -0.003251 0.988613 0.150447
vn 0.185036 0.918114 -0.350469
vn 0.185036 0.918114 -0.350469
vn 0.185036 0.918114 -0.350469
vn -0.950618 0.045660 -0.306988
vn -0.950618 0.045660 -0.306988
vn -0.950618 0.045660 -0.306988
vn 0.678945 0.637547 0.364098
vn 0.678945 0.637547 0.364098
vn 0.678945 0.637547 0.364098
vn 0.663033 0.467604 0.584581
vn 0.663033 0.467604 0.584581
vn 0.663033 0.467604 0.584581
vn -0.089077 0.838797 0.537108
vn -0.089077 0.838797 0.537108
vn -0.089077 0.838797 0.537108
vn 0.306635 0.804598 0.508525
vn 0.306635 0.804598 0.508525
vn 0.306635 0.804598 0.508525
vn -0.942970 0.319321 0.094026
vn -0.942970 0.319322 0.094026
vn -0.942970 0.319321 0.094026
vn -0.038078 0.989786 0.137380
vn -0.038078 0.989786 0.137380
vn -0.038078 0.989786 0.137379
vn -0.490425 0.871469 0.004977
vn -0.490425 0.871469 0.004977
vn -0.490425 0.871469 0.004977
vn -0.066610 -0.997637 -0.016814
vn -0.066610 -0.997637 -0.016814
vn -0.066610 -0.997637 -0.016814
vn 0.001637 -0.999998 0.000654
vn 0.001637 -0.999998 0.000654
vn 0.001637 -0.999998 0.000654
vn 0.184732 0.945965 0.266506
vn 0.184732 0.945965 0.266506
vn 0.184732 0.945965 0.266506
vn 0.730719 0.116650 -0.672638
vn 0.730719 0.116650 -0.672638
vn 0.730719 0.116650 -0.672638
vn 0.883562 0.093746 -0.458835
vn 0.883562 0.093746 -0.458835
vn 0.883562 0.093746 -0.458836
vn 0.867171 0.069586 -0.493124
vn 0.867172 0.069586 -0.493124
vn 0.867172 0.069586 -0.493124
vn 0.522615 0.661036 0.538428
vn 0.522615 0.661036 0.538428
vn 0.522615 0.661036 0.538428
vn 0.155971 0.242227 0.957601
vn 0.155971 0.242227 0.957601
vn 0.155971 0.242227 0.957601
vn -0.769721 -0.147910 0.621009
vn -0.769721 -0.147910 0.621009
vn -0.769721 -0.147910 0.621009
vn -0.028506 0.393118 0.919046
vn -0.028506 0.393118 0.919046
vn -0.028506 0.393118 0.919046
vn -0.789035 0.462911 0.403903
vn -0.789035 0.462911 0.403903
vn -0.789035 0.462911 0.403903
vn 0.743410 0.321324 0.586595
vn 0.743410 0.321324 0.586595
vn 0.743410 0.321324 0.586595
vn 0.091397 0.995214 0.034583
vn 0.091397 0.995214 0.034583
vn 0.091397 0.995214 0.034583
vn -0.475224 0.879857 0.003648
vn -0.475224 0.879857 0.003648
vn -0.475224 0.879857 0.003648
vn -0.979526 0.097706 0.176016
vn -0.979526 0.097706 0.176016
vn -0.979526 0.097706 0.176016
vn -0.978718 0.044688 0.200286
vn -0.978718 0.044688 0.200286
vn -0.978718 0.044688 0.200286
vn -0.882952 0.016505 0.469173
vn -0.882952 0.016505 0.469172
vn -0.882952 0.016505 0.469173
vn 0.822680 0.559682 -0.099766
vn 0.822680 0.559682 -0.099766
vn 0.822680 0.559682 -0.099766
vn -0.918006 0.133017 0.373592
vn -0.918006 0.133017 0.373592
vn -0.918006 0.133017 0.373592
vn 0.985803 0.162072 0.043874
vn 0.985803 0.162072 0.043874
vn 0.985803 0.162072 0.043874
vn 0.651996 0.676385 0.342643
vn 0.651996 0.676385 0.342643
vn 0.651996 0.676385 0.342643
vn 0.677566 0.719541 0.152204
vn 0.677566 0.719541 0.152204
vn 0.677566 0.719541 0.152204
vn 0.099735 0.994729 0.023810
vn 0.099735 0.994729 0.023810
vn 0.099735 0.994729 0.023810
vn -0.950226 0.303483 -0.070484
vn -0.950226 0.303483 -0.070484
vn -0.950226 0.303483 -0.070484
vn 0.560620 0.716037 -0.415929
vn 0.560620 0.716037 -0.415929
vn 0.560620 0.716037 -0.415929
vn -0.851564 0.305895 0.425755
vn -0.851564 0.305895 0.425755
vn -0.851564 0.305895 0.425755
vn -0.605593 -0.059530 0.793545
vn -0.605593 -0.059530 0.793545
vn -0.605593 -0.059530 0.793545
vn -0.424101 0.876086 -0.229372
vn -0.424101 0.876086 -0.229372
vn -0.424101 0.876086 -0.229372
vn -0.943555 0.307521 -0.123022
vn -0.943555 0.307521 -0.123022
vn -0.943555 0.307521 -0.123022
vn -0.273094 0.545440 0.792411
vn -0.273094 0.545440 0.792411
vn -0.273094 0.545440 0.792411
vn 0.745387 0.637293 -0.195590
vn 0.745387 0.637293 -0.195590
vn 0.745387 0.637293 -0.195590
vn -0.001704 -0.999996 -0.002271
vn -0.001704 -0.999996 -0.002271
vn -0.001704 -0.999996 -0.002271
vn -0.753401 0.599883 0.269307
vn -0.753401 0.599883 0.269307
vn -0.753401 0.599883 0.269307
vn -0.061636 0.885722 0.460106
vn -0.061636 0.885722 0.460106
vn -0.061636 0.885722 0.460106
vn -0.765396 0.607051 0.213676
vn -0.765396 0.607051 0.213676
vn -0.765396 0.607051 0.213676
vn -0.812687 0.524896 0.253030
vn -0.812687 0.524896 0.253030
vn -0.812687 0.524896 0.253030
vn 0.088798 0.498896 0.862101
vn 0.088798 0.498896 0.862101
vn 0.088798 0.498896 0.862101
vn -0.964885 0.250623 -0.078650
vn -0.964885 0.250623 -0.078650
vn -0.964885 0.250623 -0.078650
vn -0.539805 -0.828137 0.150998
vn -0.539805 -0.828137 0.150998
vn -0.539805 -0.828137 0.150998
vn -0.484192 -0.863824 0.139165
vn -0.484192 -0.863824 0.139165
vn -0.484192 -0.863824 0.139165
vn -0.355746 0.832396 -0.424926
vn -0.355746 0.832396 -0.424926
vn -0.355746 0.832396 -0.424926
vn -0.179282 -0.360419 -0.915399
vn -0.179282 -0.360419 -0.915399
vn -0.179282 -0.360419 -0.915399
vn -0.845183 0.134819 -0.517195
vn -0.845183 0.134819 -0.517195
vn -0.845183 0.134819 -0.517195
vn -0.799432 0.180053 0.573140
vn -0.799432 0.180053 0.573140
vn -0.799432 0.180053 0.573140
vn -0.969834 0.085537 -0.228268
vn -0.969834 0.085537 -0.228268
vn -0.969834 0.085537 -0.228268
vn -0.776170 0.089506 -0.624139
vn -0.776170 0.089506 -0.624139
vn -0.776170 0.089506 -0.624139
vn -0.933986 0.187845 -0.303948
vn -0.933986 0.187845 -0.303948
vn -0.933986 0.187845 -0.303948
vn -0.873095 0.066842 -0.482946
vn -0.873095 0.066842 -0.482946
vn -0.873095 0.066842 -0.482946
vn -0.976875 0.209095 -0.044654
vn -0.976875 0.209095 -0.044654
vn -0.976875 0.209095 -0.044654
vn -0.313754 -0.913094 0.260417
vn -0.313754 -0.913094 0.260417
vn -0.313754 -0.913094 0.260417
vn -0.465064 -0.843098 0.270000
vn -0.465064 -0.843098 0.270000
vn -0.465064 -0.843098 0.270000
vn -0.026740 -0.999174 0.030601
vn -0.026740 -0.999174 0.030601
vn -0.026740 -0.999174 0.030601
vn 0.261706 0.951967 -0.158958
vn 0.261706 0.951967 -0.158958
vn 0.261706 0.951968 -0.158958
vn 0.844748 0.415739 0.336990
vn 0.844748 0.415739 0.336990
vn 0.844748 0.415739 0.336990
vn 0.671392 0.733047 -0.108970
vn 0.671392 0.733047 -0.108970
vn 0.671392 0.733047 -0.108970
vn -0.638642 0.717844 0.277194
vn -0.638642 0.717844 0.277194
vn -0.638642 0.717844 0.277194
vn -0.421133 0.845267 0.328892
vn -0.421133 0.845267 0.328892
vn -0.421133 0.845267 0.328892
vn -0.945763 -0.136641 0.294722
vn -0.945763 -0.136641 0.294722
vn -0.945763 -0.136641 0.294722
vn 0.896516 0.080655 0.435608
vn 0.896516 0.080655 0.435608
vn 0.896516 0.080655 0.435608
vn 0.989202 -0.061839 0.132876
vn 0.989202 -0.061839 0.132876
vn 0.989202 -0.061839 0.132876
vn -0.542562 0.098464 -0.834225
vn -0.542562 0.098464 -0.834225
vn -0.542562 0.098464 -0.834225
vn -0.230956 -0.497667 -0.836054
vn -0.230956 -0.497667 -0.836054
vn -0.230956 -0.497667 -0.836054
vn -0.996414 -0.006753 -0.084343
vn -0.996414 -0.006753 -0.084343
vn -0.996414 -0.006753 -0.084343
vn -0.530046 0.806105 0.263147
vn -0.530046 0.806105 0.263147
vn -0.530046 0.806105 0.263147
vn -0.691663 0.707681 -0.144188
vn -0.691663 0.707681 -0.144188
vn -0.691663 0.707681 -0.144188
vn 0.898828 -0.283869 0.333956
vn 0.898828 -0.283869 0.333956
vn 0.898828 -0.283869 0.333956
vn -0.100724 0.935151 -0.339628
vn -0.100724 0.935151 -0.339628
vn -0.100724 0.935151 -0.339628
vn -0.540544 0.808484 0.232736
vn -0.540544 0.808484 0.232736
vn -0.540544 0.808484 0.232736
vn -0.927160 0.121923 0.354272
vn -0.927160 0.121923 0.354272
vn -0.927160 0.121923 0.354272
vn -0.958252 0.206400 -0.197868
vn -0.958252 0.206400 -0.197868
vn -0.958252 0.206400 -0.197868
vn -0.998856 -0.036707 -0.030648
vn -0.998856 -0.036707 -0.030648
vn -0.998856 -0.036707 -0.030648
vn -0.443872 0.887439 -0.124217
vn -0.443872 0.887439 -0.124217
vn -0.443872 0.887439 -0.124217
vn -0.933740 0.207542 -0.291645
vn -0.933740 0.207542 -0.291645
vn -0.933740 0.207542 -0.291645
vn 0.009509 0.919675 -0.392565
vn 0.009509 0.919675 -0.392565
vn 0.009509 0.919675 -0.392565
vn -0.601904 0.554714 -0.574459
vn -0.601904 0.554714 -0.574459
vn -0.601904 0.554714 -0.574459
vn 0.933823 -0.006281 0.357681
vn 0.933823 -0.006281 0.357681
vn 0.933823 -0.006281 0.357681
vn -0.027128 -0.436571 0.899261
vn -0.027128 -0.436571 0.899261
vn -0.027128 -0.436571 0.899261
vn -0.524577 -0.172391 0.833727
vn -0.524577 -0.172391 0.833727
vn -0.524577 -0.172390 0.833727
vn 0.073275 -0.995383 0.061990
vn 0.073275 -0.995383 0.061990
vn 0.073275 -0.995383 0.061990
vn -0.959637 0.167685 -0.225783
vn -0.959637 0.167685 -0.225783
vn -0.959637 0.167685 -0.225783
vn 0.937624 0.277745 -0.209092
vn 0.937624 0.277745 -0.209092
vn 0.937624 0.277745 -0.209092
vn 0.622006 0.744846 -0.241480
vn 0.622006 0.744846 -0.241480
vn 0.622006 0.744846 -0.241480
vn 0.923270 0.294936 -0.246140
vn 0.923270 0.294936 -0.246140
vn 0.923270 0.294936 -0.246140
vn 0.144959 -0.974389 0.171909
vn 0.144959 -0.974389 0.171909
vn 0.144959 -0.974389 0.171909
vn 0.076704 -0.994151 -0.076034
vn 0.076704 -0.994151 -0.076034
vn 0.076704 -0.994151 -0.076034
vn 0.144166 -0.985119 -0.093575
vn 0.144166 -0.985119 -0.093575
vn 0.144166 -0.985119 -0.093575
vn -0.965265 0.156242 0.209409
vn -0.965265 0.156241 0.209409
vn -0.965265 0.156242 0.209409
vn -0.167157 -0.985727 0.020018
vn -0.167157 -0.985727 0.020018
vn -0.167157 -0.985727 0.020018
vn -0.333967 0.934185 -0.125555
vn -0.333967 0.934185 -0.125555
vn -0.333967 0.934185 -0.125555
vn -0.637105 0.233740 0.734482
vn -0.637105 0.233740 0.734482
vn -0.637105 0.233740 0.734482
vn -0.896000 0.306711 0.321111
vn -0.896000 0.306711 0.321111
vn -0.896000 0.306711 0.321111
vn 0.301714 -0.929446 0.212363
vn 0.301714 -0.929446 0.212363
vn 0.301714 -0.929446 0.212363
vn 0.982380 0.172985 0.070745
vn 0.982380 0.172985 0.070745
vn 0.982380 0.172985 0.070745
vn -0.590925 0.126308 -0.796777
vn -0.590925 0.126308 -0.796777
vn -0.590925 0.126308 -0.796777
vn -0.038499 -0.998207 0.045834
vn -0.038499 -0.998207 0.045834
vn -0.038499 -0.998207 0.045834
vn 0.857626 0.505016 0.097142
vn 0.857626 0.505016 0.097142
vn 0.857626 0.505016 0.097142
vn 0.915045 0.245178 -0.320282
vn 0.915045 0.245177 -0.320282
vn 0.915045 0.245178 -0.320282
vn 0.922853 0.374672 0.089236
vn 0.922853 0.374671 0.089236
vn 0.922853 0.374672 0.089236
vn 0.990327 -0.124316 -0.061622
vn 0.990327 -0.124316 -0.061622
vn 0.990327 -0.124316 -0.061622
vn 0.574521 0.722631 -0.384356
vn 0.574521 0.722631 -0.384356
vn 0.574521 0.722631 -0.384356
vn 0.974838 -0.000452 -0.222912
vn 0.974838 -0.000452 -0.222912
vn 0.974838 -0.000452 -0.222912
vn 0.905895 -0.280687 -0.317127
vn 0.905895 -0.280687 -0.317127
vn 0.905895 -0.280687 -0.317127
vn 0.907085 -0.232214 0.351104
vn 0.907085 -0.232214 0.351104
vn 0.907085 -0.232214 0.351104
vn 0.767137 0.641447 0.006734
vn 0.767137 0.641447 0.006734
vn 0.767137 0.641447 0.006734
s off
g pasted__big_rock_1 BigRock1
usemtl pasted__BIG_1SG
f 53//1 50//2 1//3
f 50//4 61//5 1//6
f 32//7 54//8 2//9
f 2//10 54//11 43//12
f 32//13 18//14 47//15
f 32//16 27//17 18//18
f 13//19 47//20 6//21
f 3//22 25//23 46//24
f 22//25 17//26 4//27
f 4//28 20//29 22//30
f 39//31 55//32 4//33
f 55//34 58//35 4//36
f 5//37 22//38 64//39
f 5//40 21//41 44//42
f 48//43 16//44 57//45
f 48//46 65//47 16//48
f 66//49 6//50 7//51
f 33//52 6//53 66//54
f 66//55 43//56 33//57
f 7//58 41//59 66//60
f 6//61 33//62 13//63
f 41//64 34//65 66//66
f 57//67 36//68 46//69
f 58//70 2//71 28//72
f 28//73 2//74 43//75
f 28//76 24//77 37//78
f 24//79 28//80 67//81
f 8//82 37//83 9//84
f 8//85 51//86 37//87
f 8//88 31//89 51//90
f 1//91 69//92 10//93
f 10//94 36//95 1//96
f 33//97 54//98 32//99
f 47//100 61//101 50//102
f 60//103 45//104 47//105
f 47//106 45//107 61//108
f 28//109 43//110 67//111
f 21//112 5//113 64//114
f 64//115 40//116 21//117
f 28//118 20//119 58//120
f 37//121 51//122 35//123
f 59//124 26//125 38//126
f 24//127 67//128 9//129
f 31//130 63//131 51//132
f 12//133 14//134 3//135
f 12//136 3//137 19//138
f 12//139 19//140 56//141
f 13//142 33//143 32//144
f 56//145 19//146 40//147
f 54//148 33//149 43//150
f 2//151 58//152 55//153
f 55//154 32//155 2//156
f 9//157 67//158 34//159
f 25//160 63//161 31//162
f 45//163 52//164 61//165
f 42//166 40//167 19//168
f 20//169 56//170 22//171
f 9//172 34//173 8//174
f 25//175 14//176 63//177
f 28//178 37//179 20//180
f 47//181 50//182 6//183
f 49//184 1//185 36//186
f 35//187 12//188 37//189
f 20//190 4//191 58//192
f 12//193 35//194 14//195
f 14//196 35//197 63//198
f 5//199 17//200 22//201
f 14//202 25//203 3//204
f 23//205 36//206 15//207
f 15//208 36//209 10//210
f 65//211 48//212 53//213
f 53//214 1//215 65//216
f 16//217 65//218 49//219
f 30//220 23//221 15//222
f 30//223 46//224 36//225
f 62//226 57//227 46//228
f 62//229 29//230 57//231
f 57//232 29//233 48//234
f 19//235 15//236 42//237
f 42//238 10//239 40//240
f 40//241 10//242 21//243
f 10//244 44//245 21//246
f 6//247 50//248 7//249
f 11//250 39//251 17//252
f 18//253 60//254 47//255
f 64//256 22//257 56//258
f 3//259 30//260 19//261
f 19//262 30//263 15//264
f 4//265 17//266 39//267
f 55//268 38//269 26//270
f 48//271 29//272 50//273
f 49//274 65//275 1//276
f 30//277 36//278 23//279
f 37//280 24//281 9//282
f 62//283 46//284 25//285
f 27//286 55//287 26//288
f 29//289 7//290 50//291
f 30//292 3//293 46//294
f 56//295 40//296 64//297
f 36//298 57//299 49//300
f 49//301 57//302 16//303
f 34//304 41//305 8//306
f 62//307 31//308 29//309
f 29//310 31//311 7//312
f 7//313 31//314 41//315
f 55//316 39//317 38//318
f 44//319 17//320 5//321
f 11//322 17//323 44//324
f 11//325 44//326 38//327
f 62//328 25//329 31//330
f 13//331 32//332 47//333
f 67//334 66//335 34//336
f 67//337 43//338 66//339
f 44//340 69//341 38//342
f 61//343 52//344 69//345
f 1//346 61//347 69//348
f 51//349 63//350 35//351
f 42//352 15//353 10//354
f 8//355 41//356 31//357
f 56//358 37//359 12//360
f 37//361 56//362 20//363
f 38//364 69//365 59//366
f 38//367 39//368 11//369
f 53//370 48//371 50//372
f 69//373 44//374 10//375
f 27//376 32//377 55//378
f 18//379 27//380 68//381
f 59//382 68//383 26//384
f 68//385 69//386 52//387
f 52//388 45//389 68//390
f 68//391 45//392 60//393
f 59//394 69//395 68//396
f 68//397 27//398 26//399
f 18//400 68//401 60//402
