# This file uses centimeters as units for non-parametric coordinates.

mtllib BigRock2.mtl
g default
v -6.470017 1.206296 5.195633
v -5.191702 -4.223086 5.269655
v 1.160602 -1.846804 5.857154
v 4.430243 3.782088 -4.141689
v -9.719221 -0.663398 -3.596126
v -10.531542 2.469433 -3.078666
v -8.604187 2.405234 -1.284940
v 4.911990 0.233772 8.020393
v -8.109085 3.542119 1.097340
v 5.748362 -4.130677 2.070172
v 9.571958 -2.647428 1.775271
v 5.494572 3.855142 -6.408650
v 5.197945 5.704980 5.481580
v 7.456336 -3.112057 -5.876192
v 2.143934 5.942213 4.656593
v 2.934241 5.012299 5.134602
v -2.075166 3.903695 -0.973573
v 6.775230 -1.017993 8.955157
v -0.947390 1.459509 -8.135941
v 5.542875 -3.049901 7.693090
v -6.393762 3.170318 -7.059446
v -1.434156 -4.938281 2.306293
v 1.346944 2.539901 -8.156132
v 0.423154 0.455586 6.646303
v -1.835852 -5.452920 -6.081273
v 4.829117 5.146859 0.864423
v 4.810668 -2.455976 -7.032663
v -7.544325 3.784012 5.528487
v 4.955917 4.130291 -1.978199
v -3.539281 4.217983 5.866531
v 6.967552 3.364733 -4.833462
v 9.535168 -0.705225 -4.886727
v -2.779034 -5.735354 3.341080
v 0.106330 -4.499509 -6.515650
v -3.474254 -3.572302 6.757885
v -2.138619 4.108066 -6.031822
v -6.113689 -1.505192 -8.318679
v -6.079884 -5.300766 -0.458670
v -9.963691 2.412769 0.001411
v 10.600965 -1.197246 1.042386
v 4.698457 -5.065262 -3.598947
v 0.511155 1.610064 6.768949
v -10.465109 -2.040945 0.363390
v -10.600965 -2.773906 -2.436029
v -5.390818 3.359904 -1.258308
v -2.439684 4.302988 -7.063888
v -8.874735 0.249467 0.869586
v -2.119858 -4.750724 6.380072
v 10.562775 -1.684816 4.664833
v 9.429835 1.672358 7.226716
v 5.608451 3.120663 7.748356
v 9.603324 -2.820070 -2.862726
v 9.524041 -2.128163 -1.198659
v 9.165456 -0.514776 1.041536
v 2.659974 -4.227329 5.309725
v -2.080980 -6.166321 -4.049798
v 2.435517 3.232135 6.605153
v -2.486958 0.470255 5.432855
v -4.787244 0.693177 -9.091682
v 0.288978 -5.278532 -4.755783
v -8.195605 -1.718002 6.544296
v 5.484705 3.436905 -0.102239
v 3.728381 2.077030 7.782597
v 0.719267 -5.198634 -2.020973
v 4.581011 3.656474 -7.324606
v 7.174521 -2.527472 8.027839
v 8.056002 3.732211 7.496005
v -8.695618 2.541350 -4.456209
v -6.986520 -0.711753 6.349527
v 0.514955 -4.063865 5.901034
v 8.442985 -2.944923 6.253333
v -8.476261 -3.387249 -5.822287
v -5.352749 4.885738 -5.210005
v -4.248599 4.712480 4.969506
v -0.465768 4.662578 5.699608
v 6.838601 5.171091 6.460862
v 6.093732 -4.908643 -0.826751
v -8.187947 0.158516 -6.349231
v -3.468820 -1.974271 6.192977
v -8.817281 -2.507113 2.109966
v 3.240736 4.905945 0.435828
vt 0.244414 0.712534
vt 0.334937 0.122077
vt 0.244108 0.033911
vt 0.797408 0.211239
vt 0.848359 0.250954
vt 0.738146 0.277760
vt 0.635353 0.543053
vt 0.119067 0.520232
vt 0.000000 0.538892
vt 0.509160 0.000264
vt 0.470086 0.099478
vt 0.329509 0.583802
vt 0.690472 0.475825
vt 0.166266 0.391435
vt 0.170357 0.426781
vt 0.759480 0.465208
vt 0.272552 0.403369
vt 0.811027 0.431587
vt 0.389666 0.367459
vt 0.845809 0.398522
vt 0.268247 0.115928
vt 0.251324 0.161402
vt 0.190050 0.136435
vt 0.129858 0.191635
vt 0.153926 0.125350
vt 0.664083 0.268853
vt 0.622202 0.374456
vt 0.166715 0.280697
vt 0.510901 0.133863
vt 0.496960 0.061241
vt 0.652649 0.096741
vt 0.082272 0.694758
vt 0.059252 0.655296
vt 0.041081 0.173145
vt 0.508298 0.388634
vt 0.097786 0.474231
vt 0.357030 0.213729
vt 0.682507 0.194596
vt 0.245050 0.255700
vt 0.336145 0.558382
vt 0.275055 0.485454
vt 0.319714 0.510253
vt 0.378944 0.558161
vt 0.199262 0.583117
vt 0.926381 0.202849
vt 0.578782 0.198708
vt 0.974770 0.233861
vt 0.197174 0.206375
vt 0.967170 0.361696
vt 0.873310 0.308574
vt 0.948284 0.264519
vt 0.436618 0.383654
vt 0.475639 0.149356
vt 0.456412 0.165271
vt 0.328704 0.144517
vt 0.401062 0.532115
vt 0.634786 0.204685
vt 0.562249 0.273317
vt 0.269801 0.561631
vt 0.376666 0.490007
vt 0.420466 0.501742
vt 0.417494 0.418284
vt 0.369928 0.434217
vt 0.647000 0.227648
vt 1.000000 0.308036
vt 0.537198 0.040512
vt 0.769308 0.125986
vt 0.720206 0.410009
vt 0.344236 0.474290
vt 0.741125 0.378296
vt 0.208043 0.558849
vt 0.702488 0.230113
vt 0.201407 0.475651
vt 0.268970 0.460333
vt 0.461971 0.482255
vt 0.115808 0.651766
vt 0.399958 0.191571
vt 0.137951 0.570431
vt 0.278954 0.218140
vt 0.034067 0.597388
vt 0.582925 0.462637
vt 0.533268 0.445826
vt 0.375851 0.345510
vt 0.323622 0.362878
vt 0.491821 0.285793
vt 0.543305 0.464630
vt 0.586046 0.538685
vt 0.832798 0.134635
vt 0.492558 0.402741
vt 0.187782 0.358448
vt 0.252259 0.358251
vt 0.515413 0.301467
vt 0.904003 0.171138
vt 0.650273 0.162700
vt 0.066639 0.460737
vt 0.117926 0.385498
vt 0.961574 0.408862
vt 0.925641 0.417197
vt 0.084458 0.222590
vt 0.371052 0.668846
vt 0.467632 0.000000
vt 0.413913 0.651752
vt 0.333565 0.016247
vt 0.061193 0.113916
vt 0.110464 0.082384
vt 0.000000 0.136899
vt 0.159186 0.073053
vt 0.163933 0.716143
vt 0.464530 0.652872
vt 0.555270 0.558040
vt 0.687269 0.114661
vn -0.165206 0.985369 0.041885
vn -0.165206 0.985369 0.041885
vn -0.165206 0.985369 0.041885
vn 0.046541 -0.998372 0.032980
vn 0.046541 -0.998372 0.032980
vn 0.046541 -0.998372 0.032980
vn -0.855238 0.517488 0.027811
vn -0.855238 0.517488 0.027811
vn -0.855238 0.517488 0.027811
vn -0.076905 0.963471 -0.256534
vn -0.076905 0.963471 -0.256534
vn -0.076911 0.963470 -0.256534
vn -0.686254 0.244497 0.685038
vn -0.686254 0.244497 0.685038
vn -0.686254 0.244497 0.685038
vn -0.357261 -0.631302 0.688347
vn -0.357261 -0.631303 0.688347
vn -0.357261 -0.631302 0.688347
vn 0.205075 -0.040366 0.977914
vn 0.205075 -0.040366 0.977913
vn 0.205075 -0.040366 0.977913
vn -0.354924 0.121706 0.926939
vn -0.354924 0.121706 0.926939
vn -0.354924 0.121706 0.926939
vn 0.041140 -0.914671 0.402101
vn 0.041140 -0.914671 0.402101
vn 0.041140 -0.914671 0.402101
vn -0.589824 0.730054 -0.345150
vn -0.589824 0.730054 -0.345150
vn -0.589824 0.730054 -0.345150
vn -0.599423 -0.023272 -0.800094
vn -0.599423 -0.023272 -0.800094
vn -0.599423 -0.023272 -0.800094
vn -0.352504 -0.920099 -0.170761
vn -0.352504 -0.920099 -0.170761
vn -0.352504 -0.920099 -0.170761
vn 0.631929 0.734149 0.248377
vn 0.631929 0.734149 0.248377
vn 0.631929 0.734149 0.248377
vn -0.110655 0.958155 -0.263998
vn -0.110655 0.958155 -0.263998
vn -0.110655 0.958155 -0.263998
vn 0.019532 0.999700 0.014790
vn 0.019532 0.999700 0.014790
vn 0.019532 0.999700 0.014790
vn -0.006812 0.999049 0.043077
vn -0.006812 0.999049 0.043077
vn -0.006812 0.999049 0.043077
vn -0.930968 0.361725 -0.049529
vn -0.930969 0.361724 -0.049529
vn -0.930969 0.361724 -0.049529
vn -0.075954 -0.328369 0.941491
vn -0.075954 -0.328369 0.941491
vn -0.075954 -0.328369 0.941491
vn 0.166569 -0.231180 -0.958546
vn 0.166568 -0.231180 -0.958546
vn 0.166568 -0.231180 -0.958546
vn -0.483108 0.634096 0.603762
vn -0.483108 0.634096 0.603762
vn -0.483108 0.634096 0.603762
vn -0.306421 0.655800 0.689952
vn -0.306421 0.655800 0.689952
vn -0.306421 0.655800 0.689952
vn -0.143579 0.972228 -0.184818
vn -0.143579 0.972228 -0.184818
vn -0.143579 0.972228 -0.184818
vn 0.988451 0.140356 0.057136
vn 0.988451 0.140356 0.057136
vn 0.988451 0.140356 0.057136
vn 0.371403 0.780591 -0.502731
vn 0.371403 0.780591 -0.502731
vn 0.371403 0.780590 -0.502731
vn -0.882362 0.118288 -0.455461
vn -0.882362 0.118288 -0.455461
vn -0.882362 0.118288 -0.455461
vn -0.847827 -0.009853 -0.530181
vn -0.847827 -0.009853 -0.530181
vn -0.847827 -0.009853 -0.530181
vn 0.166909 -0.949133 0.266999
vn 0.166909 -0.949133 0.266999
vn 0.166909 -0.949133 0.266999
vn 0.190201 -0.969846 0.152391
vn 0.190201 -0.969846 0.152391
vn 0.190201 -0.969846 0.152391
vn 0.363500 -0.931118 0.029784
vn 0.363500 -0.931118 0.029784
vn 0.363500 -0.931118 0.029784
vn 0.214691 -0.905331 0.366446
vn 0.214691 -0.905331 0.366446
vn 0.214691 -0.905331 0.366446
vn -0.882096 0.163143 -0.441917
vn -0.882096 0.163143 -0.441917
vn -0.882096 0.163143 -0.441917
vn 0.277629 -0.149920 0.948918
vn 0.277629 -0.149920 0.948918
vn 0.277629 -0.149920 0.948918
vn 0.035484 0.998177 0.048826
vn 0.035484 0.998177 0.048826
vn 0.035484 0.998177 0.048826
vn 0.077429 0.955549 -0.284482
vn 0.077429 0.955549 -0.284482
vn 0.077429 0.955549 -0.284482
vn 0.381404 0.913607 -0.140904
vn 0.381404 0.913607 -0.140904
vn 0.381404 0.913607 -0.140904
vn 0.338733 -0.862946 0.374945
vn 0.338734 -0.862946 0.374945
vn 0.338733 -0.862946 0.374945
vn 0.433239 -0.872979 -0.224080
vn 0.433239 -0.872979 -0.224080
vn 0.433239 -0.872979 -0.224080
vn 0.365816 -0.886995 0.281814
vn 0.365816 -0.886995 0.281814
vn 0.365816 -0.886995 0.281814
vn 0.592079 -0.764536 -0.254806
vn 0.592079 -0.764536 -0.254806
vn 0.592079 -0.764536 -0.254806
vn 0.111133 0.985527 -0.128008
vn 0.111133 0.985527 -0.128008
vn 0.111133 0.985527 -0.128008
vn 0.088896 0.514082 0.853122
vn 0.088896 0.514081 0.853123
vn 0.088896 0.514082 0.853122
vn 0.116559 0.361382 0.925104
vn 0.116559 0.361382 0.925104
vn 0.116559 0.361382 0.925104
vn -0.247676 0.616332 0.747524
vn -0.247676 0.616331 0.747524
vn -0.247676 0.616332 0.747524
vn -0.245592 0.616874 0.747764
vn -0.245592 0.616874 0.747764
vn -0.245592 0.616874 0.747764
vn -0.229490 0.283575 0.931085
vn -0.229490 0.283575 0.931085
vn -0.229490 0.283575 0.931085
vn -0.052599 0.553477 0.831202
vn -0.052599 0.553477 0.831202
vn -0.052599 0.553477 0.831202
vn -0.635500 -0.519182 0.571480
vn -0.635500 -0.519182 0.571480
vn -0.635500 -0.519182 0.571480
vn -0.290812 -0.891223 -0.348065
vn -0.290812 -0.891223 -0.348065
vn -0.290812 -0.891223 -0.348065
vn 0.544955 0.796913 -0.260679
vn 0.544955 0.796913 -0.260679
vn 0.544955 0.796913 -0.260679
vn 0.199372 -0.083876 0.976328
vn 0.199372 -0.083876 0.976328
vn 0.199372 -0.083876 0.976328
vn 0.690619 -0.416066 0.591553
vn 0.690619 -0.416066 0.591553
vn 0.690619 -0.416066 0.591553
vn 0.555472 -0.827170 0.085090
vn 0.555472 -0.827170 0.085090
vn 0.555472 -0.827170 0.085090
vn 0.739910 0.669130 -0.069268
vn 0.739910 0.669130 -0.069268
vn 0.739910 0.669130 -0.069268
vn 0.066021 -0.795501 -0.602345
vn 0.066021 -0.795501 -0.602345
vn 0.066021 -0.795501 -0.602345
vn -0.561247 -0.793213 0.236250
vn -0.561247 -0.793213 0.236250
vn -0.561247 -0.793213 0.236250
vn -0.240413 -0.946483 0.215340
vn -0.240413 -0.946483 0.215340
vn -0.240413 -0.946483 0.215340
vn -0.519958 -0.773099 0.363265
vn -0.519958 -0.773099 0.363265
vn -0.519958 -0.773099 0.363265
vn 0.027053 0.286855 0.957592
vn 0.027053 0.286855 0.957592
vn 0.027053 0.286855 0.957592
vn -0.273489 0.519242 0.809686
vn -0.273489 0.519242 0.809686
vn -0.273489 0.519242 0.809686
vn -0.748512 0.307340 -0.587598
vn -0.748512 0.307340 -0.587598
vn -0.748512 0.307340 -0.587598
vn 0.749053 -0.445314 -0.490525
vn 0.749053 -0.445314 -0.490525
vn 0.749053 -0.445314 -0.490525
vn -0.176332 -0.983489 0.040694
vn -0.176332 -0.983489 0.040694
vn -0.176332 -0.983489 0.040694
vn 0.563631 -0.819824 0.101038
vn 0.563632 -0.819824 0.101038
vn 0.563632 -0.819824 0.101038
vn 0.391361 0.039934 -0.919370
vn 0.391360 0.039934 -0.919371
vn 0.391361 0.039934 -0.919370
vn 0.686012 0.138574 -0.714272
vn 0.686012 0.138574 -0.714272
vn 0.686012 0.138574 -0.714272
vn -0.092323 0.839346 0.535701
vn -0.092323 0.839346 0.535701
vn -0.092323 0.839346 0.535701
vn 0.003281 0.331548 0.943433
vn 0.003281 0.331548 0.943433
vn 0.003281 0.331548 0.943433
vn 0.042404 -0.998847 0.022510
vn 0.042404 -0.998847 0.022510
vn 0.042404 -0.998847 0.022510
vn -0.334221 -0.200414 0.920940
vn -0.334221 -0.200414 0.920940
vn -0.334221 -0.200414 0.920940
vn -0.139960 -0.360866 0.922056
vn -0.139960 -0.360866 0.922056
vn -0.139960 -0.360866 0.922056
vn 0.688158 -0.238855 0.685118
vn 0.688158 -0.238855 0.685118
vn 0.688158 -0.238855 0.685118
vn 0.712179 -0.257900 0.652908
vn 0.712179 -0.257900 0.652908
vn 0.712179 -0.257900 0.652908
vn 0.417967 0.161898 0.893920
vn 0.417967 0.161898 0.893920
vn 0.417967 0.161898 0.893920
vn 0.613429 -0.776246 -0.145421
vn 0.613429 -0.776246 -0.145421
vn 0.613429 -0.776246 -0.145421
vn 0.038081 0.998479 0.039864
vn 0.038081 0.998479 0.039864
vn 0.038081 0.998479 0.039864
vn 0.810973 0.490892 -0.318352
vn 0.810973 0.490892 -0.318352
vn 0.810973 0.490892 -0.318352
vn -0.707458 -0.047272 -0.705173
vn -0.707458 -0.047272 -0.705173
vn -0.707458 -0.047272 -0.705173
vn 0.798486 0.528113 -0.288993
vn 0.798486 0.528113 -0.288993
vn 0.798486 0.528113 -0.288993
vn -0.284821 0.957312 0.049301
vn -0.284821 0.957312 0.049301
vn -0.284821 0.957312 0.049301
vn -0.261654 0.891066 -0.370861
vn -0.261654 0.891066 -0.370861
vn -0.261654 0.891066 -0.370861
vn 0.036556 0.991904 -0.121617
vn 0.036556 0.991904 -0.121617
vn 0.036556 0.991904 -0.121617
vn -0.439059 0.898450 0.003716
vn -0.439059 0.898450 0.003717
vn -0.439059 0.898450 0.003717
vn -0.334771 0.550317 0.764905
vn -0.334771 0.550317 0.764905
vn -0.334771 0.550317 0.764905
vn -0.354000 -0.402704 0.844105
vn -0.354000 -0.402704 0.844105
vn -0.354000 -0.402704 0.844105
vn 0.715837 0.458496 -0.526649
vn 0.715837 0.458496 -0.526649
vn 0.715837 0.458496 -0.526649
vn 0.260585 -0.036289 -0.964769
vn 0.260585 -0.036289 -0.964769
vn 0.260585 -0.036289 -0.964769
vn 0.071927 -0.171105 -0.982624
vn 0.071927 -0.171105 -0.982624
vn 0.071927 -0.171105 -0.982624
vn 0.394295 -0.029056 -0.918524
vn 0.394295 -0.029056 -0.918524
vn 0.394295 -0.029056 -0.918524
vn -0.587332 -0.778616 0.220901
vn -0.587332 -0.778616 0.220901
vn -0.587332 -0.778616 0.220901
vn 0.110473 0.976691 -0.184037
vn 0.110473 0.976691 -0.184037
vn 0.110473 0.976691 -0.184037
vn 0.193439 0.973474 0.122189
vn 0.193439 0.973474 0.122189
vn 0.193439 0.973474 0.122189
vn -0.232616 -0.657982 -0.716205
vn -0.232616 -0.657982 -0.716205
vn -0.232616 -0.657982 -0.716205
vn 0.425926 0.896068 0.125098
vn 0.425926 0.896068 0.125098
vn 0.425926 0.896068 0.125098
vn -0.039126 0.103097 0.993902
vn -0.039126 0.103097 0.993902
vn -0.039126 0.103097 0.993902
vn -0.159742 -0.128253 0.978792
vn -0.159742 -0.128253 0.978792
vn -0.159742 -0.128253 0.978792
vn -0.425795 -0.158492 0.890830
vn -0.425795 -0.158492 0.890830
vn -0.425795 -0.158492 0.890830
vn 0.907223 0.407286 -0.105185
vn 0.907223 0.407286 -0.105185
vn 0.907223 0.407286 -0.105185
vn -0.001861 0.297607 0.954687
vn -0.001861 0.297607 0.954687
vn -0.001861 0.297607 0.954687
vn 0.182208 -0.117596 0.976203
vn 0.182208 -0.117596 0.976203
vn 0.182208 -0.117596 0.976203
vn 0.204724 0.463517 0.862114
vn 0.204724 0.463517 0.862114
vn 0.204724 0.463517 0.862114
vn 0.192644 -0.784309 -0.589702
vn 0.192644 -0.784309 -0.589702
vn 0.192644 -0.784309 -0.589702
vn 0.324898 -0.851868 -0.410807
vn 0.324898 -0.851868 -0.410807
vn 0.324898 -0.851868 -0.410807
vn -0.384250 -0.068519 0.920683
vn -0.384251 -0.068519 0.920683
vn -0.384251 -0.068519 0.920683
vn 0.031480 -0.466792 -0.883807
vn 0.031480 -0.466792 -0.883807
vn 0.031480 -0.466792 -0.883807
vn 0.093915 -0.989890 0.106295
vn 0.093915 -0.989890 0.106295
vn 0.093915 -0.989890 0.106295
vn 0.075796 0.293807 0.952855
vn 0.075796 0.293806 0.952855
vn 0.075796 0.293806 0.952855
vn 0.723471 0.688501 0.050552
vn 0.723471 0.688501 0.050552
vn 0.723471 0.688501 0.050552
vn -0.450130 0.338489 0.826322
vn -0.450130 0.338489 0.826322
vn -0.450130 0.338489 0.826322
vn 0.131495 -0.986665 0.095920
vn 0.131495 -0.986665 0.095920
vn 0.131495 -0.986665 0.095920
vn -0.444588 -0.887911 -0.118134
vn -0.444588 -0.887911 -0.118134
vn -0.444588 -0.887911 -0.118134
vn -0.102032 0.975835 -0.193222
vn -0.102032 0.975835 -0.193222
vn -0.102032 0.975835 -0.193222
vn -0.135805 0.818315 0.558496
vn -0.135805 0.818315 0.558496
vn -0.135805 0.818315 0.558496
vn -0.273886 0.961601 -0.017586
vn -0.273886 0.961601 -0.017586
vn -0.273886 0.961601 -0.017586
vn -0.084249 -0.137853 0.986863
vn -0.084249 -0.137853 0.986863
vn -0.084249 -0.137853 0.986863
vn 0.845433 0.532893 0.035605
vn 0.845433 0.532893 0.035605
vn 0.845433 0.532893 0.035605
vn -0.007726 -0.970667 0.240303
vn -0.007726 -0.970667 0.240303
vn -0.007726 -0.970667 0.240303
vn 0.481539 -0.875097 -0.048229
vn 0.481539 -0.875097 -0.048229
vn 0.481539 -0.875097 -0.048229
vn 0.285385 -0.928179 0.238827
vn 0.285385 -0.928179 0.238827
vn 0.285385 -0.928179 0.238827
vn -0.100245 0.331915 0.937968
vn -0.100245 0.331915 0.937968
vn -0.100245 0.331915 0.937968
vn 0.343701 -0.938701 -0.026652
vn 0.343701 -0.938701 -0.026652
vn 0.343701 -0.938701 -0.026653
vn 0.326102 -0.851439 -0.410743
vn 0.326102 -0.851439 -0.410743
vn 0.326102 -0.851439 -0.410743
vn -0.420050 -0.169566 0.891519
vn -0.420050 -0.169566 0.891519
vn -0.420050 -0.169566 0.891519
vn -0.534520 -0.792860 0.292680
vn -0.534520 -0.792860 0.292680
vn -0.534520 -0.792860 0.292680
vn 0.007361 -0.261160 -0.965267
vn 0.007361 -0.261160 -0.965267
vn 0.007361 -0.261160 -0.965267
vn 0.300523 -0.472628 -0.828438
vn 0.300523 -0.472628 -0.828438
vn 0.300523 -0.472628 -0.828438
vn 0.780105 -0.614074 -0.119790
vn 0.780105 -0.614074 -0.119790
vn 0.780105 -0.614074 -0.119790
vn -0.875937 0.182659 0.446508
vn -0.875937 0.182659 0.446508
vn -0.875937 0.182659 0.446508
vn -0.222396 0.774053 -0.592775
vn -0.222396 0.774053 -0.592775
vn -0.222396 0.774053 -0.592775
vn -0.089793 0.309751 -0.946568
vn -0.089793 0.309751 -0.946568
vn -0.089793 0.309751 -0.946568
vn -0.066406 -0.154955 0.985687
vn -0.066406 -0.154955 0.985687
vn -0.066406 -0.154955 0.985687
vn 0.257906 -0.920901 -0.292276
vn 0.257906 -0.920901 -0.292276
vn 0.257906 -0.920901 -0.292276
vn -0.005376 -0.965927 0.258758
vn -0.005376 -0.965927 0.258758
vn -0.005376 -0.965927 0.258758
vn -0.141722 0.283236 -0.948521
vn -0.141722 0.283236 -0.948521
vn -0.141722 0.283236 -0.948521
vn -0.498730 0.810179 0.308023
vn -0.498729 0.810180 0.308023
vn -0.498729 0.810180 0.308023
vn 0.303258 0.887958 0.345781
vn 0.303258 0.887958 0.345781
vn 0.303258 0.887958 0.345781
vn -0.601008 0.174087 -0.780053
vn -0.601008 0.174086 -0.780054
vn -0.601008 0.174086 -0.780054
vn -0.902068 -0.356386 0.243437
vn -0.902068 -0.356386 0.243437
vn -0.902068 -0.356386 0.243437
vn 0.056821 0.655006 -0.753484
vn 0.056821 0.655006 -0.753484
vn 0.056821 0.655006 -0.753484
vn -0.946814 -0.273503 0.169525
vn -0.946814 -0.273503 0.169525
vn -0.946814 -0.273503 0.169525
vn 0.041185 0.983917 0.173815
vn 0.041185 0.983917 0.173815
vn 0.041185 0.983917 0.173815
vn 0.795731 -0.601290 -0.072542
vn 0.795731 -0.601290 -0.072542
vn 0.795731 -0.601290 -0.072542
vn 0.809322 0.562070 -0.170517
vn 0.809322 0.562070 -0.170517
vn 0.809322 0.562070 -0.170517
vn 0.998155 0.055568 0.024451
vn 0.998155 0.055568 0.024451
vn 0.998155 0.055568 0.024451
vn -0.550766 -0.800505 0.236322
vn -0.550766 -0.800505 0.236322
vn -0.550766 -0.800505 0.236322
vn -0.157598 0.972364 -0.172255
vn -0.157598 0.972364 -0.172255
vn -0.157598 0.972364 -0.172255
vn 0.020590 0.558110 -0.829511
vn 0.020590 0.558110 -0.829511
vn 0.020590 0.558110 -0.829511
vn -0.975960 0.185601 0.114255
vn -0.975960 0.185601 0.114255
vn -0.975960 0.185601 0.114255
vn -0.652789 0.299494 0.695823
vn -0.652789 0.299494 0.695823
vn -0.652789 0.299494 0.695823
vn -0.824918 0.563782 0.040748
vn -0.824918 0.563782 0.040748
vn -0.824918 0.563782 0.040748
vn -0.675295 0.153821 -0.721329
vn -0.675295 0.153821 -0.721329
vn -0.675295 0.153821 -0.721329
vn -0.767430 -0.385947 0.511954
vn -0.767430 -0.385947 0.511954
vn -0.767430 -0.385947 0.511954
vn -0.860461 -0.256447 0.440274
vn -0.860461 -0.256447 0.440274
vn -0.860461 -0.256447 0.440274
vn -0.347775 0.170772 0.921894
vn -0.347775 0.170772 0.921894
vn -0.347775 0.170772 0.921894
vn 0.803573 0.507945 -0.310263
vn 0.803573 0.507945 -0.310263
vn 0.803573 0.507945 -0.310263
vn 0.213740 -0.962975 0.164302
vn 0.213740 -0.962975 0.164302
vn 0.213740 -0.962975 0.164302
vn 0.259292 0.960001 0.105672
vn 0.259292 0.960001 0.105672
vn 0.259292 0.960001 0.105672
vn -0.110655 0.958155 -0.263998
vn -0.076905 0.963471 -0.256534
s off
g BigRock3:pasted__small_rock_11BigRock2
usemtl BigRock3:initialShadingGroup
f 17/103/1 36/2/2 45/3/3
f 41/4/4 77/5/5 64/6/6
f 61/95/7 1/8/8 80/9/9
s 1
f 26/10/10 4/11/11 81/101/12
s off
f 2/96/13 35/14/14 79/15/15
f 2/96/16 48/90/17 35/14/18
f 3/17/19 35/14/20 70/91/21
f 3/17/22 70/91/23 20/19/24
f 70/18/25 55/20/26 20/98/27
f 73/21/28 21/22/29 68/23/30
f 68/23/31 5/24/32 6/25/33
f 56/26/34 38/27/35 72/92/36
f 31/29/37 29/30/38 54/31/39
s 2
f 4/11/40 17/103/41 81/101/42
s off
f 7/107/43 6/25/44 39/105/45
f 6/25/46 7/107/47 68/23/48
f 43/34/49 5/24/50 44/99/51
f 79/15/52 69/36/53 2/96/54
f 19/37/55 34/83/56 37/39/57
f 16/40/58 42/41/59 57/42/60
f 16/40/61 57/42/62 13/43/63
f 74/44/64 17/1/65 45/108/66
f 54/31/67 53/94/68 32/46/69
f 54/31/70 40/111/71 53/94/72
f 5/24/73 78/48/74 44/99/75
f 44/99/76 78/48/77 72/28/78
f 20/98/79 55/20/80 71/49/81
f 71/49/82 55/20/83 10/50/84
f 10/50/85 11/51/86 71/49/87
f 20/98/88 71/49/89 66/97/90
f 78/48/91 5/24/92 68/23/93
f 2/96/94 69/36/95 61/95/96
f 12/53/97 36/2/98 4/11/99
f 65/54/100 46/55/101 12/53/102
f 13/43/103 76/56/104 26/102/105
f 41/4/106 52/93/107 53/45/108
f 52/93/109 41/4/110 14/88/111
f 11/51/112 10/50/113 77/5/114
f 53/45/115 77/5/116 41/4/117
f 13/43/118 26/102/119 15/12/120
f 15/12/121 75/59/122 16/40/123
f 16/40/124 75/59/125 42/41/126
f 57/42/127 51/60/128 13/43/129
f 13/43/130 51/60/131 76/56/132
f 16/40/133 13/43/134 15/12/135
f 51/60/136 67/61/137 76/56/138
f 66/52/139 18/62/140 8/63/141
f 72/92/142 25/64/143 56/26/144
f 29/30/145 4/11/146 26/10/147
f 48/90/148 70/91/149 35/14/150
f 71/89/151 49/86/152 66/52/153
f 71/49/154 11/51/155 49/65/156
f 62/109/157 49/86/158 54/110/159
f 27/67/160 14/88/161 41/4/162
f 2/13/163 61/7/164 38/27/165
f 38/27/166 48/16/167 2/13/168
f 33/68/169 48/16/170 38/27/171
f 67/61/172 51/60/173 18/62/174
f 57/42/175 63/69/176 51/60/177
f 68/23/178 21/22/179 78/48/180
f 52/57/181 14/58/182 32/46/183
f 56/26/184 33/68/185 38/27/186
f 33/68/187 56/26/188 22/70/189
f 14/58/190 12/53/191 32/46/192
f 14/58/193 65/54/194 12/53/195
f 74/44/196 30/71/197 75/59/198
f 75/59/199 30/71/200 42/41/201
f 41/4/202 64/6/203 60/72/204
f 30/71/205 58/73/206 42/41/207
f 63/69/208 24/74/209 3/17/210
f 18/62/211 66/52/212 50/75/213
f 50/75/214 66/52/215 49/86/216
f 50/75/217 67/61/218 18/62/219
f 11/51/220 77/5/221 53/45/222
f 17/103/223 4/11/224 36/2/225
f 26/102/226 50/75/227 62/109/228
f 78/48/229 37/39/230 72/28/231
f 26/102/232 76/56/233 50/75/234
f 7/107/235 45/3/236 68/23/237
f 45/108/238 7/32/239 9/76/240
f 17/1/241 74/44/242 75/59/243
f 75/59/244 15/12/245 17/1/246
f 1/8/247 61/95/248 69/36/249
f 24/74/250 58/73/251 3/17/252
f 12/53/253 31/29/254 32/46/255
f 65/54/256 27/85/257 23/77/258
f 23/77/259 27/85/260 19/37/261
f 65/54/262 14/58/263 27/85/264
f 61/7/265 80/81/266 38/27/267
f 29/30/268 31/29/269 4/11/270
f 4/11/271 31/29/272 12/53/273
f 25/84/274 72/28/275 37/39/276
f 49/86/277 40/87/278 54/110/279
f 63/69/280 8/63/281 51/60/282
f 66/52/283 8/63/284 20/19/285
f 8/63/286 63/69/287 3/17/288
f 29/30/289 26/10/290 62/66/291
f 58/73/292 1/8/293 79/15/294
f 24/74/295 57/42/296 42/41/297
f 79/15/298 1/8/299 69/36/300
f 60/72/301 27/67/302 41/4/303
f 27/67/304 60/72/305 34/38/306
f 58/73/307 24/74/308 42/41/309
f 34/83/310 25/84/311 37/39/312
f 22/70/313 64/6/314 55/20/315
f 58/73/316 35/14/317 3/17/318
f 62/66/319 54/31/320 29/30/321
f 63/69/322 57/42/323 24/74/324
f 55/20/325 64/6/326 10/50/327
f 38/27/328 44/35/329 72/92/330
f 45/108/331 9/76/332 74/44/333
f 28/78/334 30/71/335 74/44/336
f 74/44/337 9/76/338 28/78/339
f 58/73/340 30/71/341 1/8/342
f 31/29/343 54/31/344 32/46/345
f 22/70/346 55/20/347 70/18/348
f 33/68/349 22/70/350 70/18/351
f 33/68/352 70/18/353 48/16/354
f 58/73/355 79/15/356 35/14/357
f 56/26/358 60/72/359 64/6/360
f 34/38/361 60/72/362 25/64/363
f 20/19/364 8/63/365 3/17/366
f 80/81/367 43/82/368 38/27/369
f 19/37/370 27/85/371 34/83/372
f 59/79/373 19/37/374 37/39/375
f 11/51/376 53/45/377 40/47/378
f 47/80/379 80/9/380 1/8/381
f 46/55/382 21/22/383 73/21/384
f 46/55/385 19/37/386 21/22/387
f 1/8/388 30/71/389 28/78/390
f 60/72/391 56/26/392 25/64/393
f 77/5/394 10/50/395 64/6/396
f 23/77/397 19/37/398 46/55/399
f 73/21/400 68/23/401 45/3/402
f 36/2/403 73/21/404 45/3/405
f 37/39/406 78/48/407 21/22/408
f 39/105/409 5/24/410 47/104/411
f 59/79/412 21/22/413 19/37/414
f 6/25/415 5/24/416 39/105/417
f 46/55/418 36/2/419 12/53/420
f 11/51/421 40/47/422 49/65/423
f 76/56/424 67/61/425 50/75/426
f 53/94/427 52/57/428 32/46/429
f 44/35/430 38/27/431 43/82/432
f 7/32/433 39/33/434 28/78/435
f 65/54/436 23/77/437 46/55/438
f 28/78/439 9/76/440 7/32/441
f 47/104/442 43/34/443 80/106/444
f 47/104/445 5/24/446 43/34/447
f 21/22/448 59/79/449 37/39/450
f 47/80/451 1/8/452 28/78/453
f 47/80/454 28/78/455 39/33/456
f 51/60/457 8/63/458 18/62/459
f 49/86/460 62/109/461 50/75/462
f 22/70/463 56/26/464 64/6/465
f 46/55/466 73/21/467 36/2/468
s 2
f 81/100/42 17/1/41 15/12/469
s 1
f 26/102/10 81/100/12 15/12/470
