# This file uses centimeters as units for non-parametric coordinates.

mtllib Bottle.mtl
g default
v 0.251925 -0.889816 -0.251925
v 0.000000 -0.889816 -0.356276
v -0.251925 -0.889816 -0.251925
v -0.356276 -0.889816 0.000000
v -0.251925 -0.889816 0.251925
v 0.000000 -0.889816 0.356276
v 0.251925 -0.889816 0.251925
v 0.356276 -0.889816 0.000000
v 0.251925 0.820825 -0.251925
v 0.000000 0.820825 -0.356276
v -0.251925 0.820825 -0.251925
v -0.356276 0.820825 0.000000
v -0.251925 0.820825 0.251925
v 0.000000 0.820825 0.356276
v 0.251925 0.820825 0.251925
v 0.356276 0.820825 0.000000
v 0.000000 -0.889816 0.000000
v 0.119572 1.203536 -0.119572
v 0.000000 1.203536 -0.169101
v -0.119572 1.203536 -0.119572
v -0.169101 1.203536 0.000000
v -0.119572 1.203536 0.119572
v 0.000000 1.203536 0.169101
v 0.119572 1.203536 0.119572
v 0.169101 1.203536 0.000000
v 0.000000 1.420831 0.000000
v 0.139911 1.203536 -0.139911
v 0.000000 1.203536 -0.197864
v 0.000000 1.420831 -0.197864
v 0.139911 1.420831 -0.139911
v -0.139911 1.203536 -0.139911
v -0.139911 1.420831 -0.139911
v -0.197864 1.203536 0.000000
v -0.197864 1.420831 0.000000
v -0.139911 1.203536 0.139911
v -0.139911 1.420831 0.139911
v 0.000000 1.203536 0.197864
v 0.000000 1.420831 0.197864
v 0.139911 1.203536 0.139911
v 0.139911 1.420831 0.139911
v 0.197865 1.203536 0.000000
v 0.197865 1.420831 0.000000
v 0.251925 -0.083651 -0.251925
v 0.000000 -0.083651 -0.356276
v 0.000000 0.427815 -0.356276
v 0.251925 0.427815 -0.251925
v -0.251925 -0.083651 -0.251925
v -0.251925 0.427815 -0.251925
v -0.356276 -0.083651 0.000000
v -0.356276 0.427815 0.000000
v -0.251925 -0.083651 0.251925
v -0.251925 0.427815 0.251925
v 0.000000 -0.083651 0.356276
v 0.000000 0.427815 0.356276
v 0.251925 -0.083651 0.251925
v 0.251925 0.427815 0.251925
v 0.356276 -0.083651 0.000000
v 0.356276 0.427815 0.000000
v 0.235112 -0.066584 -0.235112
v 0.000000 -0.066584 -0.332499
v 0.000000 0.410748 -0.332499
v 0.235112 0.410748 -0.235112
v -0.235112 -0.066584 -0.235112
v -0.235112 0.410748 -0.235112
v -0.332499 -0.066584 0.000000
v -0.332499 0.410748 0.000000
v -0.235112 -0.066584 0.235112
v -0.235112 0.410748 0.235112
v 0.000000 -0.066584 0.332499
v 0.000000 0.410748 0.332499
v 0.235112 -0.066584 0.235112
v 0.235112 0.410748 0.235112
v 0.332499 -0.066584 0.000000
v 0.332499 0.410748 0.000000
vt 0.902608 0.651514
vt 0.028323 0.058225
vt 0.727958 0.000024
vt 0.677400 0.676836
vt 0.028323 0.123762
vt 0.727969 0.093097
vt 0.028323 0.221696
vt 0.727979 0.186170
vt 0.028323 0.320888
vt 0.727990 0.279243
vt 0.028323 0.420713
vt 0.728001 0.372315
vt 0.028323 0.520446
vt 0.728011 0.465388
vt 0.028323 0.619769
vt 0.728022 0.558461
vt 0.332205 0.025468
vt 0.332205 0.717824
vt 0.461699 0.864060
vt 0.332205 0.123762
vt 0.332205 0.221696
vt 0.332205 0.320888
vt 0.332205 0.420713
vt 0.332205 0.520446
vt 0.332205 0.619769
vt 0.929804 0.811442
vt 0.957505 0.878295
vt 0.906332 0.000815
vt 0.906898 0.056198
vt 0.907463 0.111581
vt 0.908028 0.166964
vt 0.908594 0.222347
vt 0.909159 0.277730
vt 0.909724 0.333114
vt 0.500602 0.025869
vt 0.995560 0.003930
vt 0.999517 0.391612
vt 0.533570 0.119006
vt 0.996125 0.059313
vt 0.556459 0.208156
vt 0.996690 0.114696
vt 0.570436 0.295198
vt 0.997256 0.170079
vt 0.574993 0.381493
vt 0.997821 0.225462
vt 0.569441 0.467678
vt 0.998386 0.280846
vt 0.553052 0.554063
vt 0.998952 0.336229
vt 0.989757 0.387686
vt 0.985800 0.000004
vt 0.986366 0.055387
vt 0.986931 0.110770
vt 0.987496 0.166153
vt 0.988061 0.221536
vt 0.988627 0.276919
vt 0.989192 0.332303
vt 0.037717 0.025468
vt 0.037717 0.717824
vt 0.665048 0.000000
vt 0.037717 0.123762
vt 0.675306 0.092566
vt 0.037717 0.221696
vt 0.695940 0.186661
vt 0.037717 0.320888
vt 0.711586 0.283146
vt 0.037717 0.420713
vt 0.717229 0.381573
vt 0.037717 0.520446
vt 0.711249 0.480644
vt 0.037717 0.619769
vt 0.693694 0.578859
vt 0.028323 0.780502
vt 0.910855 0.443880
vt 0.483747 0.726626
vt 0.990323 0.443069
vt 0.362407 0.591898
vt 0.524963 0.640849
vt 0.643729 0.776230
vt 0.037717 0.816094
vt 0.667251 0.675582
vt 0.728043 0.744607
vt 0.902598 0.558441
vt 0.028323 0.717824
vt 0.902587 0.465369
vt 0.902577 0.372296
vt 0.902566 0.279223
vt 0.902555 0.186150
vt 0.902545 0.093077
vt 0.902619 0.744587
vt 0.902534 0.000004
vt 0.703627 0.580360
vt 0.728032 0.651534
vt 0.721217 0.481581
vt 0.727240 0.381740
vt 0.721599 0.282608
vt 0.705982 0.185791
vt 0.685552 0.092426
vt 0.655171 0.773550
vt 0.675883 0.003501
vt 0.406851 0.497216
vt 0.389439 0.550406
vt 0.416360 0.438352
vt 0.418928 0.377047
vt 0.414972 0.315478
vt 0.404597 0.255729
vt 0.387387 0.200582
vt 0.361569 0.154729
vt 1.000000 0.438944
vt 0.996664 0.839127
vt 0.910289 0.388497
vt 0.996658 0.783741
vt 0.957489 0.744582
vt 0.902103 0.744588
vt 0.862944 0.783756
vt 0.862951 0.839143
vt 0.902119 0.878302
vt 0.998869 0.328178
vt 0.998304 0.272795
vt 0.997739 0.217411
vt 0.997173 0.162028
vt 0.996608 0.106645
vt 0.996043 0.051262
vt 0.999435 0.383561
vt 0.582074 0.913943
vt 0.582090 0.814215
vt 0.511544 0.984451
vt 0.411816 0.984435
vt 0.341308 0.913906
vt 0.341324 0.814177
vt 0.411853 0.743670
vt 0.511582 0.743685
vt 0.332205 0.816094
vn 0.382683 0.000000 -0.923880
vn 0.382683 0.000000 -0.923880
vn 0.382683 0.000000 -0.923880
vn 0.382683 0.000000 -0.923880
vn -0.382683 0.000000 -0.923880
vn -0.382683 0.000000 -0.923880
vn -0.382683 0.000000 -0.923880
vn -0.382683 0.000000 -0.923880
vn -0.923880 0.000000 -0.382683
vn -0.923880 0.000000 -0.382683
vn -0.923880 0.000000 -0.382683
vn -0.923880 0.000000 -0.382683
vn -0.923879 0.000000 0.382684
vn -0.923879 0.000000 0.382684
vn -0.923879 0.000000 0.382684
vn -0.923879 0.000000 0.382684
vn -0.382684 0.000000 0.923880
vn -0.382684 0.000000 0.923880
vn -0.382684 0.000000 0.923880
vn -0.382684 0.000000 0.923880
vn 0.382683 0.000000 0.923880
vn 0.382683 0.000000 0.923880
vn 0.382683 0.000000 0.923880
vn 0.382683 0.000000 0.923880
vn 0.923879 0.000000 0.382684
vn 0.923879 0.000000 0.382684
vn 0.923879 0.000000 0.382684
vn 0.923879 0.000000 0.382684
vn 0.923880 0.000000 -0.382684
vn 0.923880 0.000000 -0.382684
vn 0.923880 0.000000 -0.382684
vn 0.923880 0.000000 -0.382684
vn 0.000000 -1.000000 0.000000
vn 0.000000 -1.000000 0.000000
vn 0.000000 -1.000000 0.000000
vn 0.000000 -1.000000 0.000000
vn 0.000000 -1.000000 0.000000
vn 0.000000 -1.000000 0.000000
vn 0.000000 -1.000000 0.000000
vn 0.000000 -1.000000 0.000000
vn 0.000000 -1.000000 0.000000
vn 0.000000 1.000000 0.000000
vn 0.000000 1.000000 0.000000
vn 0.000000 1.000000 0.000000
vn 0.000000 1.000000 0.000000
vn 0.000000 1.000000 0.000000
vn 0.000000 1.000000 0.000000
vn 0.000000 1.000000 0.000002
vn 0.000000 1.000000 0.000002
vn 0.000000 1.000000 0.000002
vn 0.000000 1.000000 -0.000002
vn 0.000000 1.000000 -0.000002
vn 0.000000 1.000000 -0.000002
vn 0.000000 1.000000 0.000000
vn 0.000000 1.000000 0.000000
vn 0.000000 1.000000 0.000000
vn 0.000000 1.000000 0.000000
vn 0.000000 1.000000 0.000000
vn 0.000000 1.000000 0.000000
vn 0.000000 1.000000 0.000000
vn 0.000000 1.000000 0.000000
vn 0.000000 1.000000 0.000000
vn 0.000000 1.000000 0.000001
vn 0.000000 1.000000 0.000001
vn 0.000000 1.000000 0.000001
vn 0.348736 0.411764 -0.841923
vn 0.348736 0.411764 -0.841923
vn 0.348736 0.411764 -0.841923
vn 0.348736 0.411764 -0.841923
vn -0.348736 0.411764 -0.841922
vn -0.348736 0.411764 -0.841922
vn -0.348736 0.411764 -0.841922
vn -0.348736 0.411764 -0.841922
vn -0.841922 0.411765 -0.348736
vn -0.841922 0.411765 -0.348736
vn -0.841922 0.411765 -0.348736
vn -0.841922 0.411765 -0.348736
vn -0.841922 0.411765 0.348736
vn -0.841922 0.411764 0.348736
vn -0.841922 0.411764 0.348736
vn -0.841922 0.411764 0.348736
vn -0.348736 0.411764 0.841922
vn -0.348736 0.411764 0.841922
vn -0.348736 0.411764 0.841922
vn -0.348736 0.411764 0.841922
vn 0.348736 0.411764 0.841923
vn 0.348736 0.411764 0.841923
vn 0.348736 0.411764 0.841923
vn 0.348736 0.411764 0.841923
vn 0.841922 0.411764 0.348736
vn 0.841922 0.411764 0.348736
vn 0.841922 0.411764 0.348736
vn 0.841922 0.411764 0.348736
vn 0.841922 0.411764 -0.348736
vn 0.841922 0.411764 -0.348736
vn 0.841922 0.411764 -0.348736
vn 0.841922 0.411764 -0.348736
vn 0.382684 0.000000 -0.923879
vn 0.382684 0.000000 -0.923879
vn 0.382684 0.000000 -0.923879
vn 0.382684 0.000000 -0.923879
vn -0.382685 0.000000 -0.923879
vn -0.382685 0.000000 -0.923879
vn -0.382685 0.000000 -0.923879
vn -0.382685 0.000000 -0.923879
vn -0.923879 0.000000 -0.382685
vn -0.923879 0.000000 -0.382685
vn -0.923879 0.000000 -0.382685
vn -0.923879 0.000000 -0.382685
vn -0.923879 0.000000 0.382685
vn -0.923879 0.000000 0.382685
vn -0.923879 0.000000 0.382685
vn -0.923879 0.000000 0.382685
vn -0.382684 0.000000 0.923879
vn -0.382684 0.000000 0.923879
vn -0.382684 0.000000 0.923879
vn -0.382684 0.000000 0.923879
vn 0.382683 0.000000 0.923880
vn 0.382683 0.000000 0.923880
vn 0.382683 0.000000 0.923880
vn 0.382683 0.000000 0.923880
vn 0.923879 0.000000 0.382685
vn 0.923879 0.000000 0.382685
vn 0.923879 0.000000 0.382685
vn 0.923879 0.000000 0.382685
vn 0.923879 0.000000 -0.382685
vn 0.923879 0.000000 -0.382685
vn 0.923879 0.000000 -0.382685
vn 0.923879 0.000000 -0.382685
vn 0.000000 -1.000000 -0.000001
vn 0.000000 -1.000000 -0.000001
vn 0.000000 -1.000000 -0.000001
vn 0.000000 -1.000000 -0.000001
vn 0.000000 -1.000000 0.000000
vn 0.000000 -1.000000 0.000000
vn 0.000000 -1.000000 0.000000
vn 0.000000 -1.000000 0.000000
vn 0.000000 -1.000000 -0.000000
vn 0.000000 -1.000000 -0.000000
vn 0.000000 -1.000000 -0.000000
vn 0.000000 -1.000000 -0.000000
vn 0.000000 -1.000000 -0.000001
vn 0.000000 -1.000000 -0.000001
vn 0.000000 -1.000000 -0.000001
vn 0.000000 -1.000000 -0.000001
vn 0.000000 -1.000000 0.000001
vn 0.000000 -1.000000 0.000001
vn 0.000000 -1.000000 0.000001
vn 0.000000 -1.000000 0.000001
vn 0.000000 -1.000000 0.000000
vn 0.000000 -1.000000 0.000000
vn 0.000000 -1.000000 0.000000
vn 0.000000 -1.000000 0.000000
vn 0.000000 -1.000000 0.000000
vn 0.000000 -1.000000 0.000000
vn 0.000000 -1.000000 0.000000
vn 0.000000 -1.000000 0.000000
vn 0.000000 -1.000000 0.000001
vn 0.000000 -1.000000 0.000001
vn 0.000000 -1.000000 0.000001
vn 0.000000 -1.000000 0.000001
vn 0.382683 0.000000 -0.923880
vn 0.382683 0.000000 -0.923880
vn 0.382683 0.000000 -0.923880
vn 0.382683 0.000000 -0.923880
vn 0.382683 0.000000 -0.923880
vn 0.382683 0.000000 -0.923880
vn 0.382683 0.000000 -0.923880
vn 0.382683 0.000000 -0.923880
vn -0.382683 0.000000 -0.923880
vn -0.382683 0.000000 -0.923880
vn -0.382683 0.000000 -0.923880
vn -0.382683 0.000000 -0.923880
vn -0.382683 0.000000 -0.923880
vn -0.382683 0.000000 -0.923880
vn -0.382683 0.000000 -0.923880
vn -0.382683 0.000000 -0.923880
vn -0.923879 0.000000 -0.382684
vn -0.923879 0.000000 -0.382684
vn -0.923879 0.000000 -0.382684
vn -0.923879 0.000000 -0.382684
vn -0.923879 0.000000 -0.382684
vn -0.923879 0.000000 -0.382684
vn -0.923879 0.000000 -0.382684
vn -0.923879 0.000000 -0.382684
vn -0.923879 0.000000 0.382684
vn -0.923879 0.000000 0.382684
vn -0.923879 0.000000 0.382684
vn -0.923879 0.000000 0.382684
vn -0.923880 0.000000 0.382684
vn -0.923880 0.000000 0.382684
vn -0.923880 0.000000 0.382684
vn -0.923880 0.000000 0.382684
vn -0.382684 0.000000 0.923879
vn -0.382684 0.000000 0.923879
vn -0.382684 0.000000 0.923879
vn -0.382684 0.000000 0.923879
vn -0.382684 0.000000 0.923879
vn -0.382684 0.000000 0.923879
vn -0.382684 0.000000 0.923879
vn -0.382684 0.000000 0.923879
vn 0.382684 0.000000 0.923879
vn 0.382684 0.000000 0.923879
vn 0.382684 0.000000 0.923879
vn 0.382684 0.000000 0.923879
vn 0.382684 0.000000 0.923879
vn 0.382684 0.000000 0.923879
vn 0.382684 0.000000 0.923879
vn 0.382684 0.000000 0.923879
vn 0.923879 0.000000 0.382684
vn 0.923879 0.000000 0.382684
vn 0.923879 0.000000 0.382684
vn 0.923879 0.000000 0.382684
vn 0.923879 0.000000 0.382684
vn 0.923879 0.000000 0.382684
vn 0.923879 0.000000 0.382684
vn 0.923879 0.000000 0.382684
vn 0.923879 0.000000 -0.382684
vn 0.923879 0.000000 -0.382684
vn 0.923879 0.000000 -0.382684
vn 0.923879 0.000000 -0.382684
vn 0.923879 0.000000 -0.382684
vn 0.923879 0.000000 -0.382684
vn 0.923879 0.000000 -0.382684
vn 0.923879 0.000000 -0.382684
vn 0.234786 0.789674 -0.566825
vn 0.234786 0.789674 -0.566825
vn 0.234786 0.789674 -0.566825
vn 0.234786 0.789674 -0.566825
vn 0.234787 -0.789673 -0.566826
vn 0.234787 -0.789673 -0.566826
vn 0.234787 -0.789673 -0.566826
vn 0.234787 -0.789673 -0.566826
vn -0.234786 0.789674 -0.566824
vn -0.234786 0.789674 -0.566824
vn -0.234786 0.789674 -0.566824
vn -0.234786 0.789674 -0.566824
vn -0.234787 -0.789673 -0.566826
vn -0.234787 -0.789673 -0.566826
vn -0.234787 -0.789673 -0.566826
vn -0.234787 -0.789673 -0.566826
vn -0.566824 0.789675 -0.234786
vn -0.566824 0.789675 -0.234786
vn -0.566824 0.789675 -0.234786
vn -0.566824 0.789675 -0.234786
vn -0.566825 -0.789674 -0.234786
vn -0.566825 -0.789674 -0.234786
vn -0.566825 -0.789674 -0.234786
vn -0.566825 -0.789674 -0.234786
vn -0.566823 0.789675 0.234786
vn -0.566823 0.789675 0.234786
vn -0.566823 0.789675 0.234786
vn -0.566823 0.789675 0.234786
vn -0.566824 -0.789674 0.234786
vn -0.566824 -0.789674 0.234786
vn -0.566824 -0.789674 0.234786
vn -0.566824 -0.789675 0.234786
vn -0.234786 0.789676 0.566823
vn -0.234786 0.789676 0.566823
vn -0.234786 0.789676 0.566823
vn -0.234786 0.789676 0.566823
vn -0.234786 -0.789674 0.566825
vn -0.234786 -0.789674 0.566824
vn -0.234786 -0.789674 0.566824
vn -0.234786 -0.789674 0.566825
vn 0.234786 0.789675 0.566823
vn 0.234786 0.789675 0.566823
vn 0.234786 0.789675 0.566823
vn 0.234786 0.789675 0.566823
vn 0.234786 -0.789674 0.566824
vn 0.234786 -0.789674 0.566824
vn 0.234786 -0.789674 0.566824
vn 0.234786 -0.789674 0.566824
vn 0.566824 0.789674 0.234787
vn 0.566824 0.789674 0.234786
vn 0.566824 0.789674 0.234787
vn 0.566824 0.789674 0.234787
vn 0.566825 -0.789674 0.234787
vn 0.566825 -0.789674 0.234787
vn 0.566825 -0.789674 0.234787
vn 0.566825 -0.789674 0.234787
vn 0.566825 0.789674 -0.234786
vn 0.566824 0.789674 -0.234787
vn 0.566825 0.789674 -0.234787
vn 0.566824 0.789674 -0.234787
vn 0.566825 -0.789673 -0.234787
vn 0.566825 -0.789673 -0.234787
vn 0.566825 -0.789673 -0.234787
vn 0.566826 -0.789673 -0.234787
s off
g pCylinder3
usemtl initialShadingGroup
f 59/1/1 60/90/2 61/82/3 62/93/4
f 60/91/5 63/89/6 64/6/7 61/3/8
f 63/89/9 65/88/10 66/8/11 64/6/12
f 65/88/13 67/87/14 68/10/15 66/8/16
f 67/87/17 69/86/18 70/12/19 68/10/20
f 69/86/21 71/85/22 72/14/23 70/12/24
f 71/85/25 73/83/26 74/16/27 72/14/28
f 73/83/29 59/1/30 62/93/31 74/16/32
s 1
f 2/132/33 1/126/34 17/19/35
f 3/131/36 2/132/33 17/19/35
f 4/130/37 3/131/36 17/19/35
f 5/129/38 4/130/37 17/19/35
f 6/128/39 5/129/38 17/19/35
f 7/127/40 6/128/39 17/19/35
f 8/125/41 7/127/40 17/19/35
f 1/126/34 8/125/41 17/19/35
s off
f 26/26/42 30/27/43 29/117/44
f 26/26/45 29/117/46 32/116/47
f 26/26/48 32/116/49 34/115/50
f 26/26/51 34/115/52 36/114/53
f 26/26/54 36/114/55 38/113/56
f 26/26/57 38/113/58 40/112/59
f 26/26/60 40/112/61 42/110/62
f 26/26/63 42/110/64 30/27/65
f 9/78/66 10/75/67 19/77/68 18/102/69
f 10/35/70 11/38/71 20/107/72 19/108/73
f 11/38/74 12/40/75 21/106/76 20/107/77
f 12/40/78 13/42/79 22/105/80 21/106/81
f 13/42/82 14/44/83 23/104/84 22/105/85
f 14/44/86 15/46/87 24/103/88 23/104/89
f 15/46/90 16/48/91 25/101/92 24/103/93
f 16/48/94 9/78/95 18/102/96 25/101/97
f 27/50/98 28/76/99 29/74/100 30/111/101
f 28/51/102 31/52/103 32/29/104 29/28/105
f 31/52/106 33/53/107 34/30/108 32/29/109
f 33/53/110 35/54/111 36/31/112 34/30/113
f 35/54/114 37/55/115 38/32/116 36/31/117
f 37/55/118 39/56/119 40/33/120 38/32/121
f 39/56/122 41/57/123 42/34/124 40/33/125
f 41/57/126 27/50/127 30/111/128 42/34/129
f 18/37/130 19/109/131 28/76/132 27/50/133
f 19/36/134 20/123/135 31/52/136 28/51/137
f 20/39/138 21/122/139 33/53/140 31/52/141
f 21/41/142 22/121/143 35/54/144 33/53/145
f 22/43/146 23/120/147 37/55/148 35/54/149
f 23/45/150 24/119/151 39/56/152 37/55/153
f 24/47/154 25/118/155 41/57/156 39/56/157
f 25/49/158 18/124/159 27/50/160 41/57/161
f 1/18/162 2/133/163 44/80/164 43/59/165
f 10/75/166 9/78/167 46/81/168 45/79/169
f 2/17/170 3/20/171 47/61/172 44/58/173
f 11/38/174 10/35/175 45/60/176 48/62/177
f 3/20/178 4/21/179 49/63/180 47/61/181
f 12/40/182 11/38/183 48/62/184 50/64/185
f 4/21/186 5/22/187 51/65/188 49/63/189
f 13/42/190 12/40/191 50/64/192 52/66/193
f 5/22/194 6/23/195 53/67/196 51/65/197
f 14/44/198 13/42/199 52/66/200 54/68/201
f 6/23/202 7/24/203 55/69/204 53/67/205
f 15/46/206 14/44/207 54/68/208 56/70/209
f 7/24/210 8/25/211 57/71/212 55/69/213
f 16/48/214 15/46/215 56/70/216 58/72/217
f 8/25/218 1/18/219 43/59/220 57/71/221
f 9/78/222 16/48/223 58/72/224 46/81/225
f 43/59/226 44/80/227 60/73/228 59/84/229
f 45/79/230 46/81/231 62/4/232 61/99/233
f 44/58/234 47/61/235 63/5/236 60/2/237
f 48/62/238 45/60/239 61/100/240 64/98/241
f 47/61/242 49/63/243 65/7/244 63/5/245
f 50/64/246 48/62/247 64/98/248 66/97/249
f 49/63/250 51/65/251 67/9/252 65/7/253
f 52/66/254 50/64/255 66/97/256 68/96/257
f 51/65/258 53/67/259 69/11/260 67/9/261
f 54/68/262 52/66/263 68/96/264 70/95/265
f 53/67/266 55/69/267 71/13/268 69/11/269
f 56/70/270 54/68/271 70/95/272 72/94/273
f 55/69/274 57/71/275 73/15/276 71/13/277
f 58/72/278 56/70/279 72/94/280 74/92/281
f 57/71/282 43/59/283 59/84/284 73/15/285
f 46/81/286 58/72/287 74/92/288 62/4/289
