# This file uses centimeters as units for non-parametric coordinates.

mtllib CokeInAcan1.mtl
g default
v 0.242472 -0.789220 -0.176166
v 0.176167 -0.789220 -0.242472
v 0.000001 -0.789220 -0.299712
v -0.092616 -0.789220 -0.285043
v -0.176166 -0.789220 -0.242472
v -0.242471 -0.789220 -0.176166
v -0.285043 -0.789220 -0.092617
v -0.299710 -0.789220 -0.000000
v -0.285043 -0.789220 0.092616
v -0.242471 -0.789220 0.176166
v -0.176166 -0.789220 0.242471
v -0.092616 -0.789220 0.285042
v 0.000001 -0.789220 0.299712
v 0.092616 -0.789220 0.285042
v 0.176167 -0.789220 0.242471
v 0.242472 -0.789220 0.176166
v 0.285043 -0.789220 0.092616
v 0.299712 -0.789220 -0.000000
v 0.314875 0.789220 -0.102310
v 0.194604 0.789220 -0.267849
v 0.102309 0.789220 -0.314876
v 0.000001 0.789220 -0.331079
v -0.102307 0.789220 -0.314876
v -0.194602 0.789220 -0.267849
v -0.267848 0.789220 -0.194603
v -0.314874 0.789220 -0.102309
v -0.331079 0.789220 -0.000000
v -0.314874 0.789220 0.102309
v -0.267848 0.789220 0.194603
v -0.194602 0.789220 0.267849
v -0.102307 0.789220 0.314874
v 0.000001 0.789220 0.331078
v 0.102309 0.789220 0.314874
v 0.194604 0.789220 0.267849
v 0.267850 0.789220 0.194603
v 0.314875 0.789220 0.102309
v 0.331080 0.789220 -0.000000
v 0.395051 -0.672722 -0.128359
v 0.336049 -0.672722 -0.244154
v 0.244155 -0.672722 -0.336050
v 0.128360 -0.672722 -0.395050
v 0.000001 -0.672722 -0.415379
v -0.128358 -0.672722 -0.395050
v -0.244153 -0.672722 -0.336049
v -0.336047 -0.672722 -0.244154
v -0.395047 -0.672722 -0.128359
v -0.415378 -0.672722 -0.000000
v -0.395047 -0.672722 0.128358
v -0.336047 -0.672722 0.244154
v -0.244153 -0.672722 0.336049
v -0.128358 -0.672722 0.395049
v 0.000001 -0.672722 0.415379
v 0.128360 -0.672722 0.395049
v 0.244155 -0.672722 0.336049
v 0.336049 -0.672722 0.244154
v 0.395049 -0.672722 0.128358
v 0.415379 -0.672722 -0.000000
v 0.395049 0.595057 -0.128359
v 0.415379 0.595057 -0.000000
v 0.395049 0.595057 0.128358
v 0.336049 0.595057 0.244154
v 0.244155 0.595057 0.336049
v 0.128360 0.595057 0.395049
v 0.000001 0.595057 0.415379
v -0.128358 0.595057 0.395049
v -0.244153 0.595057 0.336049
v -0.336047 0.595057 0.244154
v -0.395047 0.595057 0.128358
v -0.415378 0.595057 -0.000000
v -0.395047 0.595057 -0.128359
v -0.336047 0.595057 -0.244154
v -0.244153 0.595057 -0.336049
v -0.128358 0.595057 -0.395050
v 0.000001 0.595057 -0.415380
v 0.128360 0.595057 -0.395050
v 0.244155 0.595057 -0.336049
v 0.336049 0.595057 -0.244154
v -0.199620 0.714133 -0.274756
v 0.000001 0.714133 -0.339616
v 0.199622 0.714133 -0.274756
v 0.274756 0.714133 -0.199622
v 0.322995 0.714133 -0.104948
v 0.322995 0.714133 0.104947
v 0.199622 0.714133 0.274755
v 0.000001 0.714133 0.339615
v -0.199620 0.714133 0.274755
v -0.322993 0.714133 0.104947
v -0.322993 0.714133 -0.104948
v 0.285045 -0.789220 -0.092617
v 0.267850 0.789220 -0.194603
v 0.170522 0.745425 -0.234703
v 0.000001 0.745425 -0.290108
v -0.170520 0.745425 -0.234703
v -0.275909 0.745425 -0.089649
v -0.275909 0.745425 0.089648
v -0.170520 0.745425 0.234702
v 0.000001 0.745425 0.290106
v 0.170522 0.745425 0.234702
v 0.275910 0.745425 0.089648
v 0.275910 0.745425 -0.089649
v 0.092616 -0.789220 -0.285043
v 0.000001 0.745425 -0.000000
vt 0.121215 0.913940
vt 0.086764 0.854924
vt 0.141201 0.792220
vt 0.275897 0.754571
vt 0.430640 0.763649
vt 0.528735 0.813922
vt 0.534288 0.878272
vt 0.460895 0.930527
vt 0.343455 0.956219
vt 0.218488 0.950349
vt 0.310768 0.000000
vt 0.238550 0.002682
vt 0.248840 0.023146
vt 0.297750 0.021352
vt 0.343981 0.032811
vt 0.378704 0.017079
vt 0.203119 0.037940
vt 0.171461 0.024688
vt 0.117760 0.062560
vt 0.165857 0.063683
vt 0.140885 0.097013
vt 0.083008 0.110810
vt 0.069520 0.163276
vt 0.130176 0.133948
vt 0.133900 0.170559
vt 0.076752 0.214266
vt 0.102160 0.259209
vt 0.150779 0.203427
vt 0.178545 0.229878
vt 0.142098 0.294817
vt 0.192463 0.318953
vt 0.214344 0.248017
vt 0.255031 0.256676
vt 0.249065 0.330395
vt 0.307738 0.328626
vt 0.297328 0.255334
vt 0.337911 0.244070
vt 0.364316 0.313721
vt 0.414568 0.286373
vt 0.373475 0.223572
vt 0.400824 0.195193
vt 0.454187 0.248023
vt 0.478947 0.201094
vt 0.417062 0.161033
vt 0.419917 0.123975
vt 0.485119 0.149211
vt 0.470195 0.097278
vt 0.408169 0.087604
vt 0.382132 0.055921
vt 0.433833 0.051197
vt 0.053250 0.829567
vt 0.000000 0.741419
vt 0.013867 0.788909
vt 0.112034 0.861014
vt 0.184260 0.881957
vt 0.264459 0.891782
vt 0.347565 0.890266
vt 0.067300 0.643103
vt 0.016923 0.690976
vt 0.253560 0.581615
vt 0.149000 0.604488
vt 0.471723 0.596616
vt 0.366731 0.578805
vt 0.604141 0.677695
vt 0.553858 0.631614
vt 0.604640 0.776782
vt 0.620154 0.728057
vt 0.502422 0.853617
vt 0.563213 0.819551
vt 0.428622 0.877442
vt 0.204132 0.941127
vt 0.091850 0.898901
vt 0.141786 0.924169
vt 0.049535 0.829297
vt 0.110259 0.753731
vt 0.267705 0.707539
vt 0.450018 0.718734
vt 0.563348 0.780075
vt 0.567011 0.857006
vt 0.480862 0.918204
vt 0.346484 0.947885
vt 0.349342 0.998840
vt 0.420271 0.989038
vt 0.484409 0.970923
vt 0.536554 0.945234
vt 0.571221 0.913334
vt 0.583074 0.877457
vt 0.567904 0.840889
vt 0.524102 0.807875
vt 0.454254 0.783082
vt 0.365959 0.770557
vt 0.270995 0.772529
vt 0.182689 0.788638
vt 0.112585 0.816067
vt 0.067998 0.850482
vt 0.051393 0.887247
vt 0.061281 0.922339
vt 0.093754 0.952761
vt 0.143848 0.976534
vt 0.206414 0.992484
vt 0.276493 1.000000
vt 0.324564 0.856999
vn 0.000000 1.000000 0.000000
vn 0.000000 1.000000 0.000000
vn 0.000000 1.000000 0.000000
vn 0.309020 -0.000000 -0.951056
vn 0.309020 -0.000000 -0.951056
vn 0.309020 -0.000000 -0.951056
vn 0.309020 -0.000000 -0.951056
vn 0.309020 -0.000000 -0.951056
vn 0.309020 -0.000000 -0.951056
vn 0.809017 0.000001 -0.587786
vn 0.809017 0.000001 -0.587786
vn 0.809017 0.000001 -0.587786
vn 0.809017 0.000001 -0.587786
vn 0.809017 0.000001 -0.587786
vn 0.809017 0.000001 -0.587786
vn 1.000000 0.000000 0.000004
vn 1.000000 0.000000 0.000004
vn 1.000000 0.000000 0.000004
vn 1.000000 0.000000 0.000004
vn 1.000000 0.000000 0.000004
vn 1.000000 0.000000 0.000004
vn -0.309020 -0.000000 -0.951056
vn -0.309020 -0.000000 -0.951056
vn -0.309020 -0.000000 -0.951056
vn -0.309020 -0.000000 -0.951056
vn -0.309020 -0.000000 -0.951056
vn -0.309020 -0.000000 -0.951056
vn -0.809019 -0.000000 -0.587783
vn -0.809019 -0.000000 -0.587783
vn -0.809018 -0.000000 -0.587783
vn -0.809019 -0.000000 -0.587783
vn -0.809019 -0.000000 -0.587783
vn -0.809018 -0.000000 -0.587783
vn -1.000000 0.000000 0.000000
vn -1.000000 0.000000 0.000000
vn -1.000000 0.000000 0.000000
vn -1.000000 0.000000 0.000000
vn -1.000000 0.000000 0.000000
vn -1.000000 0.000000 0.000000
vn -0.809019 0.000001 0.587783
vn -0.809019 0.000001 0.587783
vn -0.809019 0.000001 0.587783
vn -0.809019 0.000001 0.587783
vn -0.809019 0.000001 0.587783
vn -0.809019 0.000001 0.587783
vn -0.309020 0.000000 0.951056
vn -0.309020 0.000000 0.951056
vn -0.309020 0.000000 0.951056
vn -0.309020 0.000000 0.951056
vn -0.309020 0.000000 0.951056
vn -0.309020 0.000000 0.951056
vn 0.309020 -0.000000 0.951056
vn 0.309020 -0.000000 0.951056
vn 0.309020 -0.000000 0.951056
vn 0.309020 -0.000000 0.951056
vn 0.309020 -0.000000 0.951056
vn 0.309020 -0.000000 0.951056
vn 0.809019 0.000000 0.587783
vn 0.809019 0.000000 0.587783
vn 0.809019 0.000000 0.587783
vn 0.809019 0.000000 0.587783
vn 0.809019 0.000000 0.587783
vn 0.809019 0.000000 0.587783
vn 0.682577 0.536801 -0.495917
vn 0.682577 0.536801 -0.495917
vn 0.682577 0.536801 -0.495917
vn 0.682577 0.536801 -0.495917
vn 0.682577 0.536801 -0.495917
vn 0.682577 0.536801 -0.495917
vn 0.253269 0.572937 -0.779486
vn 0.253269 0.572937 -0.779486
vn 0.253269 0.572937 -0.779486
vn 0.253269 0.572937 -0.779486
vn 0.253269 0.572937 -0.779486
vn -0.253268 0.572941 -0.779483
vn -0.253268 0.572941 -0.779483
vn -0.253268 0.572941 -0.779483
vn -0.253268 0.572941 -0.779483
vn -0.253268 0.572941 -0.779483
vn -0.663068 0.572945 -0.481742
vn -0.663068 0.572945 -0.481742
vn -0.663068 0.572945 -0.481742
vn -0.663068 0.572945 -0.481742
vn -0.663068 0.572945 -0.481742
vn -0.819594 0.572944 0.000000
vn -0.819594 0.572944 0.000000
vn -0.819594 0.572944 0.000000
vn -0.819594 0.572944 0.000000
vn -0.819595 0.572944 0.000000
vn -0.663072 0.572938 0.481746
vn -0.663072 0.572938 0.481745
vn -0.663072 0.572938 0.481746
vn -0.663072 0.572938 0.481745
vn -0.663072 0.572938 0.481745
vn -0.253272 0.572938 0.779484
vn -0.253272 0.572938 0.779484
vn -0.253272 0.572938 0.779484
vn -0.253272 0.572938 0.779484
vn -0.253272 0.572938 0.779484
vn 0.253272 0.572939 0.779484
vn 0.253272 0.572939 0.779484
vn 0.253272 0.572939 0.779484
vn 0.253272 0.572939 0.779484
vn 0.253272 0.572939 0.779484
vn 0.663073 0.572935 0.481746
vn 0.663073 0.572935 0.481746
vn 0.663073 0.572935 0.481746
vn 0.663073 0.572935 0.481746
vn 0.663073 0.572935 0.481746
vn 0.819596 0.572942 0.000000
vn 0.819596 0.572942 0.000000
vn 0.819596 0.572942 0.000000
vn 0.819596 0.572942 0.000000
vn 0.819596 0.572942 0.000000
vn 0.809016 0.001609 0.587785
vn 0.809016 0.001609 0.587785
vn 0.809016 0.001609 0.587785
vn 0.809016 0.001609 0.587785
vn 0.809016 0.001609 0.587785
vn 0.309013 0.001601 0.951057
vn 0.309013 0.001601 0.951057
vn 0.309013 0.001601 0.951057
vn 0.309013 0.001601 0.951057
vn 0.309013 0.001601 0.951057
vn -0.309013 0.001609 0.951057
vn -0.309013 0.001609 0.951057
vn -0.309013 0.001609 0.951057
vn -0.309013 0.001609 0.951057
vn -0.309013 0.001609 0.951057
vn -0.809016 0.001609 0.587785
vn -0.809016 0.001609 0.587785
vn -0.809016 0.001609 0.587785
vn -0.809016 0.001609 0.587785
vn -0.809016 0.001609 0.587785
vn -0.999999 0.001607 0.000000
vn -0.999999 0.001607 0.000000
vn -0.999999 0.001607 0.000000
vn -0.999999 0.001607 0.000000
vn -0.999999 0.001607 0.000000
vn -0.809019 0.001609 -0.587781
vn -0.809019 0.001609 -0.587781
vn -0.809019 0.001609 -0.587781
vn -0.809018 0.001609 -0.587781
vn -0.809018 0.001609 -0.587781
vn -0.309013 0.001593 -0.951057
vn -0.309013 0.001593 -0.951057
vn -0.309013 0.001593 -0.951057
vn -0.309013 0.001593 -0.951057
vn -0.309013 0.001593 -0.951057
vn 0.309013 0.001593 -0.951057
vn 0.309013 0.001593 -0.951057
vn 0.309013 0.001593 -0.951057
vn 0.309013 0.001593 -0.951057
vn 0.309013 0.001593 -0.951057
vn 0.803837 0.112980 -0.584022
vn 0.803837 0.112980 -0.584022
vn 0.803837 0.112980 -0.584022
vn 0.803837 0.112980 -0.584022
vn 0.803837 0.112980 -0.584022
vn 0.803837 0.112980 -0.584022
vn 0.999999 0.001593 0.000000
vn 0.999999 0.001593 0.000000
vn 0.999999 0.001593 0.000000
vn 0.999999 0.001593 0.000000
vn 0.999999 0.001593 0.000000
vn -0.547762 0.735914 -0.397979
vn -0.547762 0.735914 -0.397979
vn -0.547762 0.735914 -0.397979
vn -0.547762 0.735914 -0.397979
vn -0.547762 0.735914 -0.397979
vn -0.677068 0.735921 0.000000
vn -0.677068 0.735921 0.000000
vn -0.677068 0.735921 0.000000
vn -0.677068 0.735921 0.000000
vn -0.677068 0.735921 0.000000
vn -0.547760 0.735916 0.397978
vn -0.547760 0.735916 0.397978
vn -0.547760 0.735916 0.397978
vn -0.547760 0.735916 0.397978
vn -0.547760 0.735916 0.397978
vn -0.209225 0.735928 0.643922
vn -0.209225 0.735927 0.643922
vn -0.209225 0.735928 0.643922
vn -0.209225 0.735927 0.643922
vn -0.209225 0.735928 0.643922
vn 0.209225 0.735925 0.643924
vn 0.209225 0.735925 0.643924
vn 0.209225 0.735925 0.643924
vn 0.209225 0.735925 0.643924
vn 0.209225 0.735925 0.643924
vn 0.547757 0.735921 0.397974
vn 0.547757 0.735921 0.397974
vn 0.547757 0.735921 0.397974
vn 0.547757 0.735921 0.397974
vn 0.547757 0.735921 0.397974
vn 0.677089 0.735901 0.000000
vn 0.677089 0.735901 0.000000
vn 0.677089 0.735901 0.000000
vn 0.677089 0.735901 0.000000
vn 0.677089 0.735901 0.000000
vn 0.547760 0.735917 -0.397977
vn 0.547759 0.735917 -0.397977
vn 0.547759 0.735917 -0.397977
vn 0.547759 0.735917 -0.397977
vn 0.547759 0.735917 -0.397977
vn 0.209227 0.735921 -0.643929
vn 0.209227 0.735921 -0.643929
vn 0.209227 0.735921 -0.643929
vn 0.209227 0.735921 -0.643929
vn 0.209227 0.735921 -0.643929
vn -0.209225 0.735928 -0.643922
vn -0.209225 0.735928 -0.643922
vn -0.209225 0.735928 -0.643922
vn -0.209225 0.735927 -0.643922
vn -0.209225 0.735927 -0.643922
vn 0.000000 1.000000 -0.000001
vn 0.000000 1.000000 0.000000
vn 0.000000 1.000000 0.000000
vn 0.000000 1.000000 0.000000
vn 0.000000 1.000000 0.000000
vn 0.000000 1.000000 0.000001
vn 0.000000 1.000000 0.000000
vn 0.000000 1.000000 -0.000001
vn -0.709634 -0.704570 0.000000
vn -0.709634 -0.704570 0.000000
vn -0.709634 -0.704570 0.000000
vn -0.709634 -0.704570 0.000000
vn -0.709634 -0.704570 0.000000
vn -0.709634 -0.704570 0.000000
vn -0.574102 -0.704576 0.417109
vn -0.574102 -0.704576 0.417109
vn -0.574102 -0.704576 0.417109
vn -0.574102 -0.704576 0.417109
vn -0.574102 -0.704576 0.417109
vn -0.574102 -0.704576 0.417109
vn -0.219290 -0.704573 0.674900
vn -0.219290 -0.704572 0.674900
vn -0.219290 -0.704573 0.674900
vn -0.219290 -0.704572 0.674900
vn -0.219290 -0.704572 0.674900
vn -0.219290 -0.704573 0.674900
vn 0.219290 -0.704572 0.674900
vn 0.219290 -0.704573 0.674900
vn 0.219290 -0.704573 0.674900
vn 0.219290 -0.704572 0.674900
vn 0.219290 -0.704573 0.674900
vn 0.219290 -0.704573 0.674900
vn 0.574105 -0.704573 0.417109
vn 0.574105 -0.704573 0.417109
vn 0.574105 -0.704573 0.417109
vn 0.574105 -0.704573 0.417109
vn 0.574105 -0.704573 0.417109
vn 0.574105 -0.704573 0.417109
vn 0.709634 -0.704570 0.000006
vn 0.709634 -0.704570 0.000006
vn 0.709634 -0.704570 0.000006
vn 0.709634 -0.704570 0.000006
vn 0.709634 -0.704570 0.000006
vn 0.709634 -0.704570 0.000006
vn 0.574100 -0.704575 -0.417113
vn 0.574100 -0.704575 -0.417113
vn 0.574100 -0.704575 -0.417114
vn 0.574100 -0.704575 -0.417113
vn 0.574100 -0.704575 -0.417113
vn 0.574100 -0.704575 -0.417114
vn 0.219287 -0.704573 -0.674900
vn 0.219287 -0.704573 -0.674900
vn 0.219287 -0.704573 -0.674900
vn 0.219287 -0.704573 -0.674900
vn 0.219287 -0.704573 -0.674900
vn 0.219287 -0.704573 -0.674900
vn -0.219288 -0.704570 -0.674903
vn -0.219288 -0.704570 -0.674903
vn -0.219288 -0.704570 -0.674903
vn -0.219288 -0.704570 -0.674903
vn -0.219288 -0.704570 -0.674903
vn -0.219288 -0.704570 -0.674903
vn -0.574101 -0.704575 -0.417111
vn -0.574101 -0.704575 -0.417111
vn -0.574101 -0.704575 -0.417111
vn -0.574101 -0.704575 -0.417111
vn -0.574101 -0.704575 -0.417111
vn -0.574101 -0.704575 -0.417111
vn 0.000000 -1.000000 -0.000000
vn 0.000000 -1.000000 -0.000000
vn 0.000000 -1.000000 -0.000000
vn 0.000000 -1.000000 -0.000000
vn 0.000000 -1.000000 -0.000000
vn 0.000000 -1.000000 -0.000000
vn 0.000000 -1.000000 -0.000000
vn 0.000000 -1.000000 -0.000000
vn 0.000000 -1.000000 -0.000000
vn 0.000000 -1.000000 -0.000000
vn 0.000000 -1.000000 -0.000000
vn 0.000000 -1.000000 -0.000000
vn 0.000000 -1.000000 -0.000000
vn 0.000000 -1.000000 -0.000000
vn 0.000000 -1.000000 -0.000000
vn 0.000000 -1.000000 -0.000000
vn 0.000000 -1.000000 -0.000000
vn 0.000000 -1.000000 -0.000000
vn 0.000000 -1.000000 -0.000000
vn 0.000000 -1.000000 -0.000000
s 1
g cocacola1:pCylinder1 pasted__group4 group2
usemtl initialShadingGroup
f 98/8/1 102/102/2 97/7/3
s off
f 76/51/4 40/27/5 41/26/6 42/23/7 74/52/8 75/53/9
f 38/31/10 39/30/11 40/27/12 76/51/13 77/54/14 58/55/15
f 38/31/16 58/55/17 59/56/18 60/57/19 56/35/20 57/34/21
f 74/52/22 42/23/23 43/22/24 44/19/25 72/58/26 73/59/27
f 72/58/28 44/19/29 45/18/30 46/12/31 70/60/32 71/61/33
f 70/60/34 46/12/35 47/11/36 48/16/37 68/62/38 69/63/39
f 68/62/40 48/16/41 49/50/42 50/47/43 66/64/44 67/65/45
f 66/64/46 50/47/47 51/46/48 52/43/49 64/66/50 65/67/51
f 64/66/52 52/43/53 53/42/54 54/39/55 62/68/56 63/69/57
f 62/68/58 54/39/59 55/38/60 56/35/61 60/57/62 61/70/63
f 82/71/64 58/55/65 77/54/66 76/51/67 80/72/68 81/73/69
f 74/52/70 79/74/71 80/72/72 76/51/73 75/53/74
f 72/58/75 78/75/76 79/74/77 74/52/78 73/59/79
f 70/60/80 88/76/81 78/75/82 72/58/83 71/61/84
f 68/62/85 87/77/86 88/76/87 70/60/88 69/63/89
f 66/64/90 86/78/91 87/77/92 68/62/93 67/65/94
f 64/66/95 85/79/96 86/78/97 66/64/98 65/67/99
f 62/68/100 84/80/101 85/79/102 64/66/103 63/69/104
f 60/57/105 83/81/106 84/80/107 62/68/108 61/70/109
f 82/71/110 83/81/111 60/57/112 59/56/113 58/55/114
f 83/81/115 36/82/116 35/83/117 34/84/118 84/80/119
f 84/80/120 34/84/121 33/85/122 32/86/123 85/79/124
f 85/79/125 32/86/126 31/87/127 30/88/128 86/78/129
f 86/78/130 30/88/131 29/89/132 28/90/133 87/77/134
f 88/76/135 87/77/136 28/90/137 27/91/138 26/92/139
f 88/76/140 26/92/141 25/93/142 24/94/143 78/75/144
f 78/75/145 24/94/146 23/95/147 22/96/148 79/74/149
f 79/74/150 22/96/151 21/97/152 20/98/153 80/72/154
f 80/72/155 20/98/156 90/99/157 19/100/158 82/71/159 81/73/160
f 82/71/161 19/100/162 37/101/163 36/82/164 83/81/165
f 34/84/166 35/83/167 36/82/168 99/9/169 98/8/170
f 36/82/171 37/101/172 19/100/173 100/10/174 99/9/175
f 19/100/176 90/99/177 20/98/178 91/1/179 100/10/180
f 20/98/181 21/97/182 22/96/183 92/2/184 91/1/185
f 22/96/186 23/95/187 24/94/188 93/3/189 92/2/190
f 25/93/191 26/92/192 94/4/193 93/3/194 24/94/195
f 26/92/196 27/91/197 28/90/198 95/5/199 94/4/200
f 28/90/201 29/89/202 30/88/203 96/6/204 95/5/205
f 30/88/206 31/87/207 32/86/208 97/7/209 96/6/210
f 32/86/211 33/85/212 34/84/213 98/8/214 97/7/215
s 1
f 91/1/216 102/102/2 100/10/217
f 102/102/2 94/4/218 95/5/219
f 97/7/3 102/102/2 96/6/220
f 99/9/221 102/102/2 98/8/1
f 102/102/2 92/2/222 93/3/223
f 91/1/216 92/2/222 102/102/2
f 96/6/220 102/102/2 95/5/219
f 100/10/217 102/102/2 99/9/221
f 102/102/2 93/3/223 94/4/218
s off
f 7/13/224 8/14/225 9/15/226 48/16/227 47/11/228 46/12/229
f 11/48/230 50/47/231 49/50/232 48/16/233 9/15/234 10/49/235
f 13/44/236 52/43/237 51/46/238 50/47/239 11/48/240 12/45/241
f 15/40/242 54/39/243 53/42/244 52/43/245 13/44/246 14/41/247
f 17/36/248 56/35/249 55/38/250 54/39/251 15/40/252 16/37/253
f 89/32/254 38/31/255 57/34/256 56/35/257 17/36/258 18/33/259
f 2/28/260 40/27/261 39/30/262 38/31/263 89/32/264 1/29/265
f 3/24/266 42/23/267 41/26/268 40/27/269 2/28/270 101/25/271
f 5/20/272 44/19/273 43/22/274 42/23/275 3/24/276 4/21/277
f 7/13/278 46/12/279 45/18/280 44/19/281 5/20/282 6/17/283
f 1/29/284 89/32/285 18/33/286 17/36/287 16/37/288 15/40/289 14/41/290 13/44/291 12/45/292 11/48/293 10/49/294 9/15/295 8/14/296 7/13/297 6/17/298 5/20/299 4/21/300 3/24/301 101/25/302 2/28/303
