# This file uses centimeters as units for non-parametric coordinates.

mtllib Fish.mtl
g default
v 3.475984 -0.788828 0.138454
v 4.475984 -0.668457 -0.064411
v 3.475984 0.269971 0.126418
v 4.475984 0.046832 -0.046799
v 3.475984 0.269971 -0.626018
v 4.475984 0.046832 -0.496589
v 3.475984 -0.788828 -0.638054
v 4.475984 -0.668457 -0.478977
v 1.609645 -1.092291 -0.749800
v 1.609645 -1.092291 0.250200
v 1.609645 0.963165 0.250200
v 1.609645 0.963165 -0.749800
v -0.805466 -0.791211 -0.749800
v -0.805466 -0.791211 0.250200
v -0.805466 0.963165 0.250200
v -0.805466 0.963165 -0.749800
v -2.630491 -0.501808 -0.418788
v -2.630491 -0.501808 -0.080812
v -2.630491 0.238302 -0.080812
v -2.630491 0.238302 -0.418788
v -4.919071 -1.728925 -0.308277
v -4.919071 -1.728925 -0.191323
v -4.919071 1.097193 -0.191323
v -4.919071 1.097193 -0.308277
v -4.336558 -0.377193 -0.191323
v -4.336558 -0.366509 -0.308277
v -0.317214 1.674928 -0.215086
v -0.317214 1.674928 -0.284514
v -1.703472 1.674928 -0.411770
v -1.703472 1.674928 -0.087831
v -0.805466 -1.172901 -0.214733
v 1.609645 -1.317999 -0.242934
v 3.475984 -1.062915 -0.262846
v 4.495834 -0.810813 -0.273753
v 4.495834 0.189187 -0.281166
v 3.475984 0.552519 -0.283261
v 1.112058 -1.756957 0.765523
v 1.705107 -1.675901 0.759196
v 1.705107 -1.588806 0.922222
v 1.112058 -1.685235 0.922222
v 1.738962 -1.575590 -1.359796
v 1.738962 -1.674384 -1.184272
v 1.066237 -1.766330 -1.177095
v 1.066237 -1.684973 -1.359796
v 4.907714 -0.201224 -0.202519
v 4.913820 -0.157438 -0.274607
v 4.907714 -0.421237 -0.207937
v 4.913820 -0.465023 -0.272327
v 4.907714 -0.421237 -0.335451
v 4.907714 -0.201224 -0.340868
vt 0.934557 0.382896
vt 0.933974 0.448878
vt 0.708974 0.274815
vt 0.840994 0.472201
vt 0.087903 0.839471
vt 0.184217 0.874568
vt 0.190642 0.833205
vt 0.096744 0.816914
vt 0.658404 0.269360
vt 0.091397 0.751455
vt 0.080786 0.730501
vt 0.849708 0.325679
vt 0.071011 0.298593
vt 0.939533 0.725419
vt 0.066968 0.288811
vt 0.928477 0.725062
vt 0.826609 0.059980
vt 0.832126 0.118638
vt 0.822269 0.070515
vt 0.815511 0.113014
vt 0.739236 0.090303
vt 0.668180 0.545582
vt 0.629200 0.083792
vt 0.382321 0.250125
vt 0.443817 0.094327
vt 0.591647 0.656069
vt 0.431772 0.394316
vt 0.155628 0.054072
vt 0.209488 0.138748
vt 0.208093 0.146407
vt 0.102111 0.127164
vt 0.075525 0.141249
vt 0.587663 0.717694
vt 0.151745 0.223501
vt 0.258361 0.418442
vt 0.252691 0.492199
vt 0.769360 0.795354
vt 0.762787 0.729105
vt 0.966506 0.868983
vt 0.960092 0.860528
vt 0.557678 0.108976
vt 0.539127 0.114934
vt 0.549423 0.061352
vt 0.543429 0.048736
vt 0.045583 0.772067
vt 0.050999 0.777130
vt 0.981877 0.431847
vt 0.053177 0.796998
vt 0.975920 0.426144
vt 0.976856 0.406264
vt 0.249871 0.525093
vt 0.028537 0.547884
vt 0.091836 0.416008
vt 0.954121 0.592657
vt 0.048091 0.802826
vt 0.982069 0.400874
vt 0.944572 0.361585
vt 0.945811 0.471937
vt 0.853899 0.517529
vt 0.338102 0.980469
vt 0.172715 0.690254
vt 0.652374 0.300939
vt 0.426757 0.338819
vt 0.261258 0.386323
vt 0.598585 0.880973
vt 0.368908 0.891340
vt 0.439332 0.553576
vt 0.405341 0.636011
vt 0.391044 0.047950
vt 0.620368 0.292841
vt 0.962104 0.276133
vt 0.837526 0.371231
vt 0.363464 0.644105
vt 0.719545 0.043766
vt 0.658436 0.351800
vt 0.361027 0.696420
vt 0.185679 0.732487
vt 0.064987 0.265867
vt 0.210170 0.140049
vt 0.414323 0.141407
vt 0.649024 0.035223
vt 0.932367 0.098398
vt 0.421472 0.273697
vt 0.747321 0.301060
vn 0.201543 -0.024110 0.979183
vn 0.201543 -0.024110 0.979183
vn 0.201543 -0.024110 0.979183
vn 0.173089 0.011195 0.984843
vn 0.173089 0.011195 0.984843
vn 0.173089 0.011195 0.984843
vn 0.270732 0.812425 0.516400
vn 0.270732 0.812425 0.516400
vn 0.270732 0.812425 0.516400
vn 0.280390 0.790181 0.544974
vn 0.280390 0.790180 0.544974
vn 0.280390 0.790180 0.544974
vn 0.130823 0.011269 -0.991342
vn 0.130823 0.011269 -0.991342
vn 0.130823 0.011269 -0.991342
vn 0.159907 -0.024299 -0.986833
vn 0.159907 -0.024299 -0.986833
vn 0.159907 -0.024299 -0.986833
vn 0.203896 -0.800452 0.563652
vn 0.203896 -0.800452 0.563652
vn 0.203896 -0.800452 0.563652
vn 0.209088 -0.807521 0.551536
vn 0.209088 -0.807521 0.551536
vn 0.209088 -0.807521 0.551536
vn -0.918356 0.395756 0.000000
vn -0.918356 0.395756 0.000000
vn -0.918356 0.395756 0.000000
vn -0.918890 0.392878 0.035891
vn -0.918890 0.392878 0.035891
vn -0.918890 0.392878 0.035891
vn 0.127665 -0.901841 0.412776
vn 0.127665 -0.901841 0.412776
vn 0.127665 -0.901841 0.412776
vn 0.141963 -0.873089 0.466436
vn 0.141963 -0.873089 0.466436
vn 0.141963 -0.873089 0.466436
vn 0.057925 0.011348 0.998257
vn 0.057925 0.011348 0.998256
vn 0.057925 0.011348 0.998257
vn 0.066178 0.000000 0.997808
vn 0.066178 0.000000 0.997808
vn 0.066178 0.000000 0.997808
vn 0.324791 0.778573 0.536968
vn 0.324791 0.778573 0.536968
vn 0.324791 0.778573 0.536968
vn 0.057925 0.011348 -0.998257
vn 0.057925 0.011348 -0.998257
vn 0.057925 0.011348 -0.998256
vn 0.066178 0.000000 -0.997808
vn 0.066178 0.000000 -0.997808
vn 0.066178 0.000000 -0.997808
vn -0.049708 -0.908158 0.415665
vn -0.049708 -0.908158 0.415665
vn -0.049708 -0.908158 0.415665
vn -0.095910 -0.769342 0.631597
vn -0.095910 -0.769342 0.631597
vn -0.095910 -0.769341 0.631597
vn 0.000000 0.000000 1.000000
vn 0.000000 0.000000 1.000000
vn 0.000000 0.000000 1.000000
vn 0.000000 0.000000 1.000000
vn 0.000000 0.000000 1.000000
vn 0.000000 0.000000 1.000000
vn 0.000000 1.000000 0.000000
vn 0.000000 1.000000 0.000000
vn 0.000000 1.000000 0.000000
vn 0.000000 1.000000 0.000000
vn 0.000000 1.000000 0.000000
vn 0.000000 1.000000 0.000000
vn 0.000000 0.000000 -1.000000
vn 0.000000 0.000000 -1.000000
vn 0.000000 0.000000 -1.000000
vn 0.000000 0.000000 -1.000000
vn 0.000000 0.000000 -1.000000
vn 0.000000 0.000000 -1.000000
vn -0.231210 -0.751962 0.617329
vn -0.231210 -0.751962 0.617329
vn -0.231210 -0.751962 0.617329
vn -0.178463 0.000000 0.983947
vn -0.178462 0.000000 0.983947
vn -0.178463 0.000000 0.983947
vn -0.178463 0.000000 0.983947
vn -0.178463 0.000000 0.983947
vn -0.178463 0.000000 0.983947
vn -0.369130 0.929378 0.000000
vn -0.369130 0.929378 0.000000
vn -0.369130 0.929378 0.000000
vn -0.369130 0.929378 0.000000
vn -0.369130 0.929378 0.000000
vn -0.369130 0.929378 0.000000
vn -0.178463 0.000000 -0.983947
vn -0.178463 0.000000 -0.983947
vn -0.178462 0.000000 -0.983947
vn -0.178463 0.000000 -0.983947
vn -0.178463 0.000000 -0.983947
vn -0.178463 0.000000 -0.983947
vn 0.472548 -0.881305 0.000000
vn 0.472548 -0.881305 0.000000
vn 0.472548 -0.881305 0.000000
vn 0.472548 -0.881305 0.000000
vn 0.472548 -0.881305 0.000000
vn 0.472548 -0.881305 0.000000
vn -0.064640 0.000000 0.997909
vn -0.064640 0.000000 0.997909
vn -0.064640 0.000000 0.997909
vn 0.351365 0.936239 0.000000
vn 0.351365 0.936239 0.000000
vn 0.351365 0.936239 0.000000
vn 0.351365 0.936239 0.000000
vn 0.351365 0.936239 0.000000
vn 0.351365 0.936239 0.000000
vn -0.062506 0.026725 -0.997687
vn -0.062506 0.026725 -0.997687
vn -0.062506 0.026725 -0.997687
vn -0.056589 -0.022358 0.998147
vn -0.056589 -0.022358 0.998147
vn -0.056589 -0.022358 0.998147
vn -0.062652 0.026999 0.997670
vn -0.062652 0.026999 0.997670
vn -0.062652 0.026999 0.997670
vn -0.929520 -0.367242 -0.033549
vn -0.929520 -0.367242 -0.033549
vn -0.929520 -0.367242 -0.033549
vn -0.929124 -0.369767 0.000000
vn -0.929124 -0.369767 0.000000
vn -0.929124 -0.369767 0.000000
vn -0.056661 -0.022549 -0.998139
vn -0.056661 -0.022549 -0.998139
vn -0.056661 -0.022549 -0.998139
vn -0.064640 0.000000 -0.997909
vn -0.064640 0.000000 -0.997909
vn -0.064640 0.000000 -0.997909
vn 0.346505 0.938048 0.000000
vn 0.346505 0.938048 0.000000
vn 0.346505 0.938048 0.000000
vn 0.346505 0.938048 0.000000
vn 0.346505 0.938048 0.000000
vn 0.346505 0.938048 0.000000
vn 0.000000 0.547169 -0.837022
vn 0.000000 0.547169 -0.837022
vn 0.000000 0.547169 -0.837022
vn 0.078791 0.507039 -0.858314
vn 0.078791 0.507039 -0.858314
vn 0.078791 0.507039 -0.858314
vn -0.621154 -0.783688 0.000000
vn -0.621154 -0.783688 0.000000
vn -0.621154 -0.783688 0.000000
vn -0.621154 -0.783689 0.000000
vn -0.621154 -0.783689 0.000000
vn -0.621154 -0.783689 0.000000
vn 0.000000 0.547169 0.837022
vn 0.000000 0.547169 0.837022
vn 0.000000 0.547169 0.837022
vn 0.078791 0.507039 0.858314
vn 0.078791 0.507039 0.858314
vn 0.078791 0.507039 0.858314
vn -0.228237 -0.792606 -0.565406
vn -0.228237 -0.792606 -0.565406
vn -0.228237 -0.792606 -0.565406
vn -0.345124 -0.938557 0.000000
vn -0.345124 -0.938557 0.000000
vn -0.345124 -0.938557 0.000000
vn -0.059528 -0.911901 -0.406071
vn -0.059528 -0.911901 -0.406071
vn -0.059528 -0.911901 -0.406071
vn -0.100970 -0.809933 -0.577766
vn -0.100970 -0.809933 -0.577766
vn -0.100970 -0.809933 -0.577766
vn 0.140293 -0.862824 -0.485646
vn 0.140293 -0.862824 -0.485646
vn 0.140293 -0.862824 -0.485646
vn 0.119651 -0.906959 -0.403867
vn 0.119651 -0.906959 -0.403867
vn 0.119651 -0.906959 -0.403867
vn 0.187126 -0.798589 -0.572049
vn 0.187126 -0.798589 -0.572049
vn 0.187126 -0.798589 -0.572049
vn 0.189787 -0.792821 -0.579151
vn 0.189787 -0.792821 -0.579151
vn 0.189787 -0.792821 -0.579151
vn 0.266236 0.743773 -0.613123
vn 0.266236 0.743773 -0.613123
vn 0.266236 0.743773 -0.613123
vn 0.249068 0.797289 -0.549814
vn 0.249068 0.797289 -0.549814
vn 0.249068 0.797289 -0.549814
vn 0.312335 0.733020 -0.604259
vn 0.312335 0.733020 -0.604259
vn 0.312335 0.733020 -0.604259
vn 0.214888 0.976639 0.000000
vn 0.214888 0.976639 0.000000
vn 0.214888 0.976639 0.000000
vn 0.123538 -0.930743 -0.344175
vn 0.123538 -0.930743 -0.344175
vn 0.123538 -0.930743 -0.344175
vn 0.123540 -0.930743 -0.344175
vn 0.123540 -0.930743 -0.344175
vn 0.123540 -0.930743 -0.344175
vn 0.521597 -0.704543 0.481202
vn 0.521597 -0.704543 0.481202
vn 0.521597 -0.704543 0.481202
vn 0.518887 -0.753990 0.402809
vn 0.518887 -0.753990 0.402809
vn 0.518887 -0.753990 0.402809
vn -0.093234 0.794409 0.600184
vn -0.093234 0.794409 0.600184
vn -0.093234 0.794409 0.600184
vn -0.128266 0.788850 0.601053
vn -0.128266 0.788850 0.601053
vn -0.128266 0.788850 0.601053
vn -0.854585 0.472201 -0.216127
vn -0.854585 0.472201 -0.216127
vn -0.854585 0.472201 -0.216127
vn -0.854586 0.472199 -0.216128
vn -0.854586 0.472199 -0.216128
vn -0.854586 0.472199 -0.216128
vn 0.512703 -0.693289 -0.506444
vn 0.512703 -0.693289 -0.506444
vn 0.512703 -0.693289 -0.506444
vn 0.513557 -0.747746 -0.420873
vn 0.513557 -0.747746 -0.420873
vn 0.513557 -0.747746 -0.420873
vn 0.129827 -0.921267 0.366622
vn 0.129827 -0.921267 0.366622
vn 0.129827 -0.921267 0.366622
vn 0.129827 -0.921267 0.366622
vn 0.129827 -0.921267 0.366622
vn 0.129827 -0.921267 0.366622
vn -0.823759 0.517911 0.230626
vn -0.823759 0.517911 0.230626
vn -0.823759 0.517911 0.230626
vn -0.823760 0.517911 0.230626
vn -0.823760 0.517911 0.230626
vn -0.823760 0.517911 0.230626
vn -0.087748 0.771643 -0.629974
vn -0.087748 0.771643 -0.629974
vn -0.087748 0.771643 -0.629974
vn -0.124342 0.764723 -0.632249
vn -0.124342 0.764723 -0.632249
vn -0.124342 0.764723 -0.632249
vn 0.995306 -0.000717 -0.096772
vn 0.995306 -0.000717 -0.096772
vn 0.995306 -0.000717 -0.096772
vn 0.995912 -0.002224 -0.090303
vn 0.995912 -0.002224 -0.090303
vn 0.995912 -0.002224 -0.090303
vn 0.561174 0.685482 0.463894
vn 0.561174 0.685482 0.463894
vn 0.561174 0.685482 0.463894
vn 0.561174 0.685482 0.463894
vn 0.561174 0.685482 0.463894
vn 0.561174 0.685482 0.463894
vn 0.327350 -0.023259 0.944617
vn 0.327350 -0.023259 0.944617
vn 0.327350 -0.023259 0.944617
vn 0.327350 -0.023259 0.944617
vn 0.327350 -0.023259 0.944617
vn 0.327350 -0.023259 0.944617
vn 0.549183 -0.665927 0.504915
vn 0.549183 -0.665927 0.504915
vn 0.549183 -0.665927 0.504915
vn 0.549183 -0.665928 0.504914
vn 0.549183 -0.665928 0.504914
vn 0.549183 -0.665928 0.504914
vn 0.548695 -0.661145 -0.511684
vn 0.548695 -0.661145 -0.511684
vn 0.548695 -0.661145 -0.511684
vn 0.548695 -0.661146 -0.511683
vn 0.548695 -0.661146 -0.511683
vn 0.548695 -0.661146 -0.511683
vn 0.327350 -0.023259 -0.944617
vn 0.327350 -0.023259 -0.944617
vn 0.327350 -0.023259 -0.944617
vn 0.327350 -0.023259 -0.944617
vn 0.327350 -0.023259 -0.944617
vn 0.327350 -0.023259 -0.944617
vn 0.560308 0.666351 -0.491968
vn 0.560308 0.666351 -0.491968
vn 0.560308 0.666351 -0.491968
vn 0.560307 0.666351 -0.491967
vn 0.560308 0.666351 -0.491967
vn 0.560308 0.666351 -0.491967
vn 0.996534 -0.002048 0.083163
vn 0.996534 -0.002048 0.083163
vn 0.996534 -0.002048 0.083163
vn 0.995578 0.000696 0.093933
vn 0.995578 0.000696 0.093933
vn 0.995578 0.000696 0.093933
s off
g pasted__pasted__pCube1 pasted__group group2
usemtl initialShadingGroup
f 2/1/1 4/2/2 1/72/3
f 1/72/4 4/2/5 3/4/6
f 4/2/7 35/58/8 3/4/9
f 3/4/10 35/58/11 36/59/12
f 5/7/13 6/8/14 7/77/15
f 7/77/16 6/8/17 8/10/18
f 34/57/19 2/1/20 33/12/21
f 33/12/22 2/1/23 1/72/24
f 22/13/25 25/53/26 21/15/27
f 21/54/28 25/14/29 26/16/30
f 37/17/31 38/18/32 40/19/33
f 40/19/34 38/18/35 39/20/36
f 1/72/37 3/4/38 10/75/39
f 10/75/40 3/4/41 11/22/42
f 3/4/43 36/59/44 11/22/45
f 7/77/46 9/76/47 5/7/48
f 5/7/49 9/76/50 12/66/51
f 32/62/52 10/75/53 31/63/54
f 31/63/55 10/75/56 14/27/57
f 10/75/58 11/22/59 14/27/60
f 14/27/61 11/22/62 15/67/63
f 27/29/64 28/30/65 30/31/66
f 30/31/67 28/30/68 29/32/69
f 9/76/70 13/33/71 12/66/72
f 12/66/73 13/33/74 16/65/75
f 18/35/76 31/63/77 14/27/78
f 15/67/79 19/36/80 14/27/81
f 14/27/82 19/36/83 18/35/84
f 15/67/85 16/68/86 19/36/87
f 19/36/88 16/68/89 20/51/90
f 16/65/91 13/33/92 20/37/93
f 20/37/94 13/33/95 17/38/96
f 17/64/97 18/35/98 21/15/99
f 21/15/100 18/35/101 22/13/102
f 18/35/103 19/36/104 25/53/105
f 19/36/106 20/51/107 23/52/108
f 23/39/109 20/37/110 24/40/111
f 26/16/112 17/38/113 21/54/114
f 25/53/115 19/36/116 23/52/117
f 18/35/118 25/53/119 22/13/120
f 25/14/121 23/39/122 26/16/123
f 26/16/124 23/39/125 24/40/126
f 20/37/127 26/16/128 24/40/129
f 20/37/130 17/38/131 26/16/132
f 28/30/133 27/79/134 12/24/135
f 11/69/136 12/80/137 27/29/138
f 12/24/139 16/34/140 28/30/141
f 28/30/142 16/34/143 29/32/144
f 16/34/145 15/78/146 29/32/147
f 29/32/148 15/28/149 30/31/150
f 11/69/151 27/29/152 15/28/153
f 15/28/154 27/29/155 30/31/156
f 13/33/157 31/26/158 17/38/159
f 17/64/160 31/63/161 18/35/162
f 32/73/163 31/26/164 9/76/165
f 9/76/166 31/26/167 13/33/168
f 41/41/169 42/42/170 44/43/171
f 44/43/172 42/42/173 43/44/174
f 8/10/175 34/11/176 7/77/177
f 7/77/178 34/11/179 33/61/180
f 36/6/181 35/5/182 5/7/183
f 5/7/184 35/5/185 6/8/186
f 12/66/187 36/6/188 5/7/189
f 11/60/190 36/6/191 12/66/192
f 33/71/193 38/18/194 32/82/195
f 32/82/196 38/18/197 37/17/198
f 33/84/199 1/3/200 38/18/201
f 38/18/202 1/3/203 39/20/204
f 1/3/205 10/21/206 39/20/207
f 39/20/208 10/21/209 40/19/210
f 32/74/211 37/17/212 10/21/213
f 10/21/214 37/17/215 40/19/216
f 33/70/217 42/42/218 7/9/219
f 7/9/220 42/42/221 41/41/222
f 33/83/223 32/25/224 42/42/225
f 42/42/226 32/25/227 43/44/228
f 32/81/229 9/23/230 43/44/231
f 43/44/232 9/23/233 44/43/234
f 7/9/235 41/41/236 9/23/237
f 9/23/238 41/41/239 44/43/240
f 48/45/241 49/46/242 46/55/243
f 46/55/244 49/46/245 50/48/246
f 35/58/247 4/2/248 46/47/249
f 46/47/250 4/2/251 45/49/252
f 4/2/253 2/1/254 45/49/255
f 45/49/256 2/1/257 47/50/258
f 34/57/259 48/56/260 2/1/261
f 2/1/262 48/56/263 47/50/264
f 34/11/265 8/10/266 48/45/267
f 48/45/268 8/10/269 49/46/270
f 6/8/271 50/48/272 8/10/273
f 8/10/274 50/48/275 49/46/276
f 35/5/277 46/55/278 6/8/279
f 6/8/280 46/55/281 50/48/282
f 45/49/283 47/50/284 46/47/285
f 46/47/286 47/50/287 48/56/288
