# This file uses centimeters as units for non-parametric coordinates.

mtllib MediumRock1.mtl
g default
v -2.600206 0.557230 0.269447
v -0.014302 -0.974377 2.425751
v -1.205809 1.776928 -0.292455
v -0.436389 2.465296 -0.248396
v 2.587130 -2.465296 -0.545065
v 1.477940 -2.280791 2.470701
v 0.912638 -0.102548 1.964911
v 1.861599 0.110110 0.571859
v 1.012572 0.187605 -0.205008
v -2.576093 -2.356187 0.638159
v 0.443830 -1.051808 2.100541
v -1.116989 0.119350 1.613212
v -0.362591 -2.377266 2.644536
v -0.287336 2.391289 0.940880
v -0.260321 1.217049 1.628403
v -3.255562 -1.099465 0.010926
v 1.649775 -2.374348 1.560580
v -0.617732 -1.447093 -2.205034
v -1.272027 0.789589 -2.023459
v -2.836143 -0.246064 -0.757817
v -1.150184 1.574362 1.181584
v 3.255562 -1.274165 -0.176393
v -3.155674 -2.417011 -0.443353
v -0.411247 -2.414711 -2.644536
v 1.339038 -1.246235 1.923411
v -1.736451 -2.194845 1.929471
v -0.556432 1.728533 -0.944770
v 0.902984 1.569735 0.901566
v -0.035548 -2.417931 2.042010
v -1.669123 0.913821 1.162197
v -1.590213 -1.488019 -1.895654
v -2.536268 -2.412457 -1.742275
v -0.130691 -0.331016 -2.352421
v 1.806618 -2.401210 -1.722138
v 2.297227 -0.624221 0.481562
v -1.869749 -0.775092 1.510759
v -2.620229 -1.588010 -1.095287
v 1.107774 0.383832 1.319833
v 1.023335 -0.481825 -1.489338
v 0.831932 -1.458614 -1.718056
v -2.071522 0.088974 -1.259762
v -2.528513 1.494391 -0.042012
v -1.029162 -0.868040 2.482753
v 3.089693 -2.430995 0.855415
v 0.049137 1.665831 -0.577093
v 0.543665 2.189764 1.132007
v -2.366770 1.569491 -0.811163
v -0.139884 -2.388353 0.731576
vt 0.178068 0.873445
vt 0.000000 0.061558
vt 0.000000 0.520589
vt 0.966584 0.149439
vt 0.145563 0.690671
vt 0.645059 0.257793
vt 0.049161 0.000025
vt 0.636364 0.500253
vt 0.429888 0.504225
vt 0.519685 0.219044
vt 0.723787 0.328271
vt 0.658282 0.375544
vt 0.429947 0.323648
vt 0.420167 0.064700
vt 0.384129 0.025162
vt 0.798482 0.064063
vt 0.283162 0.498270
vt 0.331343 0.485377
vt 0.767688 0.000000
vt 0.592159 0.075745
vt 0.062776 0.917304
vt 0.718828 0.061729
vt 0.838173 0.835734
vt 1.000000 0.709663
vt 0.191505 0.386108
vt 0.899385 0.693878
vt 0.753823 0.247796
vt 0.707464 0.153636
vt 0.659960 0.201687
vt 0.797484 0.178880
vt 0.324103 0.963389
vt 0.576771 0.675413
vt 0.916092 0.600347
vt 0.384190 0.787023
vt 0.471238 0.721068
vt 0.222996 0.115781
vt 0.442053 0.199216
vt 0.334863 0.149200
vt 0.292094 0.399378
vt 0.175808 0.464574
vt 0.394125 0.398332
vt 0.832882 0.447466
vt 0.355944 0.261811
vt 0.816871 0.757265
vt 0.039269 0.450736
vt 0.840188 0.378511
vt 0.750549 0.398403
vt 0.582945 0.925366
vt 0.444293 0.449479
vt 0.847102 0.188809
vt 0.357317 0.564449
vt 0.514284 0.403335
vt 0.312127 0.626618
vt 0.015753 0.754055
vt 0.755332 0.498237
vt 0.816910 0.263454
vt 0.637900 0.735164
vt 0.244613 0.938549
vt 0.179699 0.573280
vt 0.512647 0.401334
vt 0.802358 0.091189
vt 0.000000 0.808029
vt 0.902155 0.000018
vt 0.219996 0.775917
vt 0.693705 0.535476
vt 0.556239 0.612242
vt 0.441548 0.658639
vt 0.034588 0.160236
vt 0.287224 0.826299
vt 0.328917 0.680714
vt 0.683434 0.910887
vt 0.638717 0.782888
vt 0.229981 0.013313
vt 0.355326 0.574858
vt 0.140294 0.186939
vt 0.423605 0.501733
vt 0.558395 0.535481
vt 0.231535 0.595180
vt 0.285223 0.000014
vt 0.220405 0.177384
vt 0.189348 0.291884
vt 0.737168 0.822390
vt 0.657676 0.817815
vt 0.962027 0.085507
vt 0.706806 0.287918
vt 0.518293 0.221409
vt 0.668374 0.069683
vt 0.605348 0.022508
vt 0.941152 0.244343
vt 0.612455 0.421733
vt 0.086177 0.357451
vt 0.172682 0.293229
vt 0.905424 0.778191
vt 0.959906 0.402868
vt 0.531985 0.105400
vt 0.583347 0.121123
vn 0.306115 -0.254719 -0.917285
vn 0.306115 -0.254719 -0.917285
vn 0.306115 -0.254719 -0.917285
vn 0.986609 0.142195 -0.079896
vn 0.986609 0.142195 -0.079896
vn 0.986609 0.142195 -0.079896
vn 0.603209 0.067879 -0.794689
vn 0.603209 0.067879 -0.794689
vn 0.603209 0.067879 -0.794689
vn 0.625062 0.449296 -0.638302
vn 0.625062 0.449296 -0.638302
vn 0.625062 0.449296 -0.638302
vn 0.720365 0.354001 0.596454
vn 0.720365 0.354001 0.596454
vn 0.720365 0.354001 0.596454
vn 0.553940 -0.156744 0.817669
vn 0.553940 -0.156744 0.817668
vn 0.553940 -0.156744 0.817668
vn -0.086872 0.536179 0.839622
vn -0.086872 0.536179 0.839622
vn -0.086872 0.536179 0.839622
vn 0.866194 -0.140247 0.479623
vn 0.866194 -0.140247 0.479623
vn 0.866194 -0.140247 0.479623
vn -0.198852 0.978556 0.053731
vn -0.198852 0.978556 0.053731
vn -0.198852 0.978556 0.053731
vn -0.098744 0.980305 -0.171029
vn -0.098744 0.980305 -0.171029
vn -0.098744 0.980305 -0.171029
vn 0.775903 0.378697 -0.504543
vn 0.775903 0.378697 -0.504543
vn 0.775903 0.378697 -0.504543
vn 0.800392 0.412061 -0.435405
vn 0.800392 0.412061 -0.435405
vn 0.800393 0.412061 -0.435405
vn 0.493825 0.466613 -0.733764
vn 0.493825 0.466613 -0.733764
vn 0.493825 0.466613 -0.733764
vn 0.470307 0.564517 -0.678331
vn 0.470307 0.564517 -0.678330
vn 0.470307 0.564517 -0.678330
vn -0.870102 -0.016116 -0.492609
vn -0.870102 -0.016116 -0.492609
vn -0.870102 -0.016116 -0.492609
vn -0.836878 0.120647 -0.533928
vn -0.836878 0.120647 -0.533928
vn -0.836878 0.120647 -0.533928
vn 0.410986 0.365529 0.835152
vn 0.410986 0.365529 0.835152
vn 0.410986 0.365529 0.835152
vn -0.076216 0.502492 0.861216
vn -0.076216 0.502492 0.861216
vn -0.076216 0.502492 0.861216
vn -0.181288 0.973328 0.140598
vn -0.181288 0.973328 0.140598
vn -0.181288 0.973328 0.140598
vn -0.665434 0.735709 0.126214
vn -0.665434 0.735709 0.126214
vn -0.665434 0.735709 0.126214
vn -0.013543 -0.999869 0.008895
vn -0.013543 -0.999869 0.008895
vn -0.013543 -0.999869 0.008895
vn 0.032093 -0.998725 0.038970
vn 0.032093 -0.998725 0.038970
vn 0.032093 -0.998725 0.038970
vn 0.780659 0.378863 -0.497025
vn 0.780659 0.378863 -0.497025
vn 0.780659 0.378863 -0.497025
vn 0.868212 -0.393771 -0.301914
vn 0.868212 -0.393771 -0.301914
vn 0.868212 -0.393771 -0.301914
vn 0.180301 0.190618 -0.964964
vn 0.180301 0.190618 -0.964964
vn 0.180301 0.190618 -0.964964
vn 0.531370 -0.006898 0.847112
vn 0.531370 -0.006898 0.847112
vn 0.531370 -0.006898 0.847112
vn 0.069831 0.136766 0.988139
vn 0.069831 0.136766 0.988139
vn 0.069831 0.136766 0.988139
vn -0.470547 -0.114030 0.874976
vn -0.470547 -0.114030 0.874976
vn -0.470547 -0.114030 0.874976
vn -0.579730 0.701134 -0.415120
vn -0.579730 0.701134 -0.415120
vn -0.579730 0.701134 -0.415120
vn 0.144435 -0.126301 0.981421
vn 0.144435 -0.126301 0.981421
vn 0.144435 -0.126301 0.981421
vn -0.361362 0.257594 0.896138
vn -0.361362 0.257594 0.896138
vn -0.361362 0.257594 0.896138
vn -0.227110 0.488169 0.842682
vn -0.227110 0.488169 0.842682
vn -0.227110 0.488169 0.842682
vn -0.348217 0.259290 0.900841
vn -0.348217 0.259290 0.900841
vn -0.348217 0.259290 0.900841
vn 0.422056 0.357501 0.833104
vn 0.422056 0.357501 0.833104
vn 0.422056 0.357501 0.833104
vn 0.228624 0.972992 0.031894
vn 0.228624 0.972992 0.031894
vn 0.228624 0.972992 0.031894
vn -0.605355 0.456446 0.652075
vn -0.605355 0.456446 0.652075
vn -0.605355 0.456446 0.652075
vn -0.717767 0.221499 0.660113
vn -0.717767 0.221499 0.660113
vn -0.717767 0.221499 0.660113
vn 0.746927 0.126169 0.652826
vn 0.746927 0.126169 0.652826
vn 0.746927 0.126169 0.652826
vn 0.732739 0.418118 0.536908
vn 0.732739 0.418118 0.536908
vn 0.732739 0.418118 0.536908
vn 0.304140 0.318383 -0.897848
vn 0.304140 0.318383 -0.897848
vn 0.304140 0.318383 -0.897848
vn 0.214370 0.966980 -0.137821
vn 0.214370 0.966980 -0.137821
vn 0.214370 0.966980 -0.137821
vn -0.840216 0.079314 0.536419
vn -0.840216 0.079314 0.536419
vn -0.840217 0.079314 0.536419
vn -0.407997 0.242550 0.880175
vn -0.407997 0.242550 0.880175
vn -0.407997 0.242550 0.880175
vn -0.528272 0.627111 -0.572417
vn -0.528272 0.627111 -0.572417
vn -0.528272 0.627111 -0.572417
vn -0.949440 -0.099073 -0.297907
vn -0.949440 -0.099073 -0.297907
vn -0.949440 -0.099073 -0.297907
vn 0.417535 0.807203 -0.417239
vn 0.417535 0.807203 -0.417239
vn 0.417535 0.807203 -0.417239
vn -0.003197 -0.999982 -0.005031
vn -0.003197 -0.999982 -0.005031
vn -0.003197 -0.999982 -0.005031
vn 0.439029 0.870908 -0.220844
vn 0.439029 0.870908 -0.220844
vn 0.439029 0.870908 -0.220844
vn 0.340966 0.448118 -0.826397
vn 0.340966 0.448118 -0.826397
vn 0.340966 0.448118 -0.826397
vn -0.016223 0.800718 0.598822
vn -0.016223 0.800718 0.598822
vn -0.016223 0.800718 0.598822
vn -0.654827 0.616983 0.436502
vn -0.654827 0.616983 0.436502
vn -0.654827 0.616983 0.436502
vn 0.380297 0.595151 -0.707933
vn 0.380297 0.595151 -0.707933
vn 0.380297 0.595151 -0.707933
vn 0.690175 0.424049 0.586379
vn 0.690175 0.424049 0.586379
vn 0.690175 0.424049 0.586379
vn -0.919610 -0.177836 0.350275
vn -0.919610 -0.177836 0.350275
vn -0.919610 -0.177836 0.350275
vn -0.305401 0.156707 -0.939241
vn -0.305401 0.156707 -0.939241
vn -0.305401 0.156707 -0.939241
vn -0.578709 0.110099 -0.808068
vn -0.578709 0.110099 -0.808068
vn -0.578709 0.110099 -0.808068
vn -0.616297 0.125400 -0.777466
vn -0.616297 0.125400 -0.777466
vn -0.616297 0.125400 -0.777466
vn -0.273933 -0.916162 0.292587
vn -0.273933 -0.916162 0.292587
vn -0.273933 -0.916162 0.292587
vn -0.047290 -0.998011 0.041688
vn -0.047290 -0.998011 0.041688
vn -0.047290 -0.998011 0.041688
vn 0.269277 0.478338 0.835873
vn 0.269277 0.478337 0.835873
vn 0.269277 0.478338 0.835873
vn 0.104473 0.994516 0.004753
vn 0.104473 0.994516 0.004753
vn 0.104473 0.994516 0.004753
vn -0.727815 -0.052229 0.683781
vn -0.727816 -0.052229 0.683781
vn -0.727815 -0.052229 0.683781
vn 0.202280 0.039911 0.978514
vn 0.202280 0.039911 0.978514
vn 0.202280 0.039911 0.978514
vn -0.716957 0.061193 -0.694426
vn -0.716957 0.061193 -0.694426
vn -0.716957 0.061193 -0.694426
vn -0.370315 0.317487 -0.872966
vn -0.370315 0.317487 -0.872966
vn -0.370315 0.317487 -0.872966
vn -0.853099 -0.226702 0.469924
vn -0.853099 -0.226702 0.469924
vn -0.853099 -0.226702 0.469924
vn -0.662573 0.737813 0.128954
vn -0.662573 0.737813 0.128954
vn -0.662573 0.737813 0.128954
vn -0.609045 0.674786 0.416807
vn -0.609045 0.674786 0.416807
vn -0.609045 0.674786 0.416807
vn -0.744721 0.123502 0.655849
vn -0.744721 0.123502 0.655849
vn -0.744721 0.123502 0.655849
vn -0.876966 0.238213 -0.417356
vn -0.876966 0.238213 -0.417356
vn -0.876966 0.238213 -0.417356
vn -0.569353 0.470858 -0.673892
vn -0.569353 0.470858 -0.673892
vn -0.569353 0.470858 -0.673892
vn -0.718966 0.066262 -0.691879
vn -0.718966 0.066262 -0.691879
vn -0.718966 0.066262 -0.691879
vn -0.113900 0.785552 -0.608222
vn -0.113900 0.785552 -0.608222
vn -0.113900 0.785552 -0.608222
vn 0.889157 0.342515 -0.303454
vn 0.889157 0.342515 -0.303454
vn 0.889157 0.342515 -0.303454
vn 0.538721 -0.223838 0.812204
vn 0.538721 -0.223838 0.812204
vn 0.538721 -0.223838 0.812204
vn -0.276795 0.056028 0.959294
vn -0.276795 0.056028 0.959294
vn -0.276795 0.056028 0.959294
vn 0.057901 -0.991918 0.112897
vn 0.057901 -0.991918 0.112897
vn 0.057901 -0.991918 0.112897
vn 0.627684 0.692466 -0.355674
vn 0.627684 0.692466 -0.355674
vn 0.627684 0.692466 -0.355674
vn 0.709480 0.589592 -0.386030
vn 0.709480 0.589592 -0.386030
vn 0.709480 0.589592 -0.386030
vn 0.729511 0.565667 -0.384492
vn 0.729511 0.565667 -0.384492
vn 0.729511 0.565668 -0.384492
vn 0.110886 -0.946686 0.302474
vn 0.110886 -0.946686 0.302474
vn 0.110886 -0.946686 0.302474
vn 0.503016 -0.014812 -0.864150
vn 0.503016 -0.014812 -0.864150
vn 0.503016 -0.014812 -0.864150
vn -0.378698 -0.910054 -0.168493
vn -0.378698 -0.910054 -0.168493
vn -0.378698 -0.910054 -0.168493
vn -0.280772 -0.004220 -0.959765
vn -0.280772 -0.004220 -0.959765
vn -0.280772 -0.004220 -0.959765
vn -0.394877 0.230455 0.889361
vn -0.394877 0.230455 0.889361
vn -0.394877 0.230455 0.889361
vn -0.045353 -0.998141 0.040722
vn -0.045353 -0.998141 0.040722
vn -0.045353 -0.998141 0.040722
vn 0.039512 -0.995977 -0.080426
vn 0.039512 -0.995977 -0.080426
vn 0.039512 -0.995977 -0.080426
vn 0.963652 0.213994 0.159944
vn 0.963652 0.213994 0.159944
vn 0.963652 0.213994 0.159944
vn -0.302717 -0.011187 -0.953015
vn -0.302717 -0.011187 -0.953015
vn -0.302717 -0.011187 -0.953015
vn -0.012372 -0.999691 -0.021579
vn -0.012372 -0.999691 -0.021579
vn -0.012372 -0.999691 -0.021579
vn -0.013543 -0.999869 0.008895
vn -0.012372 -0.999691 -0.021579
s off
g MediumRock1:pasted__pasted__pasted__big_rock_1pasted__pasted__hoge_paalpasted__Medium_RockMediumRock1
usemtl MediumRock1:pasted__pasted__pasted__BIG_1SG1
f 33/1/1 40/69/2 18/58/3
f 38/90/4 9/77/5 28/52/6
f 39/64/7 40/69/8 33/1/9
f 8/8/10 35/65/11 9/77/12
f 8/8/13 38/90/14 35/65/15
f 2/85/16 11/11/17 7/12/18
f 7/84/19 12/61/20 2/63/21
f 2/10/22 13/95/23 29/96/24
f 3/51/25 47/17/26 42/18/27
f 27/53/28 47/17/29 3/51/30
f 33/1/31 45/54/32 9/5/33
f 45/76/34 28/52/35 9/77/36
f 19/21/37 27/62/38 45/54/39
f 27/88/40 4/87/41 45/20/42
f 37/91/43 16/92/44 20/25/45
f 37/93/46 23/26/47 16/24/48
f 15/50/49 38/4/50 28/89/51
f 14/28/52 15/27/53 46/29/54
f 3/51/55 42/18/56 21/49/57
f 4/22/58 3/16/59 21/30/60
s 1
f 24/57/61 48/55/62 10/33/63
s off
f 10/33/64 23/26/65 24/57/66
f 34/68/67 39/7/68 5/75/69
f 5/70/70 22/74/71 44/67/72
f 39/7/73 34/68/74 40/2/75
f 15/27/76 28/6/77 46/29/78
f 13/95/79 2/10/80 43/37/81
f 43/37/82 26/38/83 13/14/84
f 1/39/85 41/40/86 20/25/87
f 15/50/88 12/61/89 38/4/90
f 30/41/91 12/13/92 21/49/93
f 21/30/94 15/27/95 14/28/96
f 21/49/97 12/13/98 15/60/99
f 44/67/100 35/9/101 17/66/102
f 46/29/103 4/87/104 14/28/105
f 21/49/106 42/18/107 30/41/108
f 30/41/109 1/39/110 36/43/111
f 17/42/112 35/65/113 7/12/114
f 7/12/115 35/65/116 38/90/117
f 18/58/118 40/69/119 34/34/120
f 8/8/121 9/77/122 38/90/123
f 10/80/124 26/38/125 36/43/126
f 12/13/127 36/43/128 2/10/129
f 4/22/130 27/19/131 3/16/132
f 47/17/133 41/40/134 1/39/135
f 39/64/136 33/1/137 9/5/138
f 32/44/139 24/57/140 23/26/141
f 39/7/142 35/73/143 22/36/144
f 24/31/145 18/58/146 34/34/147
f 12/61/148 7/84/149 38/4/150
f 1/39/151 30/41/152 47/17/153
f 33/1/154 19/21/155 45/54/156
f 22/74/157 35/9/158 44/67/159
f 36/43/160 1/39/161 20/25/162
f 32/44/163 31/82/164 18/83/165
f 41/40/166 37/91/167 20/25/168
f 37/91/169 41/40/170 31/45/171
f 26/38/172 10/80/173 13/14/174
f 10/80/175 29/15/176 13/14/177
f 6/46/178 25/47/179 11/11/180
f 43/37/181 2/10/182 36/43/183
f 36/43/184 16/81/185 10/80/186
f 7/12/187 11/11/188 25/47/189
f 31/45/190 41/40/191 19/59/192
f 24/57/193 32/44/194 18/83/195
f 16/24/196 23/26/197 10/33/198
f 14/28/199 4/22/200 21/30/201
f 20/25/202 16/81/203 36/43/204
f 36/43/205 26/38/206 43/37/207
f 23/26/208 37/93/209 32/44/210
f 32/44/211 37/23/212 31/82/213
f 41/40/214 47/17/215 19/59/216
f 19/59/217 47/17/218 27/53/219
f 7/12/220 25/47/221 17/42/222
f 29/56/223 11/11/224 2/85/225
f 6/46/226 11/11/227 29/56/228
f 6/46/229 29/94/230 17/42/231
f 9/5/232 35/78/233 39/64/234
f 46/29/235 45/20/236 4/87/237
f 46/29/238 28/6/239 45/86/240
f 29/71/241 44/32/242 17/72/243
f 22/36/244 5/75/245 39/7/246
f 30/41/247 42/18/248 47/17/249
f 19/21/250 33/1/251 18/58/252
f 30/41/253 36/43/254 12/13/255
f 44/32/256 24/31/257 5/35/258
f 24/31/259 34/34/260 5/35/261
f 17/42/262 25/47/263 6/46/264
f 18/3/265 31/45/266 19/59/267
s 2
f 48/79/268 29/15/269 10/80/270
s 1
f 24/31/61 44/32/271 48/48/62
s 2
f 44/32/272 29/71/269 48/48/268
