# This file uses centimeters as units for non-parametric coordinates.

mtllib MediumRock1.mtl
g default
v -2.600206 0.557230 0.269447
v -0.014302 -0.974377 2.425751
v -1.205809 1.776928 -0.292455
v -0.436389 2.465296 -0.248396
v 2.587130 -2.465296 -0.545065
v 1.477940 -2.280791 2.470701
v 0.912638 -0.102548 1.964911
v 1.861599 0.110110 0.571859
v 1.012572 0.187605 -0.205008
v -2.576093 -2.356187 0.638159
v 0.443830 -1.051808 2.100541
v -1.116989 0.119350 1.613212
v -0.362591 -2.377266 2.644536
v -0.287336 2.391289 0.940880
v -0.260321 1.217049 1.628403
v -3.255562 -1.099465 0.010926
v 1.649775 -2.374348 1.560580
v -0.617732 -1.447093 -2.205034
v -1.272027 0.789589 -2.023459
v -2.836143 -0.246064 -0.757817
v -1.150184 1.574362 1.181584
v 3.255562 -1.274165 -0.176393
v -3.155674 -2.417011 -0.443353
v -0.411247 -2.414711 -2.644536
v 1.339038 -1.246235 1.923411
v -1.736451 -2.194845 1.929471
v -0.556432 1.728533 -0.944770
v 0.902984 1.569735 0.901566
v -0.035548 -2.417931 2.042010
v -1.669123 0.913821 1.162197
v -1.590213 -1.488019 -1.895654
v -2.536268 -2.412457 -1.742275
v -0.130691 -0.331016 -2.352421
v 1.806618 -2.401210 -1.722138
v 2.297227 -0.624221 0.481562
v -1.869749 -0.775092 1.510759
v -2.620229 -1.588010 -1.095287
v 1.107774 0.383832 1.319833
v 1.023335 -0.481825 -1.489338
v 0.831932 -1.458614 -1.718056
v -2.071522 0.088974 -1.259762
v -2.528513 1.494391 -0.042012
v -1.029162 -0.868040 2.482753
v 3.089693 -2.430995 0.855415
v 0.049137 1.665831 -0.577093
v 0.543665 2.189764 1.132007
v -2.366770 1.569491 -0.811163
vn 0.306115 -0.254719 -0.917285
vn 0.306115 -0.254719 -0.917285
vn 0.306115 -0.254719 -0.917285
vn 0.986609 0.142195 -0.079896
vn 0.986609 0.142195 -0.079896
vn 0.986609 0.142195 -0.079896
vn 0.603209 0.067879 -0.794689
vn 0.603209 0.067879 -0.794689
vn 0.603209 0.067879 -0.794689
vn 0.625062 0.449296 -0.638302
vn 0.625062 0.449296 -0.638302
vn 0.625062 0.449296 -0.638302
vn 0.720365 0.354001 0.596454
vn 0.720365 0.354001 0.596454
vn 0.720365 0.354001 0.596454
vn 0.553940 -0.156744 0.817669
vn 0.553940 -0.156744 0.817668
vn 0.553940 -0.156744 0.817668
vn -0.086872 0.536179 0.839622
vn -0.086872 0.536179 0.839622
vn -0.086872 0.536179 0.839622
vn 0.866194 -0.140247 0.479623
vn 0.866194 -0.140247 0.479623
vn 0.866194 -0.140247 0.479623
vn -0.198852 0.978555 0.053731
vn -0.198852 0.978555 0.053731
vn -0.198852 0.978555 0.053731
vn -0.098744 0.980305 -0.171029
vn -0.098744 0.980305 -0.171029
vn -0.098744 0.980305 -0.171029
vn 0.775903 0.378697 -0.504543
vn 0.775903 0.378697 -0.504543
vn 0.775903 0.378697 -0.504543
vn 0.800392 0.412061 -0.435405
vn 0.800392 0.412061 -0.435405
vn 0.800393 0.412061 -0.435405
vn 0.493825 0.466613 -0.733764
vn 0.493825 0.466613 -0.733764
vn 0.493825 0.466613 -0.733764
vn 0.470307 0.564517 -0.678331
vn 0.470307 0.564517 -0.678330
vn 0.470307 0.564517 -0.678330
vn -0.870102 -0.016116 -0.492609
vn -0.870102 -0.016116 -0.492609
vn -0.870102 -0.016116 -0.492609
vn -0.836878 0.120647 -0.533928
vn -0.836878 0.120647 -0.533928
vn -0.836878 0.120647 -0.533928
vn 0.410986 0.365529 0.835152
vn 0.410986 0.365529 0.835152
vn 0.410986 0.365529 0.835152
vn -0.076216 0.502492 0.861216
vn -0.076216 0.502492 0.861216
vn -0.076216 0.502492 0.861216
vn -0.181288 0.973328 0.140598
vn -0.181288 0.973328 0.140598
vn -0.181288 0.973328 0.140598
vn -0.665434 0.735709 0.126214
vn -0.665434 0.735709 0.126214
vn -0.665434 0.735709 0.126214
vn -0.013543 -0.999869 0.008895
vn -0.013543 -0.999869 0.008895
vn -0.013543 -0.999869 0.008895
vn 0.032093 -0.998725 0.038970
vn 0.032093 -0.998725 0.038970
vn 0.032093 -0.998725 0.038970
vn 0.780659 0.378863 -0.497025
vn 0.780659 0.378863 -0.497025
vn 0.780659 0.378863 -0.497025
vn 0.868212 -0.393771 -0.301914
vn 0.868212 -0.393771 -0.301914
vn 0.868212 -0.393771 -0.301914
vn 0.180301 0.190618 -0.964964
vn 0.180301 0.190618 -0.964964
vn 0.180301 0.190618 -0.964964
vn 0.531370 -0.006898 0.847112
vn 0.531370 -0.006898 0.847112
vn 0.531370 -0.006898 0.847112
vn 0.069831 0.136766 0.988139
vn 0.069831 0.136766 0.988139
vn 0.069831 0.136766 0.988139
vn -0.470547 -0.114030 0.874976
vn -0.470547 -0.114030 0.874976
vn -0.470547 -0.114030 0.874976
vn -0.579730 0.701134 -0.415120
vn -0.579730 0.701134 -0.415120
vn -0.579730 0.701134 -0.415120
vn 0.144435 -0.126301 0.981421
vn 0.144435 -0.126301 0.981421
vn 0.144435 -0.126301 0.981421
vn -0.361362 0.257594 0.896138
vn -0.361362 0.257594 0.896138
vn -0.361362 0.257594 0.896138
vn -0.227110 0.488169 0.842682
vn -0.227110 0.488169 0.842682
vn -0.227110 0.488169 0.842682
vn -0.348217 0.259290 0.900841
vn -0.348217 0.259290 0.900841
vn -0.348217 0.259290 0.900841
vn 0.422056 0.357501 0.833104
vn 0.422056 0.357501 0.833104
vn 0.422056 0.357501 0.833104
vn 0.228624 0.972992 0.031894
vn 0.228624 0.972992 0.031894
vn 0.228624 0.972992 0.031894
vn -0.605355 0.456446 0.652075
vn -0.605355 0.456446 0.652075
vn -0.605355 0.456446 0.652075
vn -0.717767 0.221499 0.660113
vn -0.717767 0.221499 0.660113
vn -0.717767 0.221499 0.660113
vn 0.746927 0.126169 0.652826
vn 0.746927 0.126169 0.652826
vn 0.746927 0.126169 0.652826
vn 0.732739 0.418118 0.536908
vn 0.732739 0.418118 0.536908
vn 0.732739 0.418118 0.536908
vn 0.304140 0.318383 -0.897848
vn 0.304140 0.318383 -0.897848
vn 0.304140 0.318383 -0.897848
vn 0.214370 0.966980 -0.137821
vn 0.214370 0.966980 -0.137821
vn 0.214370 0.966980 -0.137821
vn -0.840216 0.079314 0.536419
vn -0.840216 0.079314 0.536419
vn -0.840217 0.079314 0.536419
vn -0.407997 0.242550 0.880175
vn -0.407997 0.242550 0.880175
vn -0.407997 0.242550 0.880175
vn -0.528272 0.627111 -0.572417
vn -0.528272 0.627111 -0.572417
vn -0.528272 0.627111 -0.572417
vn -0.949440 -0.099073 -0.297907
vn -0.949440 -0.099073 -0.297907
vn -0.949440 -0.099073 -0.297907
vn 0.417535 0.807203 -0.417239
vn 0.417535 0.807203 -0.417239
vn 0.417535 0.807203 -0.417239
vn -0.003197 -0.999982 -0.005031
vn -0.003197 -0.999982 -0.005031
vn -0.003197 -0.999982 -0.005031
vn 0.439029 0.870908 -0.220844
vn 0.439029 0.870908 -0.220844
vn 0.439029 0.870908 -0.220844
vn 0.340966 0.448118 -0.826397
vn 0.340966 0.448118 -0.826397
vn 0.340966 0.448118 -0.826397
vn -0.016223 0.800718 0.598822
vn -0.016223 0.800718 0.598822
vn -0.016223 0.800718 0.598822
vn -0.654827 0.616983 0.436502
vn -0.654827 0.616983 0.436502
vn -0.654827 0.616983 0.436502
vn 0.380297 0.595151 -0.707933
vn 0.380297 0.595151 -0.707933
vn 0.380297 0.595151 -0.707933
vn 0.690175 0.424049 0.586379
vn 0.690175 0.424049 0.586379
vn 0.690175 0.424049 0.586379
vn -0.919610 -0.177836 0.350275
vn -0.919610 -0.177836 0.350275
vn -0.919610 -0.177836 0.350275
vn -0.305401 0.156707 -0.939241
vn -0.305401 0.156707 -0.939241
vn -0.305401 0.156707 -0.939241
vn -0.578709 0.110099 -0.808068
vn -0.578709 0.110099 -0.808068
vn -0.578709 0.110099 -0.808068
vn -0.616297 0.125400 -0.777466
vn -0.616297 0.125400 -0.777466
vn -0.616297 0.125400 -0.777466
vn -0.273933 -0.916163 0.292587
vn -0.273933 -0.916163 0.292587
vn -0.273933 -0.916163 0.292587
vn -0.047290 -0.998011 0.041688
vn -0.047290 -0.998011 0.041688
vn -0.047290 -0.998011 0.041688
vn 0.269277 0.478338 0.835873
vn 0.269277 0.478337 0.835873
vn 0.269277 0.478338 0.835873
vn 0.104473 0.994516 0.004753
vn 0.104473 0.994516 0.004753
vn 0.104473 0.994516 0.004753
vn -0.727815 -0.052229 0.683781
vn -0.727816 -0.052229 0.683781
vn -0.727815 -0.052229 0.683781
vn 0.202280 0.039911 0.978514
vn 0.202280 0.039911 0.978514
vn 0.202280 0.039911 0.978514
vn -0.716957 0.061193 -0.694426
vn -0.716957 0.061193 -0.694426
vn -0.716957 0.061193 -0.694426
vn -0.370315 0.317487 -0.872966
vn -0.370315 0.317487 -0.872966
vn -0.370315 0.317487 -0.872966
vn -0.853099 -0.226702 0.469924
vn -0.853099 -0.226702 0.469924
vn -0.853099 -0.226702 0.469924
vn -0.662573 0.737813 0.128954
vn -0.662573 0.737813 0.128954
vn -0.662573 0.737813 0.128954
vn -0.609045 0.674786 0.416807
vn -0.609045 0.674786 0.416807
vn -0.609045 0.674786 0.416807
vn -0.744721 0.123502 0.655849
vn -0.744721 0.123502 0.655849
vn -0.744721 0.123502 0.655849
vn -0.876966 0.238213 -0.417356
vn -0.876966 0.238213 -0.417356
vn -0.876966 0.238213 -0.417356
vn -0.569353 0.470858 -0.673892
vn -0.569353 0.470858 -0.673892
vn -0.569353 0.470858 -0.673892
vn -0.718966 0.066262 -0.691879
vn -0.718966 0.066262 -0.691879
vn -0.718966 0.066262 -0.691879
vn -0.113900 0.785552 -0.608222
vn -0.113900 0.785552 -0.608222
vn -0.113900 0.785552 -0.608222
vn 0.889157 0.342515 -0.303454
vn 0.889157 0.342515 -0.303454
vn 0.889157 0.342515 -0.303454
vn 0.538721 -0.223838 0.812204
vn 0.538721 -0.223838 0.812204
vn 0.538721 -0.223838 0.812204
vn -0.276795 0.056028 0.959294
vn -0.276795 0.056028 0.959294
vn -0.276795 0.056028 0.959294
vn 0.057901 -0.991918 0.112897
vn 0.057901 -0.991918 0.112897
vn 0.057901 -0.991918 0.112897
vn 0.627684 0.692466 -0.355674
vn 0.627684 0.692466 -0.355674
vn 0.627684 0.692466 -0.355674
vn 0.709480 0.589592 -0.386030
vn 0.709480 0.589592 -0.386030
vn 0.709480 0.589592 -0.386030
vn 0.729511 0.565667 -0.384492
vn 0.729511 0.565667 -0.384492
vn 0.729511 0.565668 -0.384492
vn 0.110886 -0.946686 0.302474
vn 0.110886 -0.946686 0.302474
vn 0.110886 -0.946686 0.302474
vn 0.503016 -0.014812 -0.864150
vn 0.503016 -0.014812 -0.864150
vn 0.503016 -0.014812 -0.864150
vn -0.378698 -0.910054 -0.168493
vn -0.378698 -0.910054 -0.168493
vn -0.378698 -0.910054 -0.168493
vn -0.280772 -0.004220 -0.959765
vn -0.280772 -0.004220 -0.959765
vn -0.280772 -0.004220 -0.959765
vn -0.394877 0.230455 0.889361
vn -0.394877 0.230455 0.889361
vn -0.394877 0.230455 0.889361
vn -0.045353 -0.998141 0.040722
vn -0.045353 -0.998141 0.040722
vn -0.045353 -0.998141 0.040722
vn 0.039512 -0.995977 -0.080426
vn 0.039512 -0.995977 -0.080426
vn 0.039512 -0.995977 -0.080426
vn 0.963652 0.213994 0.159944
vn 0.963652 0.213994 0.159944
vn 0.963652 0.213994 0.159944
vn -0.302717 -0.011187 -0.953015
vn -0.302717 -0.011187 -0.953015
vn -0.302717 -0.011187 -0.953015
vn -0.012372 -0.999691 -0.021579
vn -0.012372 -0.999691 -0.021579
vn -0.012372 -0.999691 -0.021579
s off
g pasted__pasted__pasted__big_rock_1 pasted__pasted__hoge_paal pasted__Medium_Rock MediumRock1
usemtl pasted__pasted__pasted__BIG_1SG1
f 33//1 40//2 18//3
f 38//4 9//5 28//6
f 39//7 40//8 33//9
f 8//10 35//11 9//12
f 8//13 38//14 35//15
f 2//16 11//17 7//18
f 7//19 12//20 2//21
f 2//22 13//23 29//24
f 3//25 47//26 42//27
f 27//28 47//29 3//30
f 33//31 45//32 9//33
f 45//34 28//35 9//36
f 19//37 27//38 45//39
f 27//40 4//41 45//42
f 37//43 16//44 20//45
f 37//46 23//47 16//48
f 15//49 38//50 28//51
f 14//52 15//53 46//54
f 3//55 42//56 21//57
f 4//58 3//59 21//60
f 24//61 44//62 10//63
f 10//64 23//65 24//66
f 34//67 39//68 5//69
f 5//70 22//71 44//72
f 39//73 34//74 40//75
f 15//76 28//77 46//78
f 13//79 2//80 43//81
f 43//82 26//83 13//84
f 1//85 41//86 20//87
f 15//88 12//89 38//90
f 30//91 12//92 21//93
f 21//94 15//95 14//96
f 21//97 12//98 15//99
f 44//100 35//101 17//102
f 46//103 4//104 14//105
f 21//106 42//107 30//108
f 30//109 1//110 36//111
f 17//112 35//113 7//114
f 7//115 35//116 38//117
f 18//118 40//119 34//120
f 8//121 9//122 38//123
f 10//124 26//125 36//126
f 12//127 36//128 2//129
f 4//130 27//131 3//132
f 47//133 41//134 1//135
f 39//136 33//137 9//138
f 32//139 24//140 23//141
f 39//142 35//143 22//144
f 24//145 18//146 34//147
f 12//148 7//149 38//150
f 1//151 30//152 47//153
f 33//154 19//155 45//156
f 22//157 35//158 44//159
f 36//160 1//161 20//162
f 32//163 31//164 18//165
f 41//166 37//167 20//168
f 37//169 41//170 31//171
f 26//172 10//173 13//174
f 10//175 29//176 13//177
f 6//178 25//179 11//180
f 43//181 2//182 36//183
f 36//184 16//185 10//186
f 7//187 11//188 25//189
f 31//190 41//191 19//192
f 24//193 32//194 18//195
f 16//196 23//197 10//198
f 14//199 4//200 21//201
f 20//202 16//203 36//204
f 36//205 26//206 43//207
f 23//208 37//209 32//210
f 32//211 37//212 31//213
f 41//214 47//215 19//216
f 19//217 47//218 27//219
f 7//220 25//221 17//222
f 29//223 11//224 2//225
f 6//226 11//227 29//228
f 6//229 29//230 17//231
f 9//232 35//233 39//234
f 46//235 45//236 4//237
f 46//238 28//239 45//240
f 29//241 44//242 17//243
f 22//244 5//245 39//246
f 30//247 42//248 47//249
f 19//250 33//251 18//252
f 30//253 36//254 12//255
f 44//256 24//257 5//258
f 24//259 34//260 5//261
f 17//262 25//263 6//264
f 18//265 31//266 19//267
f 44//268 29//269 10//270
