# This file uses centimeters as units for non-parametric coordinates.

mtllib Seaweed1.mtl
g default
v 0.188717 -0.246042 -0.187129
v -0.001506 0.363661 0.180610
v -0.006594 0.517088 0.044849
v -0.162435 -0.878668 -0.109835
v -0.268451 -0.562572 -0.335141
v -0.231079 -0.188936 -0.311108
v -0.080400 -0.854001 -0.190911
v 0.078871 -0.486329 0.209980
v 0.089692 0.008690 0.208837
v 0.100688 -0.698276 0.126241
v 0.100790 0.044097 0.290454
v -0.222314 -0.536046 -0.302077
v -0.265150 0.868383 -0.358582
v -0.159703 0.879603 -0.351641
v -0.009112 -0.851155 -0.074330
v 0.059728 -0.862695 -0.023959
v 0.134585 -0.462571 0.206102
v 0.131623 0.186360 0.393934
v 0.197604 0.172916 0.429399
v 0.087186 0.643119 -0.115553
v 0.188877 -0.301544 -0.121569
v 0.162733 0.649731 -0.119669
v 0.102056 -0.857008 -0.117201
v -0.121944 -0.632940 0.011985
v -0.108704 -0.873455 -0.144738
v -0.056727 0.510783 0.071420
v -0.009570 -0.839791 -0.141104
v -0.183122 -0.191861 -0.383646
v -0.244287 -0.224345 -0.429400
v -0.177724 -0.536678 -0.378947
v -0.083366 0.264855 -0.216593
v -0.286510 -0.183298 -0.395018
v -0.038625 0.673834 -0.261893
v 0.182897 -0.846750 -0.184033
v 0.182905 -0.847251 -0.114012
v 0.101952 -0.244255 -0.176438
v 0.097357 -0.849528 -0.185839
v -0.033232 0.596659 -0.264311
v 0.206279 0.410368 -0.186655
v 0.295175 0.078980 -0.180102
v -0.252930 -0.544914 -0.416886
v -0.175802 0.251288 -0.286643
v 0.221315 0.098058 -0.185784
v -0.054898 0.582245 -0.172175
v 0.117603 -0.221011 -0.110480
v 0.296634 0.065703 -0.115607
v -0.144090 -0.362122 -0.030014
v 0.115004 0.412862 -0.171519
v -0.129932 0.591891 -0.235434
v -0.054408 0.304574 0.206768
v -0.090122 0.619470 -0.298438
v 0.036708 -0.847330 -0.206660
v 0.218027 0.082678 -0.121609
v -0.154143 -0.284138 0.059129
v -0.220803 0.879866 -0.404791
v 0.167991 0.643280 -0.183215
v -0.038304 0.320589 0.123811
v -0.128387 -0.879866 -0.046320
v 0.062097 -0.003768 0.076139
v -0.201919 -0.350408 -0.014519
v -0.150520 0.137081 -0.240664
v -0.044243 -0.848899 -0.259488
v -0.153664 -0.624983 -0.042170
v -0.107749 -0.317222 0.019479
v 0.054485 -0.714545 0.148843
v -0.021644 -0.020991 0.025527
v 0.075226 -0.739967 0.180133
v 0.123250 -0.260147 0.183998
v 0.001024 -0.037638 0.095916
v -0.212690 -0.644076 -0.020037
v 0.088706 -0.484585 0.260803
v 0.112732 -0.739365 0.165102
v 0.144432 -0.522298 0.243057
v -0.083791 0.309434 0.145357
v 0.123229 0.022293 0.202997
v 0.151033 0.038019 0.269613
v -0.200620 0.003168 -0.389544
v -0.296634 -0.474555 -0.382552
vn -0.092524 0.989820 -0.108148
vn -0.092524 0.989820 -0.108148
vn -0.092524 0.989820 -0.108148
vn 0.020628 0.015371 -0.999669
vn 0.020628 0.015371 -0.999669
vn 0.020628 0.015371 -0.999669
vn -0.937984 0.329984 0.106291
vn -0.937984 0.329984 0.106291
vn -0.937983 0.329984 0.106291
vn -0.879679 -0.209993 0.426694
vn -0.879679 -0.209993 0.426694
vn -0.879679 -0.209993 0.426694
vn 0.962564 0.219593 -0.158903
vn 0.962564 0.219593 -0.158903
vn 0.962564 0.219593 -0.158903
vn 0.034596 -0.993262 -0.110603
vn 0.034596 -0.993262 -0.110603
vn 0.034596 -0.993262 -0.110603
vn -0.122360 -0.003929 -0.992478
vn -0.122360 -0.003929 -0.992478
vn -0.122360 -0.003929 -0.992478
vn -0.163875 -0.010642 -0.986424
vn -0.163876 -0.010642 -0.986424
vn -0.163876 -0.010642 -0.986424
vn -0.163959 -0.012374 -0.986390
vn -0.163959 -0.012374 -0.986390
vn -0.163959 -0.012374 -0.986390
vn 0.675095 0.307527 -0.670577
vn 0.675095 0.307527 -0.670577
vn 0.675095 0.307527 -0.670577
vn 0.296254 0.638419 0.710391
vn 0.296254 0.638419 0.710391
vn 0.296254 0.638419 0.710391
vn -0.354003 -0.280084 -0.892320
vn -0.354003 -0.280084 -0.892320
vn -0.354003 -0.280084 -0.892320
vn -0.874582 0.459952 0.153460
vn -0.874582 0.459952 0.153460
vn -0.874582 0.459952 0.153460
vn -0.208264 0.229551 -0.950754
vn -0.208264 0.229551 -0.950754
vn -0.208264 0.229551 -0.950754
vn 0.457834 0.266382 -0.848191
vn 0.457834 0.266382 -0.848191
vn 0.457834 0.266382 -0.848192
vn -0.301968 -0.211607 0.929536
vn -0.301968 -0.211607 0.929536
vn -0.301968 -0.211607 0.929536
vn 0.888529 -0.287173 -0.357838
vn 0.888529 -0.287173 -0.357838
vn 0.888529 -0.287173 -0.357838
vn -0.810498 0.455170 0.368665
vn -0.810498 0.455169 0.368665
vn -0.810498 0.455169 0.368665
vn -0.934865 -0.262502 0.238997
vn -0.934865 -0.262502 0.238997
vn -0.934865 -0.262502 0.238997
vn -0.858814 0.274315 0.432655
vn -0.858814 0.274315 0.432655
vn -0.858814 0.274315 0.432655
vn -0.876502 -0.270888 0.397951
vn -0.876502 -0.270888 0.397951
vn -0.876502 -0.270888 0.397951
vn 0.481311 -0.417951 0.770491
vn 0.481311 -0.417951 0.770491
vn 0.481311 -0.417951 0.770491
vn 0.557347 -0.136397 0.819000
vn 0.557347 -0.136397 0.819000
vn 0.557347 -0.136397 0.819000
vn 0.428896 -0.380489 0.819314
vn 0.428896 -0.380489 0.819314
vn 0.428896 -0.380489 0.819314
vn 0.815664 -0.022951 -0.578070
vn 0.815664 -0.022951 -0.578070
vn 0.815664 -0.022951 -0.578070
vn 0.862332 -0.007998 -0.506281
vn 0.862332 -0.007998 -0.506281
vn 0.862332 -0.007998 -0.506281
vn 0.834278 0.332505 -0.439796
vn 0.834279 0.332504 -0.439796
vn 0.834278 0.332505 -0.439796
vn -0.545521 0.233550 -0.804898
vn -0.545521 0.233550 -0.804898
vn -0.545521 0.233550 -0.804898
vn 0.979002 -0.070695 0.191201
vn 0.979002 -0.070695 0.191201
vn 0.979002 -0.070695 0.191201
vn -0.584918 0.006333 0.811068
vn -0.584918 0.006333 0.811068
vn -0.584918 0.006333 0.811068
vn -0.642279 0.027053 0.765994
vn -0.642279 0.027053 0.765994
vn -0.642279 0.027053 0.765994
vn -0.642917 0.020297 0.765667
vn -0.642917 0.020297 0.765667
vn -0.642917 0.020297 0.765667
vn 0.474869 0.571340 0.669380
vn 0.474869 0.571340 0.669380
vn 0.474869 0.571340 0.669380
vn 0.970728 -0.116468 0.210055
vn 0.970728 -0.116468 0.210055
vn 0.970728 -0.116468 0.210055
vn 0.977582 -0.166286 -0.129159
vn 0.977582 -0.166286 -0.129159
vn 0.977582 -0.166286 -0.129159
vn 0.864909 0.020374 0.501515
vn 0.864909 0.020374 0.501515
vn 0.864909 0.020374 0.501515
vn 0.050421 -0.997591 -0.047635
vn 0.050421 -0.997592 -0.047635
vn 0.050421 -0.997591 -0.047635
vn 0.599518 -0.001523 -0.800360
vn 0.599518 -0.001523 -0.800360
vn 0.599518 -0.001523 -0.800360
vn 0.475886 -0.117184 -0.871665
vn 0.475886 -0.117184 -0.871665
vn 0.475886 -0.117184 -0.871665
vn -0.872189 -0.417025 -0.255687
vn -0.872189 -0.417025 -0.255687
vn -0.872189 -0.417025 -0.255687
vn -0.819592 0.045233 0.571159
vn -0.819592 0.045233 0.571159
vn -0.819592 0.045233 0.571159
vn 0.946393 -0.027031 -0.321883
vn 0.946394 -0.027031 -0.321883
vn 0.946394 -0.027031 -0.321883
vn 0.959875 0.016607 -0.279937
vn 0.959875 0.016607 -0.279937
vn 0.959875 0.016607 -0.279937
vn 0.890783 0.184441 -0.415317
vn 0.890783 0.184441 -0.415317
vn 0.890783 0.184441 -0.415317
vn -0.181979 0.272540 -0.944778
vn -0.181979 0.272540 -0.944778
vn -0.181979 0.272540 -0.944778
vn 0.265792 -0.060039 0.962159
vn 0.265792 -0.060039 0.962159
vn 0.265792 -0.060039 0.962159
vn -0.991872 0.021972 0.125332
vn -0.991871 0.021972 0.125332
vn -0.991871 0.021972 0.125332
vn -0.507224 0.341101 -0.791438
vn -0.507224 0.341101 -0.791438
vn -0.507224 0.341101 -0.791438
vn -0.493082 -0.439320 0.750911
vn -0.493082 -0.439320 0.750911
vn -0.493082 -0.439320 0.750912
vn 0.351815 -0.361478 0.863458
vn 0.351815 -0.361478 0.863458
vn 0.351815 -0.361478 0.863458
vn 0.377674 -0.048274 0.924679
vn 0.377674 -0.048274 0.924679
vn 0.377674 -0.048274 0.924679
vn -0.795488 0.066404 0.602320
vn -0.795488 0.066404 0.602320
vn -0.795488 0.066404 0.602320
vn 0.460094 -0.391905 0.796696
vn 0.460094 -0.391905 0.796696
vn 0.460094 -0.391905 0.796696
vn 0.454003 -0.046975 -0.889761
vn 0.454003 -0.046975 -0.889761
vn 0.454003 -0.046975 -0.889761
vn -0.829848 0.073460 0.553133
vn -0.829848 0.073460 0.553133
vn -0.829848 0.073460 0.553133
vn 0.787382 -0.309721 0.533013
vn 0.787382 -0.309721 0.533013
vn 0.787382 -0.309721 0.533013
vn -0.638842 -0.012804 -0.769231
vn -0.638842 -0.012804 -0.769231
vn -0.638842 -0.012804 -0.769231
vn -0.463247 0.238437 -0.853552
vn -0.463247 0.238437 -0.853552
vn -0.463247 0.238437 -0.853552
vn -0.038290 -0.009625 0.999220
vn -0.038290 -0.009625 0.999220
vn -0.038290 -0.009625 0.999220
vn 0.078641 -0.982559 0.168502
vn 0.078641 -0.982559 0.168502
vn 0.078641 -0.982559 0.168502
vn -0.973278 0.003821 0.229596
vn -0.973279 0.003821 0.229596
vn -0.973278 0.003821 0.229596
vn 0.969532 0.060316 0.237423
vn 0.969532 0.060316 0.237423
vn 0.969532 0.060316 0.237423
vn 0.166817 0.011828 0.985917
vn 0.166817 0.011828 0.985917
vn 0.166817 0.011828 0.985917
vn 0.921011 -0.296191 -0.253003
vn 0.921011 -0.296191 -0.253003
vn 0.921011 -0.296191 -0.253003
vn 0.956877 -0.279492 -0.079180
vn 0.956878 -0.279492 -0.079180
vn 0.956878 -0.279492 -0.079180
vn 0.654552 0.656851 0.374310
vn 0.654552 0.656851 0.374310
vn 0.654552 0.656851 0.374310
vn 0.999953 -0.009690 -0.000192
vn 0.999953 -0.009690 -0.000192
vn 0.999953 -0.009690 -0.000192
vn 0.999868 -0.011106 -0.011846
vn 0.999868 -0.011106 -0.011846
vn 0.999868 -0.011106 -0.011846
vn -0.629032 -0.011406 -0.777296
vn -0.629032 -0.011406 -0.777296
vn -0.629032 -0.011406 -0.777296
vn 0.546349 -0.057540 -0.835579
vn 0.546349 -0.057540 -0.835579
vn 0.546348 -0.057540 -0.835579
vn 0.648078 0.659018 0.381694
vn 0.648078 0.659018 0.381694
vn 0.648078 0.659018 0.381694
vn -0.840335 0.031818 0.541133
vn -0.840335 0.031818 0.541133
vn -0.840335 0.031818 0.541133
vn -0.720568 -0.636788 -0.274376
vn -0.720568 -0.636788 -0.274376
vn -0.720568 -0.636788 -0.274376
vn -0.667888 -0.628352 -0.398874
vn -0.667888 -0.628352 -0.398874
vn -0.667888 -0.628352 -0.398874
vn -0.865352 0.186479 -0.465180
vn -0.865352 0.186479 -0.465180
vn -0.865352 0.186479 -0.465180
vn -0.997208 0.023628 0.070842
vn -0.997208 0.023628 0.070842
vn -0.997208 0.023628 0.070842
vn -0.575404 -0.550719 -0.604664
vn -0.575404 -0.550719 -0.604664
vn -0.575404 -0.550719 -0.604664
vn 0.523554 0.031992 -0.851392
vn 0.523554 0.031992 -0.851392
vn 0.523554 0.031992 -0.851392
vn -0.948795 0.314751 0.026827
vn -0.948795 0.314751 0.026827
vn -0.948795 0.314751 0.026827
vn -0.113640 0.984239 0.135499
vn -0.113640 0.984239 0.135499
vn -0.113640 0.984239 0.135499
vn 0.076977 0.000921 -0.997032
vn 0.076977 0.000921 -0.997032
vn 0.076977 0.000921 -0.997032
vn 0.458609 -0.167454 -0.872718
vn 0.458609 -0.167454 -0.872718
vn 0.458609 -0.167454 -0.872718
vn -0.937400 0.209217 -0.278403
vn -0.937401 0.209217 -0.278404
vn -0.937401 0.209217 -0.278404
vn 0.102415 -0.046184 0.993669
vn 0.102415 -0.046184 0.993669
vn 0.102415 -0.046184 0.993669
vn -0.248230 0.053770 -0.967208
vn -0.248230 0.053770 -0.967208
vn -0.248230 0.053770 -0.967208
vn -0.588519 0.016147 0.808322
vn -0.588519 0.016147 0.808322
vn -0.588519 0.016147 0.808322
vn -0.063669 0.057559 0.996310
vn -0.063669 0.057559 0.996310
vn -0.063669 0.057559 0.996310
vn -0.941907 -0.312488 -0.123135
vn -0.941907 -0.312488 -0.123135
vn -0.941907 -0.312488 -0.123135
vn -0.108765 0.485281 0.867567
vn -0.108765 0.485281 0.867567
vn -0.108765 0.485281 0.867567
vn -0.078476 -0.011066 0.996855
vn -0.078476 -0.011066 0.996855
vn -0.078476 -0.011066 0.996855
vn 0.834316 0.035382 0.550149
vn 0.834316 0.035382 0.550149
vn 0.834316 0.035382 0.550149
vn -0.311699 -0.155469 0.937376
vn -0.311699 -0.155469 0.937376
vn -0.311699 -0.155469 0.937376
vn -0.122019 0.015432 -0.992408
vn -0.122019 0.015432 -0.992408
vn -0.122019 0.015432 -0.992408
vn 0.965211 0.259554 0.031603
vn 0.965211 0.259554 0.031603
vn 0.965211 0.259554 0.031603
vn 0.075891 -0.003289 -0.997111
vn 0.075891 -0.003289 -0.997111
vn 0.075891 -0.003289 -0.997111
vn 0.667992 0.069899 -0.740878
vn 0.667992 0.069899 -0.740878
vn 0.667992 0.069899 -0.740878
vn 0.629510 -0.046714 0.775587
vn 0.629510 -0.046714 0.775587
vn 0.629510 -0.046714 0.775587
vn 0.054177 0.001873 0.998530
vn 0.054177 0.001873 0.998530
vn 0.054177 0.001873 0.998530
vn 0.984815 0.160920 0.065150
vn 0.984815 0.160920 0.065150
vn 0.984815 0.160920 0.065150
vn 0.655263 0.060485 -0.752975
vn 0.655263 0.060485 -0.752975
vn 0.655263 0.060485 -0.752975
vn -0.538693 -0.535869 -0.650119
vn -0.538693 -0.535869 -0.650119
vn -0.538693 -0.535869 -0.650119
vn -0.638352 0.108115 -0.762114
vn -0.638352 0.108115 -0.762114
vn -0.638352 0.108115 -0.762114
vn 0.977419 0.031920 -0.208886
vn 0.977419 0.031920 -0.208886
vn 0.977419 0.031920 -0.208886
vn 0.952552 -0.030336 -0.302860
vn 0.952552 -0.030336 -0.302860
vn 0.952552 -0.030336 -0.302860
vn -0.409503 0.248310 -0.877867
vn -0.409503 0.248310 -0.877867
vn -0.409503 0.248310 -0.877867
vn 0.524046 -0.049681 -0.850240
vn 0.524046 -0.049681 -0.850240
vn 0.524046 -0.049681 -0.850240
vn 0.869180 -0.425296 -0.252289
vn 0.869180 -0.425296 -0.252289
vn 0.869180 -0.425296 -0.252289
vn -0.866808 -0.108017 0.486801
vn -0.866808 -0.108017 0.486802
vn -0.866808 -0.108017 0.486802
vn -0.847323 0.021106 0.530659
vn -0.847323 0.021106 0.530659
vn -0.847323 0.021106 0.530659
vn -0.542420 0.009917 -0.840049
vn -0.542420 0.009917 -0.840049
vn -0.542420 0.009917 -0.840049
vn -0.829784 -0.345512 0.438269
vn -0.829784 -0.345512 0.438269
vn -0.829784 -0.345512 0.438269
vn -0.196868 0.065788 -0.978220
vn -0.196868 0.065788 -0.978220
vn -0.196868 0.065788 -0.978220
vn -0.022323 -0.109763 -0.993707
vn -0.022323 -0.109763 -0.993707
vn -0.022323 -0.109763 -0.993707
vn 0.409005 -0.220567 0.885475
vn 0.409005 -0.220567 0.885475
vn 0.409005 -0.220567 0.885475
vn -0.359614 0.030714 -0.932596
vn -0.359614 0.030714 -0.932596
vn -0.359614 0.030714 -0.932596
vn 0.210741 -0.844726 0.491962
vn 0.210740 -0.844726 0.491962
vn 0.210741 -0.844726 0.491962
vn -0.461555 0.224436 -0.858252
vn -0.461555 0.224436 -0.858252
vn -0.461555 0.224436 -0.858252
vn 0.920289 0.026328 -0.390352
vn 0.920289 0.026328 -0.390352
vn 0.920289 0.026328 -0.390352
vn 0.062658 -0.996659 -0.052388
vn 0.062658 -0.996659 -0.052388
vn 0.062658 -0.996659 -0.052388
vn -0.422276 -0.278509 -0.862621
vn -0.422276 -0.278509 -0.862621
vn -0.422276 -0.278509 -0.862621
vn -0.887187 -0.235341 0.396880
vn -0.887187 -0.235341 0.396880
vn -0.887187 -0.235341 0.396880
vn 0.095793 -0.304418 0.947710
vn 0.095793 -0.304418 0.947710
vn 0.095793 -0.304418 0.947710
vn -0.403225 0.817424 -0.411373
vn -0.403225 0.817424 -0.411373
vn -0.403225 0.817424 -0.411374
vn -0.983713 0.169337 0.060285
vn -0.983713 0.169337 0.060285
vn -0.983713 0.169337 0.060285
vn -0.474740 -0.737871 0.479759
vn -0.474740 -0.737871 0.479759
vn -0.474740 -0.737871 0.479759
vn -0.578947 0.029691 0.814824
vn -0.578947 0.029691 0.814824
vn -0.578947 0.029691 0.814824
vn -0.462456 0.808797 -0.363292
vn -0.462456 0.808797 -0.363292
vn -0.462456 0.808797 -0.363292
vn -0.193591 0.536816 0.821189
vn -0.193591 0.536816 0.821189
vn -0.193591 0.536816 0.821189
vn 0.946908 0.004082 -0.321480
vn 0.946908 0.004082 -0.321480
vn 0.946908 0.004082 -0.321480
vn 0.158833 -0.776745 0.609458
vn 0.158833 -0.776745 0.609458
vn 0.158833 -0.776745 0.609458
vn 0.570801 0.471734 -0.672051
vn 0.570801 0.471734 -0.672051
vn 0.570801 0.471734 -0.672051
vn -0.981791 0.011811 0.189595
vn -0.981791 0.011811 0.189595
vn -0.981791 0.011811 0.189595
vn -0.980680 0.054447 0.187890
vn -0.980680 0.054447 0.187890
vn -0.980680 0.054447 0.187890
vn 0.120086 -0.992738 -0.007115
vn 0.120086 -0.992738 -0.007115
vn 0.120086 -0.992738 -0.007115
vn 0.474416 0.578916 -0.663164
vn 0.474416 0.578916 -0.663164
vn 0.474416 0.578915 -0.663164
vn 0.544208 0.023465 -0.838622
vn 0.544208 0.023465 -0.838622
vn 0.544208 0.023465 -0.838622
vn -0.831590 0.052575 0.552897
vn -0.831590 0.052575 0.552897
vn -0.831590 0.052575 0.552897
vn -0.687818 0.335707 -0.643590
vn -0.687818 0.335707 -0.643590
vn -0.687818 0.335707 -0.643590
vn -0.109497 -0.128122 0.985695
vn -0.109497 -0.128122 0.985695
vn -0.109497 -0.128122 0.985695
vn 0.589045 0.028426 -0.807600
vn 0.589045 0.028426 -0.807600
vn 0.589045 0.028426 -0.807600
s off
g pasted__pCube1 group1
usemtl pasted__lambert5SG
f 20//1 22//2 56//3
f 34//4 37//5 36//6
f 36//7 45//8 43//9
f 53//10 20//11 48//12
f 39//13 22//14 46//15
f 23//16 37//17 34//18
f 1//19 34//20 36//21
f 39//22 43//23 48//24
f 48//25 56//26 39//27
f 2//28 59//29 57//30
f 26//31 2//32 3//33
f 74//34 26//35 57//36
f 54//37 66//38 60//39
f 60//40 66//41 47//42
f 66//43 57//44 59//45
f 70//46 58//47 24//48
f 57//49 3//50 2//51
f 69//52 66//53 54//54
f 69//55 74//56 66//57
f 74//58 50//59 26//60
f 74//61 69//62 50//63
f 69//64 54//65 59//66
f 2//67 50//68 59//69
f 54//70 64//71 59//72
f 64//73 24//74 47//75
f 24//76 63//77 47//78
f 25//79 63//80 24//81
f 4//82 63//83 25//84
f 58//85 25//86 24//87
f 5//88 12//89 6//90
f 13//91 49//92 44//93
f 49//94 61//95 44//96
f 44//97 33//98 14//99
f 38//100 44//101 31//102
f 38//103 31//104 28//105
f 12//106 30//107 28//108
f 7//109 62//110 52//111
f 28//112 30//113 29//114
f 55//115 38//116 51//117
f 5//118 78//119 41//120
f 78//121 5//122 6//123
f 10//124 17//125 72//126
f 16//127 10//128 72//129
f 75//130 19//131 76//132
f 65//133 8//134 17//135
f 71//136 73//137 11//138
f 8//139 11//140 9//141
f 10//142 65//143 17//144
f 11//145 19//146 18//147
f 72//148 73//149 67//150
f 73//151 76//152 11//153
f 6//154 61//155 42//156
f 31//157 61//158 28//159
f 30//160 41//161 29//162
f 42//163 32//164 6//165
f 6//166 28//167 61//168
f 41//169 32//170 29//171
f 32//172 77//173 29//174
f 45//175 23//176 35//177
f 52//178 27//179 7//180
f 45//181 36//182 37//183
f 38//184 33//185 44//186
f 35//187 21//188 45//189
f 40//190 21//191 1//192
f 40//193 46//194 21//195
f 27//196 30//197 12//198
f 35//199 34//200 1//201
f 21//202 35//203 1//204
f 32//205 41//206 78//207
f 52//208 62//209 41//210
f 27//211 52//212 30//213
f 61//214 49//215 42//216
f 41//217 62//218 5//219
f 7//220 5//221 62//222
f 42//223 49//224 51//225
f 45//226 37//227 23//228
f 49//229 13//230 51//231
f 38//232 77//233 51//234
f 43//235 45//236 53//237
f 13//238 14//239 55//240
f 43//241 39//242 40//243
f 30//244 52//245 41//246
f 42//247 51//248 77//249
f 21//250 46//251 45//252
f 60//253 47//254 63//255
f 27//256 12//257 5//258
f 53//259 45//260 46//261
f 48//262 43//263 53//264
f 13//265 44//266 14//267
f 53//268 46//269 22//270
f 12//271 28//272 6//273
f 24//274 54//275 70//276
f 36//277 43//278 1//279
f 40//280 39//281 46//282
f 1//283 43//284 40//285
f 33//286 38//287 14//288
f 64//289 54//290 24//291
f 22//292 20//293 53//294
f 56//295 22//296 39//297
f 55//298 14//299 38//300
f 51//301 13//302 55//303
f 56//304 48//305 20//306
f 73//307 17//308 68//309
f 72//310 17//311 73//312
f 63//313 4//314 70//315
f 59//316 47//317 66//318
f 59//319 64//320 47//321
f 71//322 65//323 67//324
f 60//325 70//326 54//327
f 8//328 9//329 68//330
f 58//331 70//332 4//333
f 75//334 68//335 9//336
f 68//337 17//338 8//339
f 69//340 59//341 50//342
f 70//343 60//344 63//345
f 67//346 16//347 72//348
f 57//349 66//350 74//351
f 75//352 76//353 68//354
f 58//355 4//356 25//357
f 57//358 26//359 3//360
f 15//361 67//362 65//363
f 71//364 67//365 73//366
f 19//367 75//368 9//369
f 9//370 11//371 18//372
f 67//373 15//374 16//375
f 27//376 5//377 7//378
f 10//379 15//380 65//381
f 26//382 50//383 2//384
f 68//385 76//386 73//387
f 19//388 11//389 76//390
f 15//391 10//392 16//393
f 71//394 11//395 8//396
f 65//397 71//398 8//399
f 35//400 23//401 34//402
f 9//403 18//404 19//405
f 28//406 77//407 38//408
f 78//409 6//410 32//411
f 42//412 77//413 32//414
f 44//415 61//416 31//417
f 77//418 28//419 29//420
