# This file uses centimeters as units for non-parametric coordinates.

mtllib SmallRock3.mtl
g default
v 0.041057 0.472445 -0.123038
v -0.664282 0.212477 -0.053461
v -0.166448 0.338102 -0.327881
v -0.674954 -0.242348 -0.092839
v -0.177980 -0.440656 0.087309
v 0.596072 0.240650 -0.079928
v 0.552722 -0.209736 0.154972
v 0.087313 -0.460543 0.207330
v 0.018064 -0.219532 -0.430054
v -0.636542 -0.362816 -0.101925
v 0.333824 -0.352327 0.117094
v -0.657228 -0.223058 0.235561
v 0.196763 0.493203 -0.066317
v 0.328938 0.328658 -0.140679
v -0.579747 0.243170 0.183937
v -0.246345 -0.187987 0.518318
v 0.483000 -0.196131 -0.202034
v -0.419811 -0.493203 -0.064892
v 0.636245 -0.139715 0.003017
v -0.681970 -0.111428 -0.233853
v -0.101792 0.406297 -0.227558
v 0.275139 -0.398406 -0.010166
v 0.540236 0.327116 -0.024925
v -0.090060 0.186858 -0.518317
v 0.465882 -0.226218 0.131633
v 0.407014 0.263635 0.263759
v -0.503152 0.298692 -0.141360
v 0.681969 -0.040346 -0.029160
v -0.612156 0.108238 -0.247149
v -0.673430 0.250643 -0.147293
v -0.562477 0.013398 -0.442477
vt 0.738100 0.863200
vt 0.858300 0.648100
vt 0.092000 0.757200
vt 0.943900 0.692900
vt 0.987200 0.805500
vt 0.822000 0.985100
vt 0.222300 0.921600
vt 0.104500 0.972200
vt 0.153500 0.980600
vt 0.201000 0.942700
vt 0.111500 0.870700
vt 0.960100 0.708100
vt 0.793200 0.717700
vt 0.961500 0.921700
vt 0.902200 0.725100
vt 0.181300 0.747200
vt 0.215600 0.773400
vt 0.750500 0.889600
vt 0.831600 0.735800
vt 0.909800 0.823100
vt 0.218900 0.878900
vt 0.055100 0.953300
vt 0.992200 0.746200
vt 0.900100 0.994100
vt 0.001000 0.885600
vt 0.124600 0.753700
vt 0.185900 0.952200
vt 0.248700 0.795600
vt 0.252200 0.895100
vt 0.110400 0.810700
vt 0.912900 0.964100
vt 0.923400 0.950800
vt 0.838700 0.930500
vt 0.922900 0.637900
vt 0.037800 0.758100
vt 0.254000 0.808700
vt 0.258200 0.868400
vt 0.013800 0.933000
vt 0.896800 0.641800
vt 0.015400 0.795200
vt 0.161200 0.744100
vt 0.879500 1.001000
vt 0.866500 0.643900
vt 0.013100 0.839700
vt 0.778900 0.943400
vt 0.808100 0.974000
vt 0.223900 0.933200
vt 0.926600 0.671000
vt 0.765200 0.747900
vt 0.728700 0.799400
vt 0.724700 0.828200
vt 0.977300 0.859700
vt 0.008000 0.763500
vt 0.979200 0.913700
vt 0.004300 0.915200
vn -0.372918 0.437848 -0.818059
vn -0.222936 0.868321 -0.443079
vn -0.361317 0.608682 -0.706368
vn 0.340826 0.885370 0.316162
vn 0.332361 0.940480 -0.070953
vn 0.151276 0.945844 0.287220
vn -0.744607 -0.171022 0.645222
vn -0.746123 -0.336948 0.574253
vn -0.776487 0.058784 0.627385
vn 0.218174 0.573993 -0.789260
vn 0.393212 0.354369 -0.848415
vn 0.305043 0.384090 -0.871449
vn -0.359662 0.744328 -0.562689
vn -0.335912 0.803606 -0.491306
vn -0.418783 0.739586 -0.526910
vn -0.739327 -0.182158 -0.648239
vn -0.925192 0.113399 -0.362162
vn -0.940199 -0.013355 -0.340365
vn -0.277094 -0.880094 0.385556
vn 0.010718 -0.791959 0.610480
vn -0.343637 -0.873136 0.345755
vn 0.818372 -0.568680 0.082888
vn 0.691435 -0.716372 -0.093428
vn 0.510998 -0.588791 0.626264
vn 0.694738 -0.662453 0.280170
vn -0.832110 -0.430122 0.350126
vn -0.790303 0.173724 0.587572
vn -0.868171 0.187021 0.459676
vn 0.632928 -0.081271 0.769933
vn 0.672208 -0.302900 0.675564
vn 0.725932 0.036104 0.686819
vn -0.407558 0.903033 -0.135746
vn -0.372654 0.899891 -0.226550
vn -0.328036 0.929694 -0.167513
vn 0.213767 -0.410130 0.886621
vn 0.401268 -0.482598 0.778513
vn 0.510998 -0.588791 0.626264
vn -0.854152 -0.007523 -0.519969
vn -0.743287 -0.010421 -0.668892
vn -0.830156 -0.016769 -0.557279
vn 0.857431 0.240139 0.455132
vn 0.799006 0.176934 0.574703
vn 0.759504 0.114470 0.640352
vn -0.221182 -0.967685 0.121098
vn -0.335463 -0.891063 0.305731
vn -0.290022 -0.932623 0.214713
vn -0.344048 0.782125 -0.519530
vn -0.335912 0.803606 -0.491306
vn -0.359662 0.744328 -0.562689
vn 0.790671 -0.455363 -0.409248
vn 0.422362 -0.900647 -0.102207
vn 0.401706 -0.913457 -0.065034
vn -0.456641 -0.428648 -0.779577
vn -0.335611 -0.512813 -0.790182
vn -0.298983 -0.504308 -0.810113
vn 0.347482 -0.819222 0.456215
vn 0.708382 -0.343040 0.616862
vn 0.284441 -0.684360 0.671376
vn 0.531913 0.495620 -0.686607
vn 0.456057 0.638566 -0.619875
vn 0.418911 0.525881 -0.740245
vn 0.354670 -0.285749 0.890257
vn 0.401268 -0.482598 0.778513
vn 0.213767 -0.410130 0.886621
vn 0.900677 -0.321352 0.292427
vn 0.790671 -0.455363 -0.409248
vn 0.777296 -0.030458 -0.628397
vn 0.587334 0.186705 -0.787515
vn 0.640604 0.247325 -0.726950
vn 0.553239 0.267360 -0.788952
vn 0.393212 0.354369 -0.848415
vn 0.218174 0.573993 -0.789260
vn 0.330461 0.617802 -0.713524
vn 0.755112 0.408640 0.512659
vn 0.534270 0.782894 0.318799
vn 0.421787 0.850114 0.315280
vn -0.335611 -0.512813 -0.790182
vn -0.270785 -0.616182 -0.739591
vn -0.298983 -0.504308 -0.810113
vn 0.694738 -0.662453 0.280170
vn 0.632928 -0.081271 0.769933
vn 0.674775 -0.137093 0.725179
vn 0.573345 -0.308528 0.759003
vn 0.520978 -0.313643 0.793858
vn 0.596622 -0.237678 0.766519
vn -0.473122 0.404080 -0.782863
vn -0.293572 0.943803 -0.151830
vn -0.222936 0.868321 -0.443079
vn -0.216330 0.973477 -0.074457
vn -0.291657 -0.615479 0.732204
vn -0.179577 -0.793584 0.581357
vn -0.218470 -0.759125 0.613188
vn 0.333470 0.710062 -0.620169
vn -0.006834 0.862461 -0.506078
vn 0.364197 0.588220 -0.722051
vn -0.034697 0.906503 -0.420772
vn 0.364197 0.588220 -0.722051
vn 0.062791 0.814098 -0.577323
vn 0.857431 0.240139 0.455132
vn 0.866997 0.210977 -0.451448
vn 0.847970 0.509214 -0.147135
vn -0.083845 0.942744 0.322806
vn -0.126596 0.870702 0.475239
vn -0.186067 0.978067 0.093621
vn -0.770890 -0.622106 0.136793
vn -0.758755 -0.617614 -0.206986
vn -0.840584 -0.295532 -0.453960
vn 0.437739 -0.468813 -0.767202
vn 0.651802 -0.020693 -0.758107
vn 0.599553 -0.381051 -0.703802
vn 0.695847 -0.540656 -0.472744
vn 0.773287 -0.504241 -0.384405
vn 0.944215 -0.211756 -0.252225
vn 0.376421 -0.812643 -0.444880
vn 0.343886 -0.773858 -0.531870
vn -0.029387 -0.939620 -0.340956
vn -0.407558 0.903033 -0.135746
vn -0.322759 0.940922 -0.102431
vn -0.186067 0.978067 0.093621
vn 0.284441 -0.684360 0.671376
vn -0.071900 -0.996485 -0.042988
vn 0.118232 -0.976166 -0.181993
vn 0.534270 0.782894 0.318799
vn 0.282883 0.959147 0.003785
vn 0.421787 0.850114 0.315280
vn -0.250397 0.210676 -0.944943
vn -0.195970 0.287494 -0.937520
vn -0.240978 0.068679 -0.968098
vn -0.854152 -0.007523 -0.519969
vn -0.761459 0.266193 -0.591034
vn -0.925192 0.113399 -0.362162
vn 0.282883 0.959147 0.003785
vn 0.243613 0.968696 0.047758
vn 0.421787 0.850114 0.315280
vn -0.006834 0.862461 -0.506078
vn -0.371345 0.805563 -0.461705
vn -0.328036 0.929694 -0.167513
vn -0.387799 0.639745 -0.663580
vn -0.442163 0.645057 -0.623212
vn -0.393238 0.603256 -0.693863
vn -0.327205 -0.595045 -0.734070
vn -0.298983 -0.504308 -0.810113
vn -0.163764 -0.645114 -0.746330
vn -0.034697 0.906503 -0.420772
vn 0.307564 0.680577 -0.664995
vn 0.364197 0.588220 -0.722051
vn -0.068193 -0.983661 0.166618
vn 0.032036 -0.924012 0.381018
vn 0.164022 -0.985384 -0.045994
vn -0.218470 -0.759125 0.613188
vn 0.032036 -0.924012 0.381018
vn -0.068193 -0.983661 0.166618
vn 0.426338 0.669802 -0.607949
vn 0.403060 0.769897 -0.494774
vn 0.333470 0.710062 -0.620169
vn -0.940199 -0.013355 -0.340365
vn -0.560225 -0.446512 -0.697693
vn -0.739327 -0.182158 -0.648239
vn -0.456641 -0.428648 -0.779577
vn -0.298983 -0.504308 -0.810113
vn -0.793571 -0.403994 -0.455011
vn 0.092037 -0.970889 -0.221141
vn -0.012865 -0.994373 0.105155
vn 0.024840 -0.997282 -0.069361
vn -0.998428 0.018857 0.052784
vn -0.998428 0.018857 0.052784
vn -0.998428 0.018857 0.052784
vn -0.077893 0.572671 0.816077
vn -0.077893 0.572671 0.816077
vn -0.077893 0.572671 0.816077
s off
g pasted__Small_rock_3 SmallRock3
usemtl pasted__Small_3SG
f 30/53/1 27/35/2 29/40/3
f 26/33/4 13/18/5 1/1/6
f 15/19/7 12/15/8 16/20/9
f 14/17/10 6/36/11 17/21/12
f 3/3/13 31/44/14 29/40/15
f 20/48/16 4/4/17 29/39/18
f 5/5/19 8/52/20 12/15/21
s 1
f 11/10/22 17/21/23 25/47/24
f 25/47/24 17/21/23 7/7/25
s off
f 12/15/26 15/19/27 2/2/28
f 26/33/29 7/31/30 19/24/31
f 1/1/32 21/51/33 27/49/34
f 26/33/35 11/14/36 25/32/37
f 30/43/38 4/4/39 2/2/40
f 19/24/41 6/6/42 26/33/43
f 16/20/44 12/15/45 8/52/46
f 24/30/47 31/44/48 3/3/49
f 17/21/50 19/29/51 7/7/52
f 20/25/53 31/44/54 10/38/55
f 22/54/56 11/14/57 8/52/58
f 24/30/59 14/17/60 17/21/61
f 8/52/62 11/14/63 26/33/64
f 19/29/65 17/21/66 28/37/67
f 28/37/68 17/21/69 6/36/70
f 6/36/71 14/17/72 23/28/73
f 6/6/74 23/46/75 26/33/76
f 31/44/77 9/11/78 10/38/79
f 7/31/80 26/33/81 25/32/82
f 8/52/83 26/33/84 16/20/85
s 2
f 30/43/86 2/13/87 27/35/88
f 27/35/88 2/13/87 15/19/89
s off
f 10/12/90 18/23/91 12/15/92
f 3/3/93 21/26/94 14/17/95
f 1/41/96 14/17/97 21/26/98
f 19/24/99 28/42/100 6/6/101
f 26/33/102 1/1/103 15/19/104
f 10/12/105 12/15/106 4/4/107
f 9/11/108 24/30/109 17/21/110
f 22/27/111 17/21/112 11/10/113
f 17/21/114 22/27/115 9/11/116
f 1/1/117 27/49/118 15/19/119
f 8/9/120 9/11/121 22/27/122
f 23/46/123 14/45/124 26/33/125
f 31/44/126 24/30/127 9/11/128
f 30/43/129 29/39/130 4/4/131
f 14/45/132 13/18/133 26/33/134
f 21/51/135 3/50/136 27/49/137
f 3/3/138 29/40/139 27/35/140
f 18/22/141 10/38/142 9/11/143
f 1/41/144 13/16/145 14/17/146
f 5/8/147 18/22/148 9/11/149
f 12/15/150 18/23/151 5/5/152
f 14/17/153 24/30/154 3/3/155
f 29/39/156 31/34/157 20/48/158
f 20/25/159 10/38/160 4/55/161
f 9/11/162 8/9/163 5/8/164
f 2/2/165 4/4/166 12/15/167
f 15/19/168 16/20/169 26/33/170
