# This file uses centimeters as units for non-parametric coordinates.

mtllib SmallRock1.mtl
g default
v 0.314907 -0.390126 0.044385
v 0.558323 0.131537 -0.010160
v -0.376995 -0.028667 -0.326477
v -0.558325 -0.124533 0.120788
v -0.158294 0.117332 0.409465
v -0.471105 -0.200372 -0.052695
v -0.492960 -0.163786 -0.155032
v 0.325175 0.193181 -0.166534
v 0.475310 0.133837 -0.095146
v 0.513380 -0.049066 0.068935
v -0.321779 0.172961 0.240727
v -0.407812 0.147557 0.044901
v 0.388964 0.215965 0.285864
v -0.147287 -0.039521 0.414620
v 0.105324 -0.227557 -0.328196
v -0.426954 -0.148237 0.315758
v -0.504020 -0.007965 0.245858
v -0.020965 0.101770 -0.403387
v 0.104487 0.157401 -0.338588
v -0.258859 -0.180100 0.406457
v -0.165880 -0.235843 0.376914
v -0.172909 -0.103744 0.407436
v -0.193271 -0.006348 -0.414619
v -0.262922 -0.032751 -0.406618
v 0.406771 -0.115671 0.218917
v 0.125435 0.390126 0.048680
vt 0.958709 0.964763
vt 0.781236 0.772956
vt 0.776323 0.497654
vt 0.186539 0.434066
vt 0.796441 0.006270
vt 0.562635 0.221899
vt 0.687947 0.970592
vt 0.817801 0.950001
vt 0.136490 0.086939
vt 0.900314 0.976448
vt 0.759756 0.303411
vt 0.680544 0.355128
vt 0.437251 0.486966
vt 0.154545 0.391252
vt 0.099697 0.287776
vt 0.335067 0.566393
vt 0.227377 0.535010
vt 0.464854 0.546511
vt 0.489887 0.567582
vt 0.144931 0.188166
vt 0.413210 0.530196
vt 0.000000 0.488509
vt 0.138707 0.221423
vt 0.521989 0.636892
vt 0.431391 0.717780
vt 0.318117 0.653117
vt 0.875682 0.522356
vt 0.547611 0.643435
vt 0.489577 0.733904
vt 0.882244 0.278160
vt 0.857776 0.333114
vt 0.979438 0.787933
vt 0.436573 0.932956
vt 0.616334 1.000000
vt 0.755761 0.509078
vt 0.348245 0.787139
vt 0.251467 0.615346
vt 0.101185 0.622150
vt 0.977553 0.000000
vt 0.336248 0.139620
vt 0.656756 0.012216
vn 0.838049 0.309395 0.449386
vn 0.572951 0.812409 -0.108250
vn 0.662932 0.696066 0.275704
vn 0.102239 -0.894321 -0.435589
vn 0.143559 -0.784042 -0.603878
vn 0.087787 -0.965482 -0.245231
vn 0.495762 0.501303 -0.709165
vn 0.383091 0.630302 -0.675249
vn 0.542081 0.242935 -0.804445
vn 0.542081 0.242935 -0.804445
vn 0.383091 0.630302 -0.675249
vn 0.511610 0.290396 -0.808657
vn 0.647894 -0.759147 -0.062680
vn 0.564400 -0.675810 0.474061
vn 0.656118 -0.745174 0.119271
vn 0.076409 -0.774578 0.627846
vn 0.323514 -0.566997 0.757531
vn 0.342167 -0.514680 0.786146
vn -0.268136 -0.700196 -0.661686
vn -0.206512 -0.929469 -0.305679
vn -0.507879 -0.675349 -0.534755
vn -0.139029 0.394346 -0.908384
vn -0.332397 0.599768 -0.727867
vn -0.321408 0.602183 -0.730803
vn 0.353193 0.743238 -0.568201
vn 0.040499 0.893907 -0.446418
vn 0.383091 0.630302 -0.675249
vn -0.559070 -0.745576 0.362708
vn -0.653579 -0.526703 0.543524
vn -0.442184 -0.809521 0.386199
vn 0.558025 0.180093 -0.810046
vn 0.542081 0.242935 -0.804445
vn 0.511610 0.290396 -0.808657
vn 0.300261 -0.492248 0.817028
vn 0.437435 -0.238793 0.866965
vn 0.110771 -0.336255 0.935234
vn 0.437435 -0.238793 0.866965
vn 0.282732 0.022224 0.958941
vn 0.110771 -0.336255 0.935234
vn -0.139029 0.394346 -0.908384
vn -0.234349 0.424584 -0.874534
vn -0.332397 0.599768 -0.727867
vn -0.190871 -0.897167 0.398321
vn -0.108495 -0.942534 0.316003
vn 0.076409 -0.774578 0.627846
vn -0.338633 -0.721411 0.604065
vn -0.369330 -0.748935 0.550175
vn -0.442184 -0.809521 0.386199
vn 0.437441 0.550577 -0.710992
vn 0.070923 0.539461 -0.839018
vn 0.051804 0.706887 -0.705427
vn -0.487530 0.421484 -0.764634
vn -0.589919 0.476771 -0.651678
vn -0.294306 0.660333 -0.690901
vn -0.335540 -0.723671 -0.603086
vn -0.464764 -0.030588 -0.884906
vn -0.135448 -0.353893 -0.925426
vn -0.234349 0.424584 -0.874534
vn -0.139029 0.394346 -0.908384
vn -0.135448 -0.353893 -0.925426
vn -0.371268 0.253855 0.893151
vn -0.040452 0.651865 0.757256
vn 0.198844 0.303362 0.931897
vn -0.076805 0.995236 0.060058
vn -0.198760 0.974718 0.102074
vn -0.048046 0.936399 0.347632
vn 0.558025 0.180093 -0.810046
vn 0.511610 0.290396 -0.808657
vn 0.999872 -0.000850 0.016000
vn 0.830335 -0.011963 0.557137
vn 0.620926 -0.220443 0.752234
vn 0.793631 0.066554 0.604748
vn 0.635731 -0.025229 0.771498
vn 0.384139 -0.164674 0.908471
vn 0.437435 -0.238793 0.866965
vn 0.950108 0.297261 -0.094505
vn 0.999872 -0.000850 0.016000
vn 0.511610 0.290396 -0.808657
vn 0.838049 0.309395 0.449386
vn 0.830335 -0.011963 0.557137
vn 0.817180 0.047351 0.574434
vn -0.369330 -0.748935 0.550175
vn -0.559070 -0.745576 0.362708
vn -0.442184 -0.809521 0.386199
vn 0.511610 0.290396 -0.808657
vn 0.383091 0.630302 -0.675249
vn 0.413966 0.544694 -0.729343
vn 0.413966 0.544694 -0.729343
vn 0.383091 0.630302 -0.675249
vn 0.572951 0.812409 -0.108250
vn 0.110771 -0.336255 0.935234
vn 0.079798 -0.680334 0.728545
vn -0.329613 -0.147853 0.932467
vn -0.259971 0.895322 -0.361681
vn -0.270868 0.945724 -0.179544
vn -0.249001 0.960983 -0.120461
vn -0.135448 -0.353893 -0.925426
vn -0.464764 -0.030588 -0.884906
vn -0.234349 0.424584 -0.874534
vn -0.464764 -0.030588 -0.884906
vn -0.332397 0.599768 -0.727867
vn -0.234349 0.424584 -0.874534
vn -0.511941 0.534725 0.672298
vn -0.511941 0.534725 0.672298
vn -0.511941 0.534725 0.672298
vn -0.471587 0.171899 0.864903
vn -0.471587 0.171899 0.864903
vn -0.471587 0.171899 0.864903
vn -0.335827 0.007395 0.941895
vn -0.335827 0.007395 0.941895
vn -0.335827 0.007395 0.941895
vn -0.344292 0.032392 0.938304
vn -0.344292 0.032392 0.938304
vn -0.344292 0.032392 0.938304
vn -0.372288 0.408381 0.833443
vn -0.372288 0.408381 0.833443
vn -0.372288 0.408381 0.833443
vn -0.825003 -0.187631 0.533071
vn -0.825003 -0.187631 0.533071
vn -0.825003 -0.187631 0.533071
vn -0.880253 0.471086 -0.056855
vn -0.880253 0.471086 -0.056855
vn -0.880253 0.471086 -0.056855
vn -0.079933 0.921072 0.381100
vn -0.079933 0.921072 0.381100
vn -0.079933 0.921072 0.381100
vn 0.725068 -0.380615 -0.573942
vn 0.725068 -0.380615 -0.573942
vn 0.725068 -0.380615 -0.573942
vn -0.796589 0.293196 -0.528660
vn -0.796589 0.293196 -0.528660
vn -0.796589 0.293196 -0.528660
vn -0.963855 0.106897 0.244043
vn -0.963855 0.106897 0.244043
vn -0.963855 0.106897 0.244043
vn -0.872208 0.409906 -0.266890
vn -0.872208 0.409906 -0.266890
vn -0.872208 0.409906 -0.266890
vn -0.273393 -0.656912 -0.702654
vn -0.273393 -0.656912 -0.702654
vn -0.273393 -0.656912 -0.702654
vn -0.685714 0.696655 0.210875
vn -0.685714 0.696655 0.210875
vn -0.685714 0.696655 0.210875
s off
g SmallRock1:pasted__Small_rock_1SmallRock1
usemtl SmallRock1:pasted__Small_1SG
f 2/1/1 26/2/2 13/32/3
f 6/4/4 15/40/5 1/6/6
f 19/7/7 8/8/8 18/34/9
f 18/34/10 8/8/11 9/10/12
f 10/11/13 25/12/14 1/6/15
f 21/13/16 1/6/17 25/12/18
f 15/40/19 6/4/20 7/14/21
f 18/34/22 3/33/23 26/2/24
f 19/7/25 26/2/26 8/8/27
f 16/16/28 4/17/29 6/4/30
f 15/5/31 18/39/32 9/30/33
f 21/13/34 25/12/35 22/18/36
f 25/12/37 14/19/38 22/18/39
f 18/9/40 23/20/41 3/15/42
f 6/4/43 1/6/44 21/13/45
f 21/13/46 20/21/47 6/4/48
f 19/7/49 18/34/50 26/2/51
f 3/33/52 12/29/53 26/2/54
f 3/15/55 24/23/56 15/40/57
f 23/20/58 18/9/59 15/40/60
f 13/3/61 5/24/62 14/19/63
f 26/2/64 11/35/65 13/32/66
f 15/5/67 9/30/68 10/11/69
f 13/3/70 25/12/71 10/11/72
f 13/3/73 14/19/74 25/12/75
f 2/31/76 10/11/77 9/30/78
f 2/31/79 13/3/80 10/11/81
f 20/21/82 16/16/83 6/4/84
f 9/10/85 8/8/86 2/1/87
f 2/1/88 8/8/89 26/2/90
f 22/18/91 20/21/92 21/13/93
f 26/2/94 12/29/95 11/28/96
f 15/40/97 24/23/98 23/20/99
f 24/23/100 3/15/101 23/20/102
f 11/25/103 17/26/104 5/24/105
f 17/26/106 16/16/107 5/24/108
f 5/24/109 16/16/110 14/19/111
f 14/19/112 16/16/113 22/18/114
f 22/18/115 16/16/116 20/21/117
f 16/16/118 17/37/119 4/17/120
f 4/17/121 17/37/122 12/38/123
f 13/32/124 11/35/125 5/27/126
f 1/6/127 15/41/128 10/11/129
f 6/4/130 4/17/131 12/38/132
f 6/4/133 12/22/134 7/14/135
f 12/22/136 3/15/137 7/14/138
f 7/14/139 3/15/140 15/40/141
f 12/36/142 17/26/143 11/25/144
