# This file uses centimeters as units for non-parametric coordinates.

mtllib SmallRock3.mtl
g default
v 0.041057 0.472445 -0.123038
v -0.664282 0.212477 -0.053461
v -0.166448 0.338102 -0.327881
v -0.674954 -0.242348 -0.092839
v -0.177980 -0.440656 0.087309
v 0.596072 0.240650 -0.079928
v 0.552722 -0.209736 0.154972
v 0.087313 -0.460543 0.207330
v 0.018064 -0.219532 -0.430054
v -0.636542 -0.362816 -0.101925
v 0.333824 -0.352327 0.117094
v -0.657228 -0.223058 0.235561
v 0.196763 0.493203 -0.066317
v 0.328938 0.328658 -0.140679
v -0.579747 0.243170 0.183937
v -0.246345 -0.187987 0.518318
v 0.483000 -0.196131 -0.202034
v -0.419811 -0.493203 -0.064892
v 0.636245 -0.139715 0.003017
v -0.681970 -0.111428 -0.233853
v -0.101792 0.406297 -0.227558
v 0.275139 -0.398406 -0.010166
v 0.540236 0.327116 -0.024925
v -0.090060 0.186858 -0.518317
v 0.465882 -0.226218 0.131633
v 0.407014 0.263635 0.263759
v -0.503152 0.298692 -0.141360
v 0.681969 -0.040346 -0.029160
v -0.612156 0.108238 -0.247149
v -0.673430 0.250643 -0.147293
v -0.562477 0.013398 -0.442477
vt 0.699266 0.000090
vt 0.415013 0.555398
vt 1.000000 0.379053
vt 0.076107 0.786084
vt 0.211061 0.660050
vt 0.277374 0.671428
vt 0.556235 0.042672
vt 0.610958 0.213087
vt 0.432584 0.277928
vt 0.128670 0.621882
vt 0.000000 0.641881
vt 0.603631 0.736451
vt 0.275125 0.489332
vt 0.952432 0.455239
vt 0.909782 0.352766
vt 0.729877 0.200981
vt 0.597773 0.418356
vt 0.503836 0.492984
vt 0.147767 0.341070
vt 0.102663 0.282677
vt 0.455304 0.720560
vt 0.533068 0.836731
vt 0.775172 0.086906
vt 0.246256 0.535886
vt 0.905333 0.664476
vt 0.739102 0.253529
vt 0.552152 0.603907
vt 0.807022 0.119713
vt 0.043735 0.665288
vt 0.751815 0.593463
vt 0.704571 0.355698
vt 0.456275 0.904153
vt 0.157860 0.084474
vt 0.254446 0.389487
vt 0.783820 0.867225
vt 0.460765 0.391772
vt 0.675776 0.910343
vt 0.665466 0.023993
vt 0.486005 0.553983
vt 0.478012 0.480164
vt 0.484866 0.770841
vt 0.550129 0.799503
vt 0.495290 0.616779
vt 0.002684 0.232273
vt 0.000000 0.074711
vt 0.068796 0.268273
vt 0.473775 0.688677
vt 0.799677 0.308809
vt 0.777137 0.140157
vt 0.760279 0.046811
vt 0.250898 0.390407
vt 0.187290 0.583352
vt 0.067182 0.532818
vt 0.257718 0.612149
vt 0.813431 0.239123
vt 0.834317 0.000000
vt 0.505957 0.778085
vt 0.925958 0.089210
vn -0.372918 0.437848 -0.818059
vn -0.222936 0.868321 -0.443079
vn -0.361317 0.608682 -0.706368
vn 0.340826 0.885370 0.316162
vn 0.332361 0.940480 -0.070953
vn 0.151276 0.945844 0.287220
vn -0.744607 -0.171022 0.645222
vn -0.746123 -0.336948 0.574253
vn -0.776487 0.058784 0.627385
vn 0.218174 0.573993 -0.789260
vn 0.393212 0.354369 -0.848415
vn 0.305043 0.384090 -0.871449
vn -0.359662 0.744328 -0.562689
vn -0.335912 0.803606 -0.491306
vn -0.418783 0.739586 -0.526910
vn -0.739327 -0.182158 -0.648239
vn -0.925192 0.113399 -0.362162
vn -0.940199 -0.013355 -0.340365
vn -0.277094 -0.880094 0.385556
vn 0.010718 -0.791959 0.610480
vn -0.343637 -0.873136 0.345755
vn 0.818372 -0.568680 0.082888
vn 0.691435 -0.716372 -0.093428
vn 0.510998 -0.588791 0.626264
vn 0.510998 -0.588791 0.626264
vn 0.691435 -0.716372 -0.093428
vn 0.694738 -0.662453 0.280170
vn -0.832110 -0.430122 0.350126
vn -0.790303 0.173724 0.587572
vn -0.868171 0.187021 0.459676
vn 0.632928 -0.081271 0.769933
vn 0.672208 -0.302900 0.675564
vn 0.725932 0.036104 0.686819
vn -0.407558 0.903033 -0.135746
vn -0.372654 0.899891 -0.226550
vn -0.328036 0.929694 -0.167513
vn 0.213767 -0.410130 0.886621
vn 0.401268 -0.482598 0.778513
vn 0.510998 -0.588791 0.626264
vn -0.854152 -0.007523 -0.519969
vn -0.743287 -0.010421 -0.668892
vn -0.830156 -0.016769 -0.557279
vn 0.857431 0.240139 0.455132
vn 0.799006 0.176934 0.574703
vn 0.759504 0.114470 0.640352
vn -0.221182 -0.967685 0.121098
vn -0.335463 -0.891063 0.305731
vn -0.290022 -0.932623 0.214713
vn -0.344048 0.782125 -0.519530
vn -0.335912 0.803606 -0.491306
vn -0.359662 0.744328 -0.562689
vn 0.790671 -0.455363 -0.409248
vn 0.422362 -0.900647 -0.102207
vn 0.401706 -0.913457 -0.065034
vn -0.456641 -0.428648 -0.779577
vn -0.335611 -0.512813 -0.790182
vn -0.298983 -0.504308 -0.810113
vn 0.347482 -0.819222 0.456215
vn 0.708382 -0.343040 0.616862
vn 0.284441 -0.684360 0.671376
vn 0.531913 0.495620 -0.686607
vn 0.456057 0.638566 -0.619875
vn 0.418911 0.525881 -0.740245
vn 0.354670 -0.285749 0.890257
vn 0.401268 -0.482598 0.778513
vn 0.213767 -0.410130 0.886621
vn 0.900677 -0.321352 0.292427
vn 0.790671 -0.455363 -0.409248
vn 0.777296 -0.030458 -0.628397
vn 0.587334 0.186705 -0.787515
vn 0.640604 0.247325 -0.726950
vn 0.553239 0.267360 -0.788952
vn 0.393212 0.354369 -0.848415
vn 0.218174 0.573993 -0.789260
vn 0.330461 0.617802 -0.713524
vn 0.755112 0.408640 0.512659
vn 0.534270 0.782894 0.318799
vn 0.421787 0.850114 0.315280
vn -0.335611 -0.512813 -0.790182
vn -0.270785 -0.616182 -0.739591
vn -0.298983 -0.504308 -0.810113
vn 0.694738 -0.662453 0.280170
vn 0.632928 -0.081271 0.769933
vn 0.674775 -0.137093 0.725179
vn 0.573345 -0.308528 0.759003
vn 0.520978 -0.313643 0.793858
vn 0.596622 -0.237678 0.766519
vn -0.473122 0.404080 -0.782863
vn -0.293572 0.943803 -0.151830
vn -0.222936 0.868321 -0.443079
vn -0.222936 0.868321 -0.443079
vn -0.293572 0.943803 -0.151830
vn -0.216330 0.973477 -0.074457
vn -0.291657 -0.615479 0.732204
vn -0.179577 -0.793584 0.581357
vn -0.218470 -0.759125 0.613188
vn 0.333470 0.710062 -0.620169
vn -0.006834 0.862461 -0.506078
vn 0.364197 0.588220 -0.722051
vn -0.034697 0.906503 -0.420772
vn 0.364197 0.588220 -0.722051
vn 0.062791 0.814098 -0.577323
vn 0.857431 0.240139 0.455132
vn 0.866997 0.210977 -0.451448
vn 0.847970 0.509214 -0.147135
vn -0.083845 0.942744 0.322806
vn -0.126596 0.870702 0.475239
vn -0.186067 0.978067 0.093621
vn -0.770890 -0.622106 0.136793
vn -0.758755 -0.617614 -0.206986
vn -0.840584 -0.295532 -0.453960
vn 0.437739 -0.468813 -0.767202
vn 0.651802 -0.020693 -0.758107
vn 0.599553 -0.381051 -0.703802
vn 0.695847 -0.540656 -0.472744
vn 0.773287 -0.504241 -0.384405
vn 0.944215 -0.211756 -0.252225
vn 0.376421 -0.812643 -0.444880
vn 0.343886 -0.773858 -0.531870
vn -0.029387 -0.939620 -0.340956
vn -0.407558 0.903033 -0.135746
vn -0.322759 0.940922 -0.102431
vn -0.186067 0.978067 0.093621
vn 0.284441 -0.684360 0.671376
vn -0.071900 -0.996485 -0.042988
vn 0.118232 -0.976166 -0.181993
vn 0.534270 0.782894 0.318799
vn 0.282883 0.959147 0.003785
vn 0.421787 0.850114 0.315280
vn -0.250397 0.210676 -0.944943
vn -0.195970 0.287494 -0.937520
vn -0.240978 0.068679 -0.968098
vn -0.854152 -0.007523 -0.519969
vn -0.761459 0.266193 -0.591034
vn -0.925192 0.113399 -0.362162
vn 0.282883 0.959147 0.003785
vn 0.243613 0.968696 0.047758
vn 0.421787 0.850114 0.315280
vn -0.006834 0.862461 -0.506078
vn -0.371345 0.805563 -0.461705
vn -0.328036 0.929694 -0.167513
vn -0.387799 0.639745 -0.663580
vn -0.442163 0.645057 -0.623212
vn -0.393238 0.603256 -0.693863
vn -0.327205 -0.595045 -0.734070
vn -0.298983 -0.504308 -0.810113
vn -0.163764 -0.645114 -0.746330
vn -0.034697 0.906503 -0.420772
vn 0.307564 0.680577 -0.664995
vn 0.364197 0.588220 -0.722051
vn -0.068193 -0.983661 0.166618
vn 0.032036 -0.924012 0.381018
vn 0.164022 -0.985384 -0.045994
vn -0.218470 -0.759125 0.613188
vn 0.032036 -0.924012 0.381018
vn -0.068193 -0.983661 0.166618
vn 0.426338 0.669802 -0.607949
vn 0.403060 0.769897 -0.494774
vn 0.333470 0.710062 -0.620169
vn -0.940199 -0.013355 -0.340365
vn -0.560225 -0.446512 -0.697693
vn -0.739327 -0.182158 -0.648239
vn -0.456641 -0.428648 -0.779577
vn -0.298983 -0.504308 -0.810113
vn -0.793571 -0.403994 -0.455011
vn 0.092037 -0.970889 -0.221141
vn -0.012865 -0.994373 0.105155
vn 0.024840 -0.997282 -0.069361
vn -0.998428 0.018857 0.052784
vn -0.998428 0.018857 0.052784
vn -0.998428 0.018857 0.052784
vn -0.077893 0.572671 0.816077
vn -0.077893 0.572671 0.816077
vn -0.077893 0.572671 0.816077
s off
g SmallRock3:pasted__Small_rock_3SmallRock3
usemtl SmallRock3:pasted__Small_3SG
f 30/39/1 27/2/2 29/40/3
f 26/4/4 13/5/5 1/6/6
f 15/7/7 12/8/8 16/9/9
f 14/35/10 6/37/11 17/12/12
f 3/13/13 31/36/14 29/40/15
f 20/49/16 4/16/17 29/50/18
f 5/17/19 8/18/20 12/8/21
f 11/43/22 17/12/23 25/47/24
f 25/47/25 17/12/26 7/21/27
f 12/8/28 15/7/29 2/38/30
f 26/33/31 7/46/32 19/44/33
f 1/52/34 21/24/35 27/2/36
f 26/33/37 11/19/38 25/20/39
f 30/1/40 4/16/41 2/38/42
f 19/44/43 6/45/44 26/33/45
f 16/9/46 12/8/47 8/18/48
f 24/34/49 31/36/50 3/13/51
f 17/12/52 19/57/53 7/21/54
f 20/15/55 31/14/56 10/48/57
f 22/27/58 11/43/59 8/18/60
f 24/25/61 14/35/62 17/12/63
f 8/51/64 11/19/65 26/33/66
f 19/23/67 17/56/68 28/28/69
f 28/28/70 17/58/71 6/55/72
f 6/11/73 14/10/74 23/29/75
f 6/11/76 23/29/77 26/4/78
f 31/14/79 9/30/80 10/48/81
f 7/46/82 26/33/83 25/20/84
f 8/51/85 26/33/86 16/9/87
f 30/42/88 2/22/89 27/41/90
f 27/41/91 2/22/92 15/32/93
f 10/26/94 18/31/95 12/8/96
f 3/13/97 21/24/98 14/53/99
f 1/52/100 14/53/101 21/24/102
f 19/23/103 28/28/104 6/55/105
f 26/4/106 1/6/107 15/32/108
f 10/26/109 12/8/110 4/16/111
f 9/30/112 24/25/113 17/12/114
f 22/27/115 17/12/116 11/43/117
f 17/12/118 22/27/119 9/30/120
f 1/6/121 27/41/122 15/32/123
f 8/18/124 9/30/125 22/27/126
f 23/29/127 14/10/128 26/4/129
f 31/14/130 24/25/131 9/30/132
f 30/1/133 29/50/134 4/16/135
f 14/10/136 13/5/137 26/4/138
f 21/24/139 3/13/140 27/2/141
f 3/13/142 29/40/143 27/2/144
f 18/31/145 10/48/146 9/30/147
f 1/54/148 13/5/149 14/10/150
f 5/17/151 18/31/152 9/30/153
f 12/8/154 18/31/155 5/17/156
f 14/53/157 24/34/158 3/13/159
f 29/3/160 31/14/161 20/15/162
f 20/49/163 10/26/164 4/16/165
f 9/30/166 8/18/167 5/17/168
f 2/38/169 4/16/170 12/8/171
f 15/7/172 16/9/173 26/33/174
