# This file uses centimeters as units for non-parametric coordinates.

mtllib SmallRock4.mtl
g default
v -0.575142 -0.264355 -0.099123
v 0.380404 -0.388211 -0.067331
v 0.484924 -0.323506 -0.148788
v 0.134379 -0.460389 -0.010513
v 0.142102 0.447378 -0.190551
v 0.241082 0.468534 0.134952
v -0.383581 0.299070 -0.230580
v -0.629953 0.240354 -0.007723
v -0.647915 -0.177117 0.011141
v 0.652853 0.162148 -0.109244
v 0.483660 -0.298616 -0.213986
v 0.270636 -0.427006 -0.024091
v 0.129120 0.398974 0.294353
v -0.730454 -0.064761 0.054359
v -0.193286 -0.269123 0.391200
v 0.326899 0.482988 -0.025650
v 0.444936 0.176256 0.241964
v -0.294563 0.058488 -0.494310
v -0.009012 0.381081 -0.329496
v -0.196516 0.397063 0.265344
v -0.536796 0.281702 -0.097622
v 0.576964 -0.297936 0.025470
v -0.702024 0.048863 0.069765
v -0.060480 0.387876 0.332904
v 0.595026 -0.195984 -0.229410
v -0.096632 0.049617 0.494310
v 0.025696 0.359391 0.375978
v 0.464545 0.330738 -0.142460
v -0.325793 -0.412768 -0.045697
v 0.730454 0.009110 -0.126415
v -0.529761 0.307439 0.063461
v -0.594921 -0.187161 -0.179972
v 0.710419 -0.148125 -0.161623
v -0.119987 -0.481844 -0.044102
vt 0.349900 0.288400
vt 0.799800 0.632600
vt 0.770100 0.633400
vt 0.414800 0.254000
vt 0.267300 0.398800
vt 0.454200 0.471400
vt 0.767100 0.455000
vt 0.804300 0.454800
vt 0.979600 0.381100
vt 0.988500 0.466400
vt 0.711400 0.539400
vt 0.295400 0.468400
vt 0.266500 0.423600
vt 0.855800 0.414400
vt 0.849400 0.632400
vt 0.898600 0.627200
vt 0.393800 0.253700
vt 0.893800 0.548900
vt 0.733500 0.461500
vt 0.775300 0.515900
vt 0.403600 0.369000
vt 0.450300 0.432800
vt 0.892800 0.437800
vt 0.997700 0.529300
vt 0.452800 0.299800
vt 0.445100 0.276800
vt 0.772400 0.601400
vt 0.991800 0.505300
vt 0.823300 0.631600
vt 0.881100 0.435200
vt 0.896900 0.340100
vt 0.737300 0.627900
vt 0.868900 0.500300
vt 0.864000 0.436300
vt 0.311200 0.495400
vt 0.710600 0.494700
vt 0.305100 0.322500
vt 0.714900 0.572400
vt 0.988400 0.555700
vt 0.370200 0.535300
vt 0.937000 0.612000
vt 0.998300 0.435100
vt 0.974200 0.436100
vt 0.411800 0.516100
vt 0.367600 0.295900
vt 0.906800 0.435800
vt 0.727900 0.604800
vt 0.283500 0.354700
vt 0.340300 0.535600
vt 0.456600 0.340600
vt 0.861900 0.441500
vt 0.836600 0.452500
vt 0.852900 0.379600
vt 0.315100 0.522000
vt 0.854900 0.347500
vt 0.984900 0.583900
vt 0.271600 0.444400
vt 0.283900 0.466000
vt 0.932600 0.333500
vt 0.990100 0.413700
vt 0.760800 0.640700
vt 0.966200 0.456200
vn -0.803343 0.152988 -0.575530
vn -0.810700 0.173368 -0.559204
vn -0.826420 0.209272 -0.522718
vn -0.560988 0.118696 0.819270
vn -0.514246 0.221420 0.828568
vn -0.421392 0.190905 0.886557
vn 0.871567 -0.061845 0.486361
vn 0.826248 -0.548373 0.128848
vn 0.982233 -0.141302 -0.123499
vn -0.279679 -0.755966 -0.591858
vn -0.253448 -0.742616 -0.619907
vn -0.263694 -0.709998 -0.652968
vn -0.643796 0.143929 0.751539
vn -0.662689 0.085649 0.743981
vn -0.637236 0.168624 0.751995
vn 0.521992 0.108957 -0.845963
vn 0.473044 0.237951 -0.848298
vn 0.525610 0.249941 -0.813181
vn 0.434264 0.704350 0.561522
vn 0.212310 0.815508 0.538397
vn 0.429324 0.644122 0.633078
vn 0.363190 0.223329 0.904554
vn 0.366869 0.455808 0.810954
vn 0.296653 0.389942 0.871747
vn 0.473044 0.237951 -0.848298
vn 0.506295 0.263976 -0.820964
vn 0.525610 0.249941 -0.813181
vn 0.676142 0.730392 0.096743
vn 0.682483 0.705971 -0.189266
vn 0.737531 0.674617 0.030663
vn -0.028260 0.438986 0.898049
vn -0.293108 0.479348 0.827232
vn -0.062860 0.366275 0.928381
vn 0.357395 -0.312658 -0.880065
vn 0.401217 -0.280679 -0.871920
vn 0.389006 -0.242517 -0.888741
vn -0.337773 -0.940652 0.032902
vn -0.314408 -0.794458 0.519600
vn -0.337096 -0.852418 0.399687
vn -0.211953 0.955656 -0.204444
vn 0.121235 0.854150 -0.505698
vn -0.151610 0.894796 -0.419945
vn 0.800262 0.021094 0.599279
vn 0.788150 0.078197 0.610496
vn 0.744605 -0.079282 0.662780
vn -0.803343 0.152988 -0.575530
vn -0.859238 -0.076040 -0.505894
vn -0.810700 0.173368 -0.559204
vn 0.580606 -0.790123 -0.196475
vn 0.826248 -0.548373 0.128848
vn 0.619484 -0.751526 -0.226823
vn 0.434582 0.446741 -0.782024
vn 0.623373 0.550095 -0.555699
vn 0.617457 0.457031 -0.640211
vn 0.371704 0.658529 -0.654351
vn 0.475383 0.690317 -0.545411
vn 0.406344 0.621668 -0.669638
vn -0.270086 0.946819 -0.174890
vn -0.217470 0.965324 -0.144421
vn -0.341050 0.886193 -0.313604
vn -0.785797 0.529126 -0.320232
vn -0.826420 0.209272 -0.522718
vn -0.937143 0.342194 -0.068307
vn -0.212330 -0.754173 -0.621401
vn 0.098940 -0.932738 -0.346714
vn -0.108185 -0.992419 -0.058314
vn -0.494264 0.313972 0.810632
vn -0.514246 0.221420 0.828568
vn -0.578021 0.325632 0.748235
vn 0.115489 -0.842355 -0.526403
vn 0.098940 -0.932738 -0.346714
vn -0.009487 -0.758542 -0.651555
vn 0.163634 -0.864631 -0.475013
vn 0.137301 -0.871136 -0.471456
vn 0.165910 -0.932752 -0.320074
vn -0.211953 0.955656 -0.204444
vn -0.119663 0.987890 -0.098763
vn 0.089464 0.899209 -0.428274
vn 0.407153 0.155328 -0.900055
vn 0.552472 0.135773 -0.822399
vn 0.443153 0.033984 -0.895802
vn -0.274704 0.958079 -0.081381
vn -0.287241 0.944712 -0.158154
vn -0.309756 0.942144 -0.128126
vn -0.508982 0.574526 -0.640981
vn -0.681539 0.417375 -0.601084
vn -0.524942 0.756279 -0.390485
vn 0.476258 0.520737 -0.708528
vn 0.623373 0.550095 -0.555699
vn 0.434582 0.446741 -0.782024
vn -0.365499 0.481897 0.796358
vn -0.377114 0.683826 0.624634
vn -0.062860 0.366275 0.928381
vn 0.361453 -0.168478 0.917043
vn 0.394347 0.008089 0.918926
vn 0.415764 -0.031144 0.908939
vn 0.448216 -0.235804 0.862264
vn 0.362075 -0.449675 0.816514
vn 0.389227 -0.259674 0.883783
vn -0.449491 -0.010110 0.893228
vn -0.463945 0.074480 0.882728
vn -0.476561 0.246308 0.843933
vn -0.331852 0.813034 -0.478383
vn -0.254363 0.962567 -0.093619
vn -0.314813 0.852256 -0.417795
vn -0.314813 0.852256 -0.417795
vn -0.442481 0.576965 -0.686529
vn -0.331852 0.813034 -0.478383
vn 0.619484 -0.751526 -0.226823
vn 0.533396 -0.662959 -0.525332
vn 0.698090 -0.532777 -0.478350
vn 0.434264 0.704350 0.561522
vn 0.556157 0.611036 0.563315
vn 0.544617 0.698943 0.463543
vn -0.046574 -0.952006 0.302516
vn -0.159886 -0.913255 0.374702
vn 0.098940 -0.932738 -0.346714
vn 0.212310 0.815508 0.538397
vn 0.227682 0.860353 0.456020
vn -0.022148 0.957902 0.286238
vn -0.428237 -0.875131 -0.225298
vn -0.327707 -0.645566 -0.689821
vn -0.357211 -0.717849 -0.597572
vn -0.034554 0.998371 0.045408
vn 0.184596 0.934372 0.304750
vn 0.353706 0.904130 0.239667
vn 0.676142 0.730392 0.096743
vn 0.737531 0.674617 0.030663
vn 0.714881 0.674159 0.185620
vn -0.526613 0.657311 0.539093
vn -0.523896 0.369394 0.767516
vn -0.400362 0.879885 0.255954
vn -0.493995 -0.705506 0.508163
vn -0.455609 -0.889645 -0.030855
vn -0.499157 -0.851153 -0.162423
vn 0.190040 -0.891078 -0.412147
vn 0.228222 -0.870332 -0.436392
vn 0.452296 -0.829448 -0.327787
vn 0.452296 -0.829448 -0.327787
vn 0.449536 -0.747588 -0.488906
vn 0.533396 -0.662959 -0.525332
vn -0.215085 0.970529 -0.108684
vn -0.217470 0.965324 -0.144421
vn -0.270086 0.946819 -0.174890
vn -0.671761 -0.725805 0.148140
vn -0.627452 -0.735705 0.255035
vn -0.818074 -0.551328 -0.163682
vn 0.266013 0.658111 0.704363
vn 0.296653 0.389942 0.871747
vn 0.366869 0.455808 0.810954
vn 0.426106 -0.888688 0.169315
vn 0.558876 -0.819742 -0.125223
vn 0.599273 -0.781352 0.174245
vn 0.558876 -0.819742 -0.125223
vn 0.619484 -0.751526 -0.226823
vn 0.599273 -0.781352 0.174245
vn -0.832510 0.203254 -0.515379
vn -0.725703 0.314256 -0.612045
vn -0.821899 0.188280 -0.537618
vn -0.627452 -0.735705 0.255035
vn -0.757126 -0.379283 0.531888
vn -0.818799 -0.565160 -0.100813
vn -0.031757 0.933999 0.355863
vn 0.046771 0.846368 0.530540
vn 0.028928 0.925121 0.378568
vn 0.137301 -0.871136 -0.471456
vn 0.190040 -0.891078 -0.412147
vn 0.165910 -0.932752 -0.320074
vn 0.137301 -0.871136 -0.471456
vn 0.228222 -0.870332 -0.436392
vn 0.190040 -0.891078 -0.412147
vn -0.263694 -0.709998 -0.652968
vn -0.455609 -0.889645 -0.030855
vn -0.505826 -0.699547 -0.504751
vn -0.612722 0.641083 0.462152
vn -0.299859 0.953940 0.009128
vn -0.476685 0.866702 -0.146967
vn 0.354504 0.749471 -0.559125
vn 0.354504 0.749471 -0.559125
vn 0.354504 0.749471 -0.559125
vn 0.809600 0.358362 0.464892
vn 0.809600 0.358362 0.464892
vn 0.809600 0.358362 0.464892
vn -0.847271 -0.472079 -0.243461
vn -0.847271 -0.472079 -0.243461
vn -0.847271 -0.472079 -0.243461
vn -0.819128 -0.566059 -0.092770
vn -0.819128 -0.566059 -0.092770
vn -0.819128 -0.566059 -0.092770
vn -0.097251 -0.736992 -0.668869
vn -0.097251 -0.736992 -0.668869
vn -0.097251 -0.736992 -0.668869
s off
g pasted__Small_rock_4 SmallRock4
usemtl pasted__Small_4SG
f 32/45/1 23/4/2 21/25/3
f 15/18/4 31/62/5 23/28/6
f 30/38/7 22/27/8 33/47/9
f 32/45/10 11/12/11 29/37/12
f 31/62/13 15/18/14 26/33/15
f 33/54/16 25/35/17 30/49/18
f 6/7/19 13/8/20 17/20/21
f 26/33/22 17/20/23 27/52/24
f 25/35/25 19/22/26 30/49/27
f 17/20/28 10/11/29 28/36/30
f 27/52/31 24/51/32 26/33/33
f 11/12/34 18/21/35 25/35/36
f 34/16/37 15/18/38 29/41/39
f 24/30/40 5/31/41 19/59/42
f 30/38/43 17/20/44 22/27/45
f 32/45/46 14/17/47 23/4/48
f 33/47/49 22/27/50 3/3/51
f 19/22/52 10/40/53 30/49/54
f 5/6/55 28/44/56 19/22/57
f 21/60/58 20/46/59 7/9/60
f 8/26/61 21/25/62 23/4/63
f 11/12/64 4/5/65 34/48/66
f 23/28/67 31/62/68 8/10/69
f 12/13/70 4/5/71 11/12/72
f 4/15/73 12/29/74 15/18/75
f 24/30/76 16/55/77 5/31/78
f 18/21/79 19/22/80 25/35/81
f 24/30/82 19/59/83 20/46/84
f 7/50/85 18/21/86 21/60/87
f 28/44/88 10/40/89 19/22/90
f 24/51/91 20/23/92 26/33/93
f 22/27/94 17/20/95 26/33/96
f 26/33/97 15/18/98 22/27/99
f 14/24/100 15/18/101 23/28/102
f 7/9/103 20/46/104 19/59/105
f 19/22/106 18/21/107 7/50/108
f 3/3/109 25/32/110 33/47/111
f 6/7/112 17/20/113 16/19/114
f 15/18/115 34/16/116 4/15/117
f 13/14/118 6/53/119 24/30/120
f 29/37/121 11/12/122 34/48/123
f 24/30/124 6/53/125 16/55/126
f 17/20/127 28/36/128 16/19/129
f 31/62/130 26/33/131 20/23/132
f 15/18/133 1/56/134 29/41/135
f 2/57/136 11/12/137 3/58/138
f 3/3/139 11/61/140 25/32/141
f 31/43/142 20/46/143 21/60/144
f 1/56/145 15/18/146 9/39/147
f 13/8/148 27/52/149 17/20/150
f 15/18/151 2/2/152 22/27/153
f 2/2/154 3/3/155 22/27/156
f 21/25/157 18/21/158 32/45/159
f 15/18/160 14/24/161 9/39/162
f 24/30/163 27/34/164 13/14/165
f 12/29/166 2/2/167 15/18/168
f 12/13/169 11/12/170 2/57/171
f 29/37/172 1/1/173 32/45/174
f 8/42/175 31/43/176 21/60/177
f 28/44/178 5/31/179 16/19/180
f 17/20/181 30/49/182 10/11/183
f 32/45/184 1/56/185 14/17/186
f 14/17/187 1/56/188 9/39/189
f 32/45/190 18/21/191 11/12/192
