# This file uses centimeters as units for non-parametric coordinates.

mtllib TallRock1.mtl
g default
v 0.300432 0.787346 2.764600
v -1.148415 0.494908 2.923101
v -2.214933 2.266041 2.929857
v 0.570051 2.040472 -2.758649
v -0.365136 1.458246 -2.130294
v 0.897521 -1.322899 -1.059744
v -1.944953 1.496190 -0.740125
v -1.533638 2.733195 -2.735116
v -2.607476 5.139479 -3.524678
v -0.928950 -5.390044 -2.256845
v -1.014095 -6.923137 -2.808031
v -0.385847 -3.767731 -1.737435
v 0.922309 -5.775125 -2.417926
v 2.599997 -6.664411 -1.521106
v -3.256792 3.083327 1.198472
v -2.366536 1.009769 0.644474
v -1.498448 -8.000188 -2.470739
v -2.172755 -5.818650 -1.537403
v -1.041629 -3.761591 -1.531334
v -0.999825 5.268987 -4.228750
v 0.347527 4.472173 -4.566974
v 0.351698 5.287753 -3.073991
v 2.188072 5.131449 -1.749160
v -1.662355 -8.674300 0.544733
v 1.305631 4.824735 3.242616
v 3.324918 4.080256 1.255431
v 2.212055 3.177669 -1.885028
v 1.063231 -5.615578 2.359157
v 1.666329 -8.126166 2.339836
v -0.298681 -4.908639 3.374600
v 0.194231 -6.554601 2.697778
v 2.037673 -4.131239 0.647028
v 1.541520 -4.094589 1.570678
v 0.552989 -8.750582 0.989525
v -0.039311 -8.551669 -0.274843
v 2.090111 -3.205169 -0.390637
v 2.378812 -4.621796 -0.393512
v 0.401495 -3.133084 2.424660
v -1.524808 -7.982070 2.618963
v -0.829266 -2.577621 2.596557
v -2.373673 -4.488763 1.779050
v -2.198191 -0.783238 1.749877
v -2.271871 -2.129996 0.742030
v -0.202992 1.993184 3.535949
v 0.330943 4.726615 3.737368
v 1.394827 2.065196 2.858972
v 2.217213 2.375991 1.577953
v -2.387204 5.237351 1.234124
v -3.383916 3.727088 2.614687
v -3.949404 4.599163 1.930074
v -2.968108 3.966403 -1.871814
v 2.915100 4.971561 1.782726
v 3.249163 3.966179 0.063791
v 1.733703 5.089930 0.509206
v 0.571997 5.141732 1.142283
v 0.883647 5.193992 -1.126661
v -0.552709 5.240717 -1.211430
v -1.264221 5.228744 -3.166132
v 1.264606 0.337786 -1.467811
v 1.386279 -0.947397 0.547458
v 2.447080 2.976697 -0.183538
v 1.664184 1.116953 0.523679
v 1.897231 -8.554988 0.526355
v 0.639512 -8.506240 -0.254433
v 2.125097 -8.275272 -0.536384
v 0.618282 4.991921 2.212402
v -1.187380 3.505764 4.039454
v -0.315772 5.087809 1.641705
v -2.282970 3.818320 3.561624
v -1.532444 5.249393 0.378838
v -2.196774 5.223559 -0.819564
v -2.739654 -8.089468 1.354234
v -2.896063 -6.495631 0.055156
v -2.537618 -4.977964 -0.181684
v -2.304025 -3.534318 0.090874
v -1.169701 -1.028720 -0.839554
v -3.645863 5.312442 -0.091270
v -3.206640 3.651785 -0.543880
v 2.712685 -6.368330 -1.037360
v 1.695407 3.472892 -2.880014
v 1.116388 0.816032 2.254817
v -3.066460 -7.886474 -0.849744
vn 0.189428 -0.471764 0.861136
vn 0.189428 -0.471764 0.861136
vn 0.189428 -0.471764 0.861136
vn -0.055607 -0.347744 0.935939
vn -0.055607 -0.347744 0.935939
vn -0.055607 -0.347744 0.935939
vn -0.453491 -0.314999 0.833739
vn -0.453491 -0.314999 0.833739
vn -0.453491 -0.314999 0.833739
vn -0.551589 -0.335061 0.763861
vn -0.551589 -0.335061 0.763861
vn -0.551589 -0.335061 0.763861
vn -0.513335 -0.312163 0.799401
vn -0.513335 -0.312163 0.799401
vn -0.513335 -0.312163 0.799401
vn -0.601435 -0.323642 0.730433
vn -0.601435 -0.323642 0.730433
vn -0.601435 -0.323642 0.730433
vn -0.995369 -0.039397 0.087685
vn -0.995369 -0.039397 0.087685
vn -0.995369 -0.039397 0.087685
vn -0.845098 -0.442845 0.299494
vn -0.845099 -0.442845 0.299494
vn -0.845099 -0.442845 0.299494
vn -0.993773 -0.026601 0.108197
vn -0.993773 -0.026601 0.108197
vn -0.993773 -0.026601 0.108197
vn -0.805513 -0.042652 -0.591042
vn -0.805513 -0.042652 -0.591042
vn -0.805513 -0.042652 -0.591042
vn -0.155333 -0.598603 -0.785841
vn -0.155333 -0.598603 -0.785841
vn -0.155333 -0.598603 -0.785841
vn 0.997284 0.063424 -0.037433
vn 0.997284 0.063424 -0.037433
vn 0.997284 0.063424 -0.037433
vn -0.122168 -0.630774 -0.766289
vn -0.122168 -0.630774 -0.766289
vn -0.122168 -0.630774 -0.766290
vn 0.194220 -0.274355 -0.941811
vn 0.194220 -0.274355 -0.941811
vn 0.194220 -0.274355 -0.941811
vn 0.014450 -0.095682 -0.995307
vn 0.014450 -0.095682 -0.995307
vn 0.014450 -0.095682 -0.995307
vn 0.446442 -0.417784 -0.791294
vn 0.446442 -0.417784 -0.791294
vn 0.446442 -0.417784 -0.791294
vn -0.899844 -0.262572 -0.348334
vn -0.571337 -0.412722 -0.709390
vn -0.706137 -0.371919 -0.602533
vn -0.032068 -0.452227 -0.891326
vn -0.721123 -0.512341 -0.466357
vn -0.721123 -0.512341 -0.466357
vn -0.721123 -0.512341 -0.466357
vn -0.717601 -0.484426 -0.500380
vn -0.717601 -0.484426 -0.500380
vn -0.717601 -0.484426 -0.500380
vn -0.226854 -0.579313 -0.782901
vn -0.226854 -0.579313 -0.782901
vn -0.226854 -0.579313 -0.782901
vn -0.334153 -0.425135 -0.841191
vn -0.334153 -0.425135 -0.841191
vn -0.334153 -0.425135 -0.841191
vn -0.433551 -0.387841 -0.813396
vn -0.433551 -0.387841 -0.813396
vn -0.433551 -0.387841 -0.813396
vn -0.899606 0.067074 -0.431521
vn -0.829695 0.043672 -0.556507
vn -0.593701 -0.015374 -0.804539
vn -0.299681 -0.070337 -0.951443
vn -0.274697 0.375381 -0.885229
vn -0.274697 0.375381 -0.885229
vn -0.274697 0.375381 -0.885229
vn -0.695844 0.089771 -0.712560
vn -0.695844 0.089771 -0.712560
vn -0.695844 0.089771 -0.712560
vn 0.559092 -0.064355 -0.826605
vn 0.559092 -0.064355 -0.826605
vn 0.559092 -0.064355 -0.826605
vn -0.011371 0.338862 -0.940767
vn -0.011371 0.338862 -0.940767
vn -0.011371 0.338862 -0.940767
vn -0.018140 0.310371 -0.950442
vn -0.018140 0.310371 -0.950442
vn -0.018140 0.310371 -0.950442
vn 0.441370 0.016999 -0.897164
vn 0.441370 0.016999 -0.897164
vn 0.441370 0.016999 -0.897164
vn 0.475446 -0.575995 -0.664968
vn 0.475446 -0.575995 -0.664967
vn 0.475446 -0.575995 -0.664968
vn 0.579575 -0.469276 -0.666238
vn 0.579575 -0.469276 -0.666238
vn 0.579575 -0.469276 -0.666238
vn -0.053190 -0.616674 -0.785420
vn -0.053190 -0.616674 -0.785420
vn -0.053190 -0.616674 -0.785420
vn 0.149900 -0.547471 -0.823289
vn 0.149900 -0.547471 -0.823289
vn 0.149900 -0.547471 -0.823289
vn 0.496335 0.550892 -0.670947
vn 0.496335 0.550892 -0.670947
vn 0.496335 0.550892 -0.670947
vn 0.593155 0.437366 -0.675928
vn 0.593155 0.437366 -0.675928
vn 0.593155 0.437366 -0.675928
vn 0.634001 0.130752 -0.762199
vn 0.634001 0.130752 -0.762199
vn 0.634001 0.130752 -0.762199
vn 0.866386 0.309957 -0.391538
vn 0.866386 0.309957 -0.391538
vn 0.866386 0.309957 -0.391538
vn -0.875864 -0.464060 0.132326
vn -0.875864 -0.464060 0.132326
vn -0.875864 -0.464060 0.132326
vn -0.785873 -0.586488 0.196052
vn -0.785873 -0.586488 0.196052
vn -0.785873 -0.586488 0.196052
vn -0.922710 -0.357863 -0.143315
vn -0.922710 -0.357863 -0.143315
vn -0.922710 -0.357863 -0.143315
vn -0.806804 -0.435921 -0.398799
vn -0.806804 -0.435921 -0.398799
vn -0.806804 -0.435921 -0.398799
vn -0.894385 -0.260289 -0.363764
vn -0.894385 -0.260289 -0.363764
vn -0.894385 -0.260289 -0.363764
vn -0.612410 0.482471 -0.626240
vn -0.612410 0.482471 -0.626240
vn -0.612410 0.482471 -0.626240
vn -0.892673 -0.086697 -0.442288
vn -0.892673 -0.086697 -0.442288
vn -0.892673 -0.086697 -0.442288
vn -0.900536 0.216863 -0.376836
vn -0.900536 0.216863 -0.376836
vn -0.900536 0.216863 -0.376836
vn -0.553718 0.308788 -0.773335
vn -0.553718 0.308788 -0.773335
vn -0.553718 0.308788 -0.773335
vn -0.700625 0.387026 -0.599446
vn -0.700625 0.387026 -0.599446
vn -0.700625 0.387026 -0.599446
vn -0.553546 0.306666 -0.774301
vn -0.553546 0.306666 -0.774301
vn -0.553546 0.306666 -0.774301
vn -0.751465 -0.292653 0.591316
vn -0.751465 -0.292653 0.591316
vn -0.751465 -0.292653 0.591316
vn -0.922561 0.163336 -0.349575
vn -0.922561 0.163336 -0.349575
vn -0.922561 0.163336 -0.349575
vn -0.775164 0.120647 -0.620133
vn -0.775164 0.120647 -0.620133
vn -0.775164 0.120647 -0.620133
vn -0.071596 0.997234 0.019952
vn -0.071596 0.997234 0.019952
vn -0.071596 0.997234 0.019952
vn -0.038093 0.998872 0.028351
vn -0.038093 0.998872 0.028351
vn -0.038093 0.998872 0.028351
vn 0.369920 0.814904 -0.446195
vn 0.369920 0.814904 -0.446196
vn 0.369920 0.814904 -0.446196
vn -0.036909 0.999292 0.007314
vn -0.036909 0.999292 0.007314
vn -0.036909 0.999292 0.007314
vn 0.030138 0.998751 0.039856
vn 0.030138 0.998751 0.039856
vn 0.030138 0.998751 0.039856
vn 0.798584 0.570887 -0.190661
vn 0.798584 0.570887 -0.190661
vn 0.798584 0.570887 -0.190661
vn -0.322107 0.596771 -0.734922
vn -0.322107 0.596771 -0.734922
vn -0.322107 0.596771 -0.734922
vn 0.615802 0.775694 0.138157
vn 0.615802 0.775693 0.138157
vn 0.615802 0.775694 0.138157
vn 0.562095 -0.214159 0.798865
vn 0.562095 -0.214159 0.798865
vn 0.562095 -0.214159 0.798865
vn -0.013467 0.985538 0.168921
vn -0.013467 0.985538 0.168921
vn -0.013467 0.985538 0.168921
vn -0.037415 -0.974793 -0.219950
vn -0.037415 -0.974793 -0.219950
vn -0.037415 -0.974793 -0.219950
vn 0.072563 -0.954870 -0.288023
vn 0.072563 -0.954870 -0.288023
vn 0.072563 -0.954870 -0.288023
vn -0.298489 -0.927840 -0.223644
vn -0.298489 -0.927840 -0.223644
vn -0.298489 -0.927840 -0.223644
vn -0.253841 -0.912321 0.321302
vn -0.253841 -0.912321 0.321302
vn -0.253841 -0.912321 0.321302
vn -0.676815 -0.503863 -0.536697
vn -0.676815 -0.503863 -0.536697
vn -0.676815 -0.503863 -0.536697
vn 0.664745 -0.234689 0.709250
vn 0.664745 -0.234689 0.709250
vn 0.664745 -0.234689 0.709250
vn 0.891770 0.042276 -0.450510
vn 0.891770 0.042276 -0.450510
vn 0.891770 0.042276 -0.450510
vn 0.790188 -0.338666 -0.510792
vn 0.790188 -0.338666 -0.510792
vn 0.790188 -0.338666 -0.510792
vn 0.990707 0.021502 -0.134305
vn 0.990707 0.021502 -0.134305
vn 0.990707 0.021502 -0.134305
vn 0.927534 -0.334065 -0.167577
vn 0.927534 -0.334065 -0.167577
vn 0.927534 -0.334065 -0.167577
vn 0.668732 -0.382755 -0.637413
vn 0.668732 -0.382755 -0.637413
vn 0.668732 -0.382755 -0.637413
vn 0.917334 -0.397083 -0.028699
vn 0.917334 -0.397083 -0.028699
vn 0.917334 -0.397083 -0.028699
vn 0.530305 -0.071782 0.844763
vn 0.530305 -0.071782 0.844763
vn 0.530305 -0.071782 0.844763
vn 0.567562 -0.056591 0.821384
vn 0.567562 -0.056591 0.821384
vn 0.567562 -0.056591 0.821384
vn 0.675076 0.160951 0.719977
vn 0.675076 0.160951 0.719977
vn 0.675076 0.160951 0.719977
vn 0.300649 0.064900 0.951524
vn 0.300649 0.064900 0.951524
vn 0.300649 0.064900 0.951524
vn 0.640004 0.150720 0.753444
vn 0.640004 0.150720 0.753444
vn 0.640004 0.150720 0.753444
vn 0.523898 -0.185003 0.831448
vn 0.523898 -0.185003 0.831448
vn 0.523898 -0.185003 0.831448
vn -0.468510 -0.588859 0.658592
vn -0.468510 -0.588859 0.658592
vn -0.468510 -0.588859 0.658592
vn 0.287023 0.361433 0.887121
vn 0.287023 0.361433 0.887121
vn 0.287023 0.361433 0.887121
vn 0.218691 -0.314364 0.923769
vn 0.218691 -0.314364 0.923769
vn 0.218691 -0.314364 0.923769
vn 0.398598 -0.521662 0.754313
vn 0.398598 -0.521662 0.754313
vn 0.398598 -0.521662 0.754313
vn 0.842246 0.408650 -0.351607
vn 0.842246 0.408650 -0.351607
vn 0.842246 0.408650 -0.351607
vn 0.931450 0.153244 0.330025
vn 0.931450 0.153244 0.330025
vn 0.931450 0.153244 0.330025
vn 0.806013 0.420791 0.416267
vn 0.806013 0.420791 0.416267
vn 0.806013 0.420791 0.416267
vn 0.875614 -0.092711 0.474030
vn 0.875614 -0.092711 0.474030
vn 0.875615 -0.092711 0.474030
vn 0.993996 0.074950 0.079717
vn 0.993996 0.074950 0.079717
vn 0.993996 0.074950 0.079717
vn 0.951975 -0.124938 0.279523
vn 0.951975 -0.124938 0.279523
vn 0.951975 -0.124938 0.279523
vn 0.902247 -0.028784 0.430257
vn 0.902247 -0.028784 0.430257
vn 0.902247 -0.028784 0.430257
vn 0.885181 -0.037974 0.463695
vn 0.885181 -0.037974 0.463695
vn 0.885181 -0.037974 0.463695
vn 0.970172 0.232527 0.068542
vn 0.970172 0.232527 0.068542
vn 0.970172 0.232527 0.068542
vn -0.096861 -0.942164 0.320850
vn -0.096861 -0.942164 0.320850
vn -0.096861 -0.942164 0.320850
vn 0.223573 -0.941771 0.251161
vn 0.223573 -0.941771 0.251161
vn 0.223573 -0.941771 0.251161
vn -0.003105 -0.988068 -0.153990
vn -0.003105 -0.988068 -0.153990
vn -0.003105 -0.988068 -0.153990
vn 0.071201 -0.979685 -0.187479
vn 0.071201 -0.979685 -0.187479
vn 0.071201 -0.979685 -0.187479
vn 0.078084 -0.979267 -0.186919
vn 0.078084 -0.979267 -0.186919
vn 0.078084 -0.979267 -0.186919
vn 0.957813 0.081502 0.275593
vn 0.957813 0.081502 0.275593
vn 0.957813 0.081502 0.275593
vn 0.955567 0.194289 0.221684
vn 0.955567 0.194289 0.221684
vn 0.955567 0.194289 0.221684
vn 0.126585 -0.091822 0.987697
vn 0.108204 -0.085787 0.990421
vn 0.117876 -0.088965 0.989035
vn 0.100843 -0.083365 0.991404
vn -0.652320 -0.146786 0.743595
vn -0.652320 -0.146786 0.743594
vn -0.652320 -0.146786 0.743595
vn -0.587123 0.132887 0.798516
vn -0.587123 0.132887 0.798516
vn -0.587123 0.132887 0.798516
vn -0.603231 0.044874 0.796303
vn -0.603231 0.044874 0.796303
vn -0.603231 0.044874 0.796303
vn -0.720799 -0.008510 0.693092
vn -0.720799 -0.008510 0.693092
vn -0.720799 -0.008510 0.693092
vn -0.496699 0.030350 0.867392
vn -0.496699 0.030350 0.867392
vn -0.496699 0.030350 0.867392
vn -0.998830 0.047375 0.009711
vn -0.999098 0.042443 -0.001536
vn -0.999154 0.040766 -0.005357
vn -0.999195 0.033270 -0.022413
vn -0.987469 0.151316 0.044812
vn -0.987469 0.151316 0.044812
vn -0.987469 0.151316 0.044812
vn -0.993786 0.093973 0.059648
vn -0.988747 0.112741 0.098330
vn -0.989321 0.110917 0.094561
vn -0.858502 0.270733 0.435520
vn -0.866010 0.226526 -0.445771
vn -0.866010 0.226526 -0.445771
vn -0.866010 0.226526 -0.445771
vn 0.374900 -0.383413 0.844064
vn 0.374900 -0.383413 0.844064
vn 0.374900 -0.383413 0.844064
vn 0.391557 -0.143459 0.908902
vn 0.391557 -0.143459 0.908902
vn 0.391557 -0.143459 0.908902
vn 0.290532 -0.126640 0.948448
vn 0.290532 -0.126640 0.948448
vn 0.290531 -0.126640 0.948448
vn 0.480452 -0.466329 0.742767
vn 0.480452 -0.466329 0.742767
vn 0.480452 -0.466329 0.742767
vn 0.458597 -0.107807 0.882081
vn 0.458597 -0.107807 0.882081
vn 0.458597 -0.107807 0.882081
vn 0.815211 -0.389163 0.428932
vn 0.815211 -0.389163 0.428932
vn 0.815211 -0.389163 0.428932
vn 0.845700 -0.046572 0.531622
vn 0.845700 -0.046572 0.531622
vn 0.845700 -0.046572 0.531622
vn -0.113565 0.846032 0.520896
vn -0.113565 0.846032 0.520896
vn -0.113565 0.846032 0.520896
vn -0.651274 0.160018 0.741780
vn -0.651274 0.160018 0.741780
vn -0.651273 0.160018 0.741780
vn 0.060683 0.998156 -0.001076
vn 0.060683 0.998156 -0.001076
vn 0.060683 0.998156 -0.001076
vn -0.248983 0.924440 0.288821
vn -0.248983 0.924440 0.288821
vn -0.248983 0.924440 0.288821
vn -0.280273 0.711400 -0.644482
vn -0.280273 0.711400 -0.644482
vn -0.280273 0.711400 -0.644482
vn -0.198097 0.819210 0.538194
vn -0.198096 0.819210 0.538194
vn -0.198097 0.819210 0.538194
vn 0.569880 0.813763 -0.114131
vn 0.569880 0.813763 -0.114131
vn 0.569880 0.813763 -0.114131
vn 0.618086 0.590910 -0.518453
vn 0.618086 0.590910 -0.518454
vn 0.618086 0.590910 -0.518454
vn 0.063099 0.997422 0.034172
vn 0.063099 0.997422 0.034172
vn 0.063099 0.997422 0.034172
vn 0.034423 0.989959 0.137101
vn 0.034423 0.989959 0.137101
vn 0.034423 0.989959 0.137101
vn 0.062591 0.997560 0.030933
vn 0.062591 0.997560 0.030933
vn 0.062591 0.997560 0.030933
vn 0.061619 0.997604 0.031441
vn 0.061619 0.997604 0.031441
vn 0.061619 0.997604 0.031441
vn 0.030894 0.999151 0.027257
vn 0.030894 0.999151 0.027257
vn 0.030894 0.999151 0.027257
vn -0.010946 0.999938 -0.002141
vn -0.010946 0.999938 -0.002141
vn -0.010946 0.999938 -0.002141
vn 0.938547 -0.262520 -0.224082
vn 0.938547 -0.262520 -0.224082
vn 0.938547 -0.262520 -0.224082
vn 0.980447 -0.133653 -0.144429
vn 0.980447 -0.133653 -0.144429
vn 0.980447 -0.133653 -0.144429
vn 0.775422 -0.631345 0.011144
vn 0.775422 -0.631345 0.011144
vn 0.775422 -0.631345 0.011144
vn 0.828669 -0.553884 -0.080748
vn 0.828669 -0.553884 -0.080748
vn 0.828669 -0.553884 -0.080748
vn 0.919687 -0.392409 -0.013805
vn 0.919687 -0.392409 -0.013805
vn 0.919687 -0.392409 -0.013805
vn 0.838642 -0.515546 0.175761
vn 0.838642 -0.515546 0.175761
vn 0.838642 -0.515546 0.175761
vn 0.106360 -0.966956 -0.231699
vn 0.106360 -0.966956 -0.231699
vn 0.106360 -0.966956 -0.231699
vn 0.956212 -0.258659 0.136946
vn 0.956212 -0.258659 0.136946
vn 0.956212 -0.258659 0.136946
vn 0.952299 -0.302989 -0.036387
vn 0.952299 -0.302989 -0.036387
vn 0.952299 -0.302989 -0.036387
vn 0.034518 0.989885 0.137611
vn 0.034518 0.989885 0.137611
vn 0.034518 0.989885 0.137611
vn 0.017417 0.990295 0.137883
vn 0.017417 0.990295 0.137883
vn 0.017417 0.990295 0.137883
vn -0.208855 0.849461 0.484558
vn -0.463140 0.854021 0.236958
vn -0.339779 0.865448 0.368171
vn -0.624321 0.780955 0.018229
vn -0.001788 0.834982 0.550275
vn -0.001788 0.834982 0.550275
vn -0.001788 0.834982 0.550275
vn 0.043381 0.998832 0.021277
vn 0.043381 0.998832 0.021277
vn 0.043381 0.998832 0.021277
vn 0.007236 0.992742 0.120050
vn 0.007236 0.992741 0.120050
vn 0.007236 0.992742 0.120050
vn 0.057767 0.995748 0.071752
vn 0.057767 0.995748 0.071752
vn 0.057767 0.995748 0.071752
vn -0.041076 0.852286 0.521461
vn -0.041076 0.852286 0.521461
vn -0.041076 0.852286 0.521461
vn -0.013754 0.999808 -0.013929
vn -0.013754 0.999808 -0.013929
vn -0.013754 0.999808 -0.013929
vn -0.022930 0.999698 -0.008840
vn -0.022930 0.999698 -0.008840
vn -0.022930 0.999698 -0.008840
vn -0.698728 0.659909 -0.276224
vn -0.698728 0.659909 -0.276224
vn -0.698728 0.659909 -0.276224
vn -0.921078 -0.302571 -0.245085
vn -0.921078 -0.302571 -0.245085
vn -0.921078 -0.302571 -0.245085
vn -0.968224 -0.228196 -0.102320
vn -0.968224 -0.228196 -0.102320
vn -0.968224 -0.228196 -0.102320
vn -0.842970 -0.469485 -0.262652
vn -0.842970 -0.469485 -0.262652
vn -0.842970 -0.469485 -0.262652
vn -0.956604 -0.193672 -0.217717
vn -0.956604 -0.193672 -0.217716
vn -0.956604 -0.193672 -0.217717
s off
g pasted__pCone1 TallRock1
usemtl pasted__lambert2SG
f 44//1 2//2 1//3
f 67//4 2//5 44//6
f 67//7 69//8 2//9
f 69//10 3//11 2//12
f 3//13 42//14 2//15
f 49//16 3//17 69//18
f 42//19 3//20 16//21
f 3//22 15//23 16//24
f 42//25 16//26 43//27
f 16//28 76//29 43//30
f 21//31 4//32 5//33
f 21//34 22//35 4//36
f 4//37 59//38 5//39
f 59//40 6//41 5//42
f 22//43 80//44 4//45
f 4//46 80//47 59//48
s 1
f 7//49 8//50 76//51
f 76//51 8//50 5//52
s off
f 8//53 7//54 51//55
f 8//56 51//57 9//58
f 5//59 8//60 21//61
f 8//62 9//63 20//64
f 8//65 20//66 21//67
s 2
f 76//68 5//69 19//70
f 19//70 5//69 12//71
s off
f 10//72 19//73 12//74
f 11//75 17//76 18//77
f 5//78 6//79 12//80
f 11//81 10//82 13//83
f 10//84 12//85 13//86
f 12//87 6//88 37//89
f 11//90 13//91 64//92
f 64//93 17//94 11//95
f 64//96 13//97 65//98
f 13//99 14//100 65//101
f 12//102 37//103 13//104
f 13//105 37//106 14//107
f 6//108 36//109 37//110
f 14//111 37//112 79//113
f 50//114 15//115 49//116
f 49//117 15//118 3//119
f 15//120 78//121 16//122
f 16//123 78//124 7//125
f 16//126 7//127 76//128
f 17//129 82//130 73//131
f 17//132 73//133 18//134
f 75//135 18//136 74//137
f 18//138 10//139 11//140
f 75//141 19//142 18//143
f 19//144 10//145 18//146
f 82//147 24//148 73//149
f 73//150 74//151 18//152
f 19//153 75//154 76//155
f 9//156 58//157 20//158
f 58//159 22//160 20//161
f 20//162 22//163 21//164
f 58//165 57//166 22//167
f 22//168 57//169 56//170
f 56//171 80//172 22//173
f 56//174 23//175 80//176
f 23//177 54//178 53//179
f 52//180 47//181 26//182
f 45//183 25//184 66//185
f 17//186 35//187 24//188
f 64//189 35//190 17//191
f 24//192 82//193 17//194
f 72//195 24//196 39//197
f 72//198 73//199 24//200
f 47//201 52//202 25//203
f 80//204 23//205 27//206
f 80//207 27//208 59//209
f 27//210 23//211 61//212
f 27//213 61//214 59//215
f 23//216 53//217 61//218
f 59//219 61//220 62//221
f 81//222 1//223 33//224
f 1//225 38//226 33//227
f 38//228 28//229 33//230
f 28//231 31//232 29//233
f 38//234 30//235 28//236
f 28//237 30//238 31//239
f 31//240 34//241 29//242
f 38//243 40//244 30//245
f 31//246 30//247 39//248
f 31//249 39//250 34//251
f 6//252 60//253 36//254
f 60//255 33//256 36//257
f 36//258 33//259 32//260
f 32//261 33//262 79//263
f 81//264 33//265 60//266
f 60//267 62//268 81//269
f 33//270 63//271 79//272
f 33//273 28//274 63//275
f 28//276 29//277 63//278
f 24//279 34//280 39//281
f 29//282 34//283 63//284
f 24//285 35//286 34//287
f 34//288 35//289 64//290
f 34//291 64//292 63//293
f 79//294 37//295 32//296
f 32//297 37//298 36//299
s 3
f 2//300 40//301 1//302
f 1//302 40//301 38//303
s off
f 2//304 42//305 40//306
f 30//307 40//308 41//309
f 41//310 39//311 30//312
f 41//313 72//314 39//315
f 40//316 42//317 41//318
s 4
f 42//319 43//320 41//321
f 41//321 43//320 75//322
s off
f 41//323 75//324 74//325
s 5
f 41//326 74//327 72//328
f 72//328 74//327 73//329
s off
f 43//330 76//331 75//332
f 1//333 46//334 44//335
f 46//336 45//337 44//338
f 44//339 45//340 67//341
f 46//342 1//343 81//344
f 45//345 46//346 25//347
f 81//348 47//349 46//350
f 46//351 47//352 25//353
f 48//354 50//355 69//356
f 69//357 50//358 49//359
f 48//360 71//361 77//362
f 77//363 50//364 48//365
f 51//366 77//367 71//368
f 51//369 58//370 9//371
f 53//372 54//373 26//374
f 26//375 54//376 52//377
f 52//378 54//379 55//380
f 52//381 55//382 66//383
f 23//384 56//385 54//386
f 56//387 55//388 54//389
f 56//390 57//391 55//392
f 57//393 58//394 71//395
f 59//396 60//397 6//398
f 59//399 62//400 60//401
f 53//402 26//403 61//404
f 61//405 26//406 47//407
f 61//408 47//409 62//410
f 62//411 47//412 81//413
f 63//414 64//415 65//416
f 63//417 65//418 79//419
f 65//420 14//421 79//422
f 52//423 66//424 25//425
f 55//426 68//427 66//428
s 6
f 68//429 67//430 66//431
f 66//431 67//430 45//432
s off
f 67//433 68//434 69//435
f 57//436 70//437 55//438
f 70//439 68//440 55//441
f 70//442 48//443 68//444
f 48//445 69//446 68//447
f 57//448 71//449 70//450
f 71//451 48//452 70//453
f 58//454 51//455 71//456
f 50//457 77//458 15//459
f 15//460 77//461 78//462
f 78//463 51//464 7//465
f 77//466 51//467 78//468
