# This file uses centimeters as units for non-parametric coordinates.

mtllib TallRock2.mtl
g default
v -0.203690 -5.892177 -3.102777
v 1.303873 -3.312864 1.153313
v 1.133382 -3.603402 2.167677
v 0.019226 -7.202557 2.752823
v 0.304918 -2.712001 -1.571123
v -1.443701 -1.146048 -0.914651
v -1.099614 0.077842 -0.092580
v 1.649602 -4.283304 1.619698
v -2.790846 -7.252662 0.147194
v 1.005285 -5.335319 2.476149
v -0.639887 -3.290804 1.743020
v -0.788994 -7.491490 2.716496
v 0.215433 -3.826930 2.115557
v -2.023606 -3.820494 -0.592462
v -1.011555 -2.915023 -2.577522
v -2.508341 -5.402456 -0.427122
v 1.962480 -3.698469 0.250176
v 0.402940 -0.354254 -1.238855
v 1.099710 -0.671145 -0.116640
v 2.790849 -7.266793 0.516438
v -1.634146 -3.403118 0.978585
v 0.108577 -2.139070 1.525895
v 1.694536 -7.351010 2.688948
v -0.652163 -1.607948 -1.796537
v 1.552248 -1.642223 0.648278
v 0.099031 -7.967064 2.856926
v 0.531694 -7.255307 -3.268423
v 1.230096 -4.532357 -2.238613
v -1.790547 -7.263370 -2.936981
v -0.057036 -3.078865 -2.958839
v 2.263811 -7.387262 -1.293319
v 1.397939 -2.994019 -0.687850
v 2.554731 -5.028321 0.674946
v -1.297568 -4.945496 1.383847
v 2.054193 -5.216560 -1.352605
v 1.494295 -7.205081 -2.521442
v -1.948962 -4.181272 -1.637599
v -1.901202 -5.053731 0.429291
v -1.935763 -3.068590 -0.114973
v -2.598835 -7.153507 -0.626750
v -0.563155 -5.076436 2.557478
v -1.570700 -6.156291 -2.512414
v -0.819485 -7.023718 -3.844207
v 0.806249 -1.506848 -1.137124
v 0.839159 0.133640 0.856387
v -0.527403 -1.972605 1.327347
v 2.476800 -5.887589 -0.243770
v -0.154385 5.712327 3.386000
v 1.628984 4.598655 -0.534959
v 1.132238 3.869329 -1.061845
v 0.250352 7.619806 -1.738809
v 0.290700 1.526271 1.687483
v -1.188923 0.215070 0.587130
v -1.530867 3.413161 -0.162836
v -2.643923 7.948386 1.047419
v 1.008974 6.031695 -1.050123
v 1.225305 4.212236 2.513165
v -0.574124 3.413105 -0.775932
v -0.972386 8.216308 -1.032350
v -1.905631 3.640256 1.124384
v 2.499956 5.336308 0.311144
v -0.931767 2.183847 2.541911
v -2.372078 5.594593 1.225972
v -1.126908 0.970309 1.481192
v 1.930055 3.642359 0.448826
v 2.727170 8.031559 0.761248
v 1.801115 8.267569 -1.127662
v -0.043007 -0.406152 0.963267
v 0.581209 8.307226 -1.508745
v -0.389204 1.509778 -0.333610
v -1.681366 7.410300 3.456500
v -0.013262 2.315058 2.863457
v 2.220018 7.854748 2.191514
v 1.183572 1.951547 1.137080
v -1.206990 5.362208 -0.254304
v 2.424970 6.217622 1.153578
v 0.553251 7.341264 3.714049
v -1.376624 3.283396 2.179539
v -1.787846 5.323328 0.506608
v -1.821103 2.810729 0.642024
v -2.736353 7.777318 1.891476
v -0.500285 5.731242 -1.151353
v -1.469813 6.139170 2.963667
v -0.746945 6.956600 4.129744
v 0.351175 0.652834 1.250725
v 0.960569 1.063492 0.084361
v 0.224836 1.357201 -0.268560
vn 0.344484 0.030050 -0.938311
vn 0.344484 0.030050 -0.938311
vn 0.344484 0.030050 -0.938311
vn 0.654035 0.739045 0.161402
vn 0.654035 0.739045 0.161402
vn 0.654035 0.739045 0.161402
vn 0.989916 -0.139161 0.026475
vn 0.989916 -0.139161 0.026475
vn 0.989916 -0.139161 0.026475
vn 0.887679 0.289371 -0.358177
vn 0.887679 0.289371 -0.358177
vn 0.887679 0.289371 -0.358177
vn 0.612216 0.527224 -0.589260
vn 0.612216 0.527224 -0.589260
vn 0.612216 0.527224 -0.589260
vn -0.948090 0.273559 -0.162145
vn -0.948090 0.273559 -0.162145
vn -0.948090 0.273559 -0.162145
vn -0.099776 0.181623 0.978293
vn -0.099776 0.181623 0.978293
vn -0.099776 0.181623 0.978293
vn -0.147605 0.394686 0.906883
vn -0.147605 0.394686 0.906883
vn -0.147605 0.394686 0.906883
vn 0.761871 0.058543 0.645078
vn 0.761871 0.058543 0.645078
vn 0.761871 0.058543 0.645078
vn 0.276430 0.162741 0.947155
vn 0.276430 0.162741 0.947155
vn 0.276430 0.162741 0.947155
vn 0.603444 0.035841 -0.796600
vn 0.603444 0.035841 -0.796600
vn 0.603444 0.035841 -0.796600
vn 0.631057 0.016777 -0.775555
vn 0.631057 0.016777 -0.775555
vn 0.631057 0.016777 -0.775555
vn 0.899952 0.250191 -0.357059
vn 0.899952 0.250191 -0.357059
vn 0.899952 0.250191 -0.357059
vn 0.352863 0.406524 -0.842749
vn 0.352863 0.406524 -0.842749
vn 0.352863 0.406524 -0.842749
vn 0.407604 0.062216 -0.911037
vn 0.407604 0.062216 -0.911037
vn 0.407604 0.062216 -0.911037
vn -0.885258 0.035853 -0.463716
vn -0.885258 0.035853 -0.463716
vn -0.885258 0.035853 -0.463716
vn 0.714278 0.631818 0.301018
vn 0.714278 0.631818 0.301019
vn 0.714278 0.631818 0.301018
vn 0.460143 0.193532 0.866495
vn 0.460143 0.193532 0.866495
vn 0.460143 0.193532 0.866495
vn 0.046854 0.834261 0.549375
vn 0.046854 0.834261 0.549375
vn 0.046854 0.834261 0.549375
vn -0.025247 0.233716 0.971977
vn -0.025247 0.233716 0.971977
vn -0.025247 0.233716 0.971977
vn -0.925028 0.004910 0.379868
vn -0.925028 0.004910 0.379868
vn -0.925028 0.004910 0.379868
vn -0.002427 -0.999996 -0.001586
vn -0.002427 -0.999996 -0.001586
vn -0.002427 -0.999996 -0.001586
vn -0.172652 -0.970689 -0.167196
vn -0.172652 -0.970689 -0.167196
vn -0.172652 -0.970689 -0.167196
vn -0.680393 0.376283 -0.628870
vn -0.680393 0.376283 -0.628870
vn -0.680393 0.376283 -0.628870
vn 0.601077 0.142629 -0.786361
vn 0.601077 0.142629 -0.786361
vn 0.601077 0.142629 -0.786361
vn 0.751828 0.054656 -0.657090
vn 0.751828 0.054656 -0.657090
vn 0.751828 0.054656 -0.657090
vn 0.848374 0.137946 -0.511109
vn 0.848374 0.137946 -0.511109
vn 0.848374 0.137946 -0.511109
vn 0.923281 0.378450 -0.065782
vn 0.923281 0.378450 -0.065782
vn 0.923281 0.378450 -0.065782
vn 0.308589 0.012454 0.951114
vn 0.308589 0.012454 0.951114
vn 0.308589 0.012454 0.951114
vn -0.070496 0.072101 0.994903
vn -0.070496 0.072101 0.994903
vn -0.070496 0.072101 0.994903
vn -0.174111 0.290523 0.940894
vn -0.174111 0.290523 0.940894
vn -0.174111 0.290523 0.940894
vn -0.298434 -0.001800 0.954429
vn -0.298434 -0.001800 0.954429
vn -0.298434 -0.001800 0.954429
vn -0.747883 0.462523 0.476176
vn -0.747883 0.462523 0.476176
vn -0.747883 0.462523 0.476176
vn 0.890087 0.061909 0.451566
vn 0.890087 0.061909 0.451566
vn 0.890087 0.061909 0.451566
vn -0.957296 0.060823 0.282640
vn -0.957296 0.060823 0.282640
vn -0.957296 0.060823 0.282640
vn -0.842231 -0.042581 0.537433
vn -0.842231 -0.042581 0.537433
vn -0.842231 -0.042581 0.537433
vn -0.845859 0.104799 0.523010
vn -0.845859 0.104799 0.523010
vn -0.845859 0.104799 0.523010
vn 0.859088 0.435379 0.269096
vn 0.859088 0.435379 0.269096
vn 0.859088 0.435379 0.269096
vn 0.784229 0.214429 0.582242
vn 0.784229 0.214429 0.582242
vn 0.784229 0.214429 0.582242
vn 0.792589 0.469406 0.389181
vn 0.792589 0.469406 0.389181
vn 0.792589 0.469406 0.389181
vn 0.795225 0.474654 0.377255
vn 0.795225 0.474654 0.377255
vn 0.795225 0.474654 0.377255
vn -0.972261 0.195313 -0.128694
vn -0.972261 0.195313 -0.128694
vn -0.972261 0.195313 -0.128694
vn -0.757647 0.228078 0.611516
vn -0.757647 0.228078 0.611516
vn -0.757647 0.228078 0.611516
vn -0.415895 -0.031975 0.908851
vn -0.415895 -0.031975 0.908850
vn -0.415895 -0.031975 0.908850
vn -0.377465 0.587121 -0.716107
vn -0.377465 0.587121 -0.716107
vn -0.377465 0.587121 -0.716107
vn 0.781186 0.522383 -0.341854
vn 0.781186 0.522383 -0.341854
vn 0.781186 0.522383 -0.341854
vn 0.010784 -0.998627 0.051263
vn 0.010784 -0.998627 0.051263
vn 0.010784 -0.998627 0.051263
vn -0.084534 0.189585 0.978219
vn -0.084534 0.189585 0.978219
vn -0.084534 0.189585 0.978219
vn -0.989018 0.022816 0.146021
vn -0.989018 0.022816 0.146021
vn -0.989018 0.022816 0.146021
vn -0.831269 0.303392 0.465773
vn -0.831269 0.303392 0.465773
vn -0.831269 0.303392 0.465773
vn 0.417363 0.328135 -0.847429
vn 0.417363 0.328135 -0.847429
vn 0.417363 0.328135 -0.847429
vn -0.969981 0.076447 -0.230853
vn -0.969981 0.076447 -0.230853
vn -0.969981 0.076447 -0.230853
vn -0.780233 0.122276 -0.613420
vn -0.780234 0.122276 -0.613420
vn -0.780233 0.122276 -0.613420
vn -0.404300 0.051402 -0.913181
vn -0.404300 0.051401 -0.913181
vn -0.404300 0.051401 -0.913181
vn -0.486704 -0.819316 0.303053
vn -0.486704 -0.819316 0.303053
vn -0.486704 -0.819316 0.303053
vn -0.089185 0.125241 0.988110
vn -0.089185 0.125241 0.988110
vn -0.089185 0.125241 0.988110
vn 0.057498 0.961380 -0.269152
vn 0.057498 0.961380 -0.269152
vn 0.057498 0.961380 -0.269152
vn 0.263683 0.866489 0.423873
vn 0.263683 0.866489 0.423873
vn 0.263683 0.866489 0.423873
vn -0.659840 0.580078 0.477619
vn -0.659840 0.580078 0.477619
vn -0.659840 0.580078 0.477619
vn -0.833566 0.275842 0.478621
vn -0.833566 0.275842 0.478621
vn -0.833566 0.275842 0.478621
vn -0.360317 0.066388 -0.930465
vn -0.360317 0.066388 -0.930465
vn -0.360317 0.066388 -0.930465
vn -0.038590 -0.955144 -0.293616
vn -0.038590 -0.955144 -0.293616
vn -0.038590 -0.955144 -0.293616
vn -0.577076 0.349962 0.737909
vn -0.577076 0.349962 0.737909
vn -0.577076 0.349962 0.737909
vn -0.934965 0.087511 -0.343776
vn -0.934965 0.087511 -0.343776
vn -0.934965 0.087511 -0.343776
vn -0.836482 0.113522 0.536106
vn -0.836482 0.113522 0.536106
vn -0.836482 0.113522 0.536106
vn -0.894847 0.303297 -0.327507
vn -0.894847 0.303297 -0.327507
vn -0.894847 0.303297 -0.327507
vn -0.387438 0.626790 -0.676037
vn -0.387438 0.626790 -0.676037
vn -0.387438 0.626790 -0.676037
vn -0.834467 0.255235 -0.488386
vn -0.834467 0.255235 -0.488386
vn -0.834467 0.255235 -0.488386
vn -0.461637 0.545089 -0.699835
vn -0.461637 0.545089 -0.699835
vn -0.461637 0.545089 -0.699835
vn 0.572707 0.277274 0.771444
vn 0.572707 0.277274 0.771444
vn 0.572707 0.277274 0.771444
vn 0.018793 0.136827 0.990417
vn 0.018793 0.136827 0.990417
vn 0.018793 0.136827 0.990417
vn 0.056465 0.123895 0.990687
vn 0.056465 0.123895 0.990687
vn 0.056465 0.123895 0.990687
vn -0.971430 0.194202 -0.136418
vn -0.971430 0.194202 -0.136417
vn -0.971430 0.194202 -0.136418
vn 0.901066 0.255181 -0.350659
vn 0.901066 0.255181 -0.350659
vn 0.901066 0.255181 -0.350659
vn 0.851789 0.257797 -0.456066
vn 0.851789 0.257797 -0.456066
vn 0.851789 0.257797 -0.456066
vn 0.917983 0.133636 -0.373429
vn 0.917983 0.133636 -0.373429
vn 0.917983 0.133636 -0.373429
vn 0.369870 -0.916713 0.151111
vn 0.369870 -0.916713 0.151111
vn 0.369870 -0.916713 0.151111
vn -0.527696 -0.823449 0.208490
vn -0.527696 -0.823449 0.208490
vn -0.527696 -0.823449 0.208490
vn 0.100864 -0.992890 -0.063218
vn 0.100864 -0.992890 -0.063218
vn 0.100864 -0.992890 -0.063218
vn -0.862262 0.366210 0.349848
vn -0.862262 0.366210 0.349848
vn -0.862262 0.366210 0.349848
vn -0.394778 0.151937 0.906127
vn -0.394778 0.151937 0.906127
vn -0.394778 0.151937 0.906127
vn -0.773625 0.411988 -0.481426
vn -0.773625 0.411988 -0.481426
vn -0.773625 0.411988 -0.481426
vn 0.015442 -0.962662 -0.270267
vn 0.015442 -0.962662 -0.270267
vn 0.015442 -0.962662 -0.270267
vn -0.404596 0.644982 -0.648306
vn -0.404596 0.644982 -0.648306
vn -0.404596 0.644982 -0.648306
vn 0.974571 0.116362 -0.191498
vn 0.974571 0.116362 -0.191498
vn 0.974571 0.116362 -0.191498
vn 0.957150 0.062030 -0.282872
vn 0.957150 0.062030 -0.282872
vn 0.957150 0.062030 -0.282872
vn 0.946887 0.082951 -0.310683
vn 0.946887 0.082951 -0.310683
vn 0.946887 0.082951 -0.310683
vn 0.893451 0.287729 -0.344901
vn 0.893451 0.287729 -0.344901
vn 0.893451 0.287729 -0.344901
vn 0.552408 0.387686 -0.737933
vn 0.552408 0.387686 -0.737933
vn 0.552408 0.387686 -0.737933
vn -0.098260 -0.155274 0.982973
vn -0.098260 -0.155274 0.982973
vn -0.098260 -0.155274 0.982973
vn 0.545756 -0.511206 -0.663942
vn 0.545756 -0.511206 -0.663942
vn 0.545756 -0.511206 -0.663942
vn 0.980150 -0.193153 -0.044691
vn 0.980150 -0.193153 -0.044691
vn 0.980150 -0.193153 -0.044691
vn 0.886816 -0.267736 0.376663
vn 0.886816 -0.267736 0.376663
vn 0.886816 -0.267736 0.376663
vn 0.612676 -0.419155 0.670028
vn 0.612676 -0.419155 0.670028
vn 0.612676 -0.419155 0.670028
vn -0.898551 -0.233766 0.371430
vn -0.898551 -0.233766 0.371430
vn -0.898551 -0.233766 0.371430
vn 0.696120 0.043564 -0.716602
vn 0.696120 0.043564 -0.716602
vn 0.696120 0.043564 -0.716602
vn -0.197223 -0.218863 -0.955616
vn -0.197223 -0.218863 -0.955616
vn -0.197223 -0.218863 -0.955616
vn 0.374831 -0.393749 0.839323
vn 0.374831 -0.393749 0.839323
vn 0.374831 -0.393749 0.839323
vn 0.603316 -0.322873 0.729220
vn 0.603316 -0.322873 0.729220
vn 0.603316 -0.322873 0.729220
vn 0.396095 -0.374953 0.838164
vn 0.396095 -0.374953 0.838164
vn 0.396095 -0.374953 0.838164
vn -0.853627 -0.163637 0.494514
vn -0.853627 -0.163637 0.494514
vn -0.853627 -0.163637 0.494514
vn -0.808823 -0.290819 0.511107
vn -0.808823 -0.290819 0.511107
vn -0.808823 -0.290819 0.511107
vn 0.875319 -0.401342 -0.269704
vn 0.875319 -0.401342 -0.269704
vn 0.875319 -0.401342 -0.269704
vn 0.346892 -0.225097 -0.910493
vn 0.346892 -0.225097 -0.910493
vn 0.346893 -0.225097 -0.910493
vn -0.890764 0.408347 -0.199482
vn -0.890764 0.408347 -0.199482
vn -0.890764 0.408347 -0.199482
vn -0.003072 0.974240 0.225492
vn -0.003072 0.974240 0.225492
vn -0.003072 0.974240 0.225492
vn 0.018715 0.979501 0.200569
vn 0.018715 0.979501 0.200569
vn 0.018715 0.979501 0.200569
vn -0.654397 -0.365546 0.661922
vn -0.654397 -0.365546 0.661922
vn -0.654397 -0.365546 0.661922
vn 0.537027 -0.199247 0.819697
vn 0.537027 -0.199247 0.819697
vn 0.537027 -0.199247 0.819697
vn 0.859267 -0.192816 0.473795
vn 0.859268 -0.192816 0.473795
vn 0.859268 -0.192816 0.473795
vn 0.689902 -0.125445 0.712951
vn 0.689902 -0.125445 0.712951
vn 0.689902 -0.125445 0.712951
vn -0.520522 -0.058094 -0.851870
vn -0.520522 -0.058094 -0.851870
vn -0.520522 -0.058094 -0.851870
vn -0.088199 -0.270840 -0.958575
vn -0.088199 -0.270840 -0.958575
vn -0.088199 -0.270840 -0.958575
vn 0.055920 -0.192645 -0.979674
vn 0.055920 -0.192645 -0.979674
vn 0.055920 -0.192645 -0.979674
vn 0.048093 -0.221665 -0.973936
vn 0.048093 -0.221665 -0.973936
vn 0.048093 -0.221665 -0.973936
vn 0.897791 -0.002135 -0.440417
vn 0.897791 -0.002135 -0.440417
vn 0.897791 -0.002135 -0.440417
vn -0.936300 -0.233584 0.262261
vn -0.936300 -0.233584 0.262261
vn -0.936300 -0.233584 0.262261
vn -0.939231 -0.006067 -0.343234
vn -0.939231 -0.006067 -0.343234
vn -0.939231 -0.006067 -0.343234
vn -0.793140 0.103631 -0.600159
vn -0.793140 0.103631 -0.600159
vn -0.793140 0.103631 -0.600159
vn -0.788348 -0.100656 -0.606940
vn -0.788348 -0.100656 -0.606940
vn -0.788348 -0.100656 -0.606940
vn 0.748340 -0.139857 -0.648404
vn 0.748340 -0.139857 -0.648404
vn 0.748340 -0.139857 -0.648404
vn 0.784130 -0.307618 -0.538991
vn 0.784130 -0.307618 -0.538991
vn 0.784130 -0.307618 -0.538991
vn -0.938212 -0.240369 0.248960
vn -0.938212 -0.240369 0.248960
vn -0.938212 -0.240369 0.248960
vn -0.766243 -0.119830 -0.631278
vn -0.766244 -0.119830 -0.631278
vn -0.766244 -0.119830 -0.631278
vn -0.211035 0.188181 -0.959193
vn -0.211035 0.188181 -0.959193
vn -0.211035 0.188181 -0.959193
vn -0.500884 -0.858804 0.107571
vn -0.500884 -0.858804 0.107571
vn -0.500884 -0.858804 0.107571
vn 0.772929 -0.416176 0.478935
vn 0.772929 -0.416176 0.478935
vn 0.772929 -0.416176 0.478935
vn 0.004083 0.974187 0.225707
vn 0.004083 0.974187 0.225707
vn 0.004083 0.974187 0.225707
vn -0.523676 -0.240786 -0.817181
vn -0.523676 -0.240786 -0.817181
vn -0.523676 -0.240786 -0.817181
vn -0.733582 -0.390078 -0.556504
vn -0.733582 -0.390078 -0.556504
vn -0.733582 -0.390078 -0.556504
vn 0.721339 0.044865 -0.691127
vn 0.721339 0.044865 -0.691127
vn 0.721339 0.044865 -0.691127
vn -0.983970 0.003415 -0.178301
vn -0.983970 0.003415 -0.178301
vn -0.983970 0.003415 -0.178301
vn -0.794876 -0.159281 -0.585493
vn -0.794876 -0.159281 -0.585493
vn -0.794876 -0.159281 -0.585493
vn 0.375721 -0.337071 0.863259
vn 0.375721 -0.337071 0.863259
vn 0.375721 -0.337071 0.863259
vn -0.983407 -0.123646 -0.132749
vn -0.983407 -0.123646 -0.132749
vn -0.983407 -0.123646 -0.132749
vn -0.839265 -0.169262 0.516705
vn -0.839265 -0.169262 0.516705
vn -0.839265 -0.169262 0.516705
vn -0.345002 -0.145799 0.927209
vn -0.345001 -0.145799 0.927209
vn -0.345002 -0.145799 0.927209
vn -0.025083 0.993849 0.107869
vn -0.025083 0.993849 0.107869
vn -0.025083 0.993849 0.107869
vn 0.266487 0.012984 -0.963751
vn 0.266487 0.012984 -0.963751
vn 0.266487 0.012984 -0.963751
vn 0.266487 0.012984 -0.963751
vn 0.266487 0.012984 -0.963751
vn -0.070564 -0.836753 0.543014
vn -0.070564 -0.836753 0.543015
vn -0.070564 -0.836753 0.543015
vn -0.555249 -0.518117 -0.650579
vn -0.555249 -0.518117 -0.650579
vn -0.555249 -0.518117 -0.650579
vn -0.793556 -0.136628 -0.592960
vn -0.793556 -0.136628 -0.592960
vn -0.793556 -0.136628 -0.592960
vn -0.306239 -0.157136 0.938896
vn -0.306239 -0.157136 0.938896
vn -0.306239 -0.157136 0.938896
vn -0.044478 0.798753 0.600013
vn -0.044478 0.798753 0.600013
vn -0.044478 0.798753 0.600013
vn -0.757338 -0.113078 -0.643158
vn -0.757338 -0.113078 -0.643158
vn -0.757338 -0.113078 -0.643158
vn -0.818502 -0.320962 0.476484
vn -0.818502 -0.320962 0.476484
vn -0.818503 -0.320962 0.476484
vn -0.882839 -0.220508 0.414695
vn -0.882839 -0.220508 0.414695
vn -0.882839 -0.220508 0.414695
vn -0.380931 -0.573008 0.725640
vn -0.380931 -0.573008 0.725640
vn -0.380931 -0.573008 0.725640
vn 0.376304 -0.164937 -0.911697
vn 0.376304 -0.164937 -0.911697
vn 0.376304 -0.164937 -0.911697
vn -0.900476 -0.211881 0.379801
vn -0.900476 -0.211881 0.379801
vn -0.900476 -0.211881 0.379801
vn 0.895354 -0.243508 0.372888
vn 0.895354 -0.243508 0.372888
vn 0.895354 -0.243508 0.372888
vn 0.325445 -0.358629 0.874912
vn 0.325445 -0.358629 0.874912
vn 0.325445 -0.358629 0.874912
vn 0.781589 0.334898 0.526272
vn 0.781589 0.334898 0.526272
vn 0.781589 0.334898 0.526272
vn -0.007639 0.991788 0.127665
vn -0.007639 0.991788 0.127665
vn -0.007639 0.991788 0.127665
vn -0.277261 0.960577 0.020434
vn -0.277261 0.960577 0.020434
vn -0.277261 0.960577 0.020434
vn -0.641377 -0.140257 -0.754297
vn -0.641377 -0.140257 -0.754297
vn -0.641377 -0.140257 -0.754297
vn -0.528377 -0.630160 0.568961
vn -0.528377 -0.630159 0.568962
vn -0.528377 -0.630159 0.568961
vn -0.538860 0.050080 -0.840905
vn -0.538860 0.050080 -0.840905
vn -0.538860 0.050080 -0.840905
vn 0.824517 -0.506373 0.252504
vn 0.824517 -0.506373 0.252504
vn 0.824517 -0.506373 0.252504
vn -0.008511 0.991676 0.128475
vn -0.008511 0.991676 0.128475
vn -0.008511 0.991676 0.128475
vn -0.414544 -0.604189 0.680521
vn -0.414544 -0.604189 0.680521
vn -0.414544 -0.604189 0.680521
vn 0.885985 -0.278807 0.370536
vn 0.885985 -0.278807 0.370536
vn 0.885985 -0.278807 0.370536
vn 0.971038 -0.116677 0.208497
vn 0.971038 -0.116677 0.208497
vn 0.971038 -0.116677 0.208497
vn 0.942266 -0.087043 0.323354
vn 0.942266 -0.087043 0.323354
vn 0.942266 -0.087043 0.323354
vn 0.840804 0.330548 -0.428704
vn 0.840804 0.330548 -0.428704
vn 0.840804 0.330548 -0.428704
vn 0.472804 0.138755 -0.870175
vn 0.472804 0.138755 -0.870175
vn 0.472804 0.138755 -0.870175
vn -0.483596 0.393065 -0.782071
vn -0.483596 0.393065 -0.782071
vn -0.483596 0.393065 -0.782071
vn 0.974698 0.053021 0.217145
vn 0.974698 0.053021 0.217145
vn 0.974698 0.053021 0.217145
s off
g pasted__rock_on_rock_pasted__big_rock_1 TallRock2
usemtl pasted__pasted__BIG_1SG2
f 30//1 36//2 1//3
f 17//4 32//5 2//6
f 2//7 32//8 25//9
f 17//10 47//11 28//12
f 32//13 28//14 5//15
f 16//16 14//17 37//18
f 13//19 10//20 3//21
f 3//22 11//23 13//24
f 10//25 8//26 3//27
f 4//28 13//29 41//30
f 44//31 5//32 15//33
f 32//34 5//35 44//36
f 44//37 25//38 32//39
f 15//40 24//41 44//42
f 24//43 18//44 44//45
f 42//46 40//47 37//48
f 3//49 2//50 22//51
f 22//52 2//53 25//54
f 22//55 25//56 46//57
f 68//58 46//59 45//60
f 6//61 46//62 7//63
f 27//64 20//65 9//66
f 9//67 40//68 27//69
f 29//70 42//71 43//72
f 28//73 36//74 30//75
f 35//76 31//77 28//78
f 28//79 31//80 36//81
f 45//82 25//83 19//84
f 46//85 25//86 45//87
f 41//88 12//89 4//90
f 22//91 11//92 3//93
f 21//94 22//95 46//96
f 46//97 6//98 21//99
f 20//100 33//101 23//102
f 21//103 39//104 38//105
f 21//106 38//107 34//108
f 34//109 38//110 12//111
f 2//112 3//113 8//114
f 23//115 33//116 8//117
f 8//118 33//119 2//120
f 33//121 17//122 2//123
f 14//124 39//125 6//126
f 9//127 12//128 38//129
f 11//130 34//131 13//132
f 7//133 18//134 6//135
f 28//136 30//137 5//138
f 29//139 27//140 40//141
f 4//142 10//143 13//144
f 39//145 14//146 38//147
f 38//148 14//149 16//150
f 1//151 27//152 43//153
f 16//154 40//155 9//156
f 37//157 15//158 42//159
f 42//160 15//161 1//162
f 9//163 26//164 12//165
f 12//166 26//167 4//168
f 5//169 30//170 15//171
f 47//172 35//173 28//174
f 41//175 13//176 34//177
f 38//178 16//179 9//180
f 1//181 15//182 30//183
f 29//184 43//185 27//186
f 46//187 68//188 7//189
f 16//190 37//191 40//192
f 34//193 12//194 41//195
f 40//196 42//197 29//198
f 18//199 24//200 6//201
f 37//202 6//203 15//204
f 15//205 6//206 24//207
f 8//208 10//209 23//210
f 26//211 10//212 4//213
f 23//214 10//215 26//216
f 37//217 14//218 6//219
f 32//220 17//221 28//222
f 19//223 44//224 18//225
f 19//226 25//227 44//228
f 26//229 20//230 23//231
f 36//232 31//233 20//234
f 27//235 36//236 20//237
f 6//238 39//239 21//240
f 34//241 22//242 21//243
f 22//244 34//245 11//246
f 20//247 26//248 9//249
f 43//250 42//251 1//252
f 20//253 47//254 33//255
f 47//256 20//257 31//258
f 47//259 31//260 35//261
f 47//262 17//263 33//264
f 36//265 27//266 1//267
usemtl pasted__pasted__pasted__BIG_1SG2
f 72//268 77//269 48//270
f 65//271 74//272 49//273
f 49//274 74//275 86//276
f 65//277 61//278 57//279
f 74//280 57//281 52//282
f 60//283 78//284 63//285
f 56//286 49//287 50//288
f 51//289 50//290 82//291
f 85//292 52//293 62//294
f 74//295 52//296 85//297
f 62//298 68//299 85//300
f 83//301 63//302 78//303
f 83//304 81//305 63//306
f 50//307 49//308 87//309
f 87//310 49//311 86//312
f 53//313 70//314 7//315
f 77//316 66//317 55//318
f 55//319 81//320 77//321
f 71//322 83//323 84//324
f 57//325 77//326 72//327
f 76//328 73//329 57//330
f 57//331 73//332 77//333
f 82//334 59//335 51//336
f 87//337 58//338 50//339
f 87//340 7//341 70//342
f 70//343 58//344 87//345
f 66//346 61//347 67//348
f 64//349 80//350 53//351
f 54//352 80//353 79//354
f 54//355 79//356 75//357
f 75//358 79//359 59//360
f 67//361 61//362 49//363
f 61//364 65//365 49//366
f 60//367 80//368 64//369
f 55//370 59//371 79//372
f 58//373 75//374 50//375
f 7//376 68//377 53//378
f 57//379 72//380 52//381
f 71//382 77//383 81//384
f 70//385 54//386 58//387
f 54//388 70//389 80//390
f 51//391 56//392 50//393
f 80//394 60//395 79//396
f 79//397 60//398 63//399
f 48//400 77//401 84//402
f 63//403 81//404 55//405
f 78//406 62//407 83//408
f 83//409 62//410 48//411
f 55//412 69//413 59//414
f 51//415 59//416 69//417 67//418 56//419
f 52//420 72//421 62//422
f 82//423 50//424 75//425
f 79//426 63//427 55//428
f 48//429 62//430 72//431
f 71//432 84//433 77//434
f 75//435 59//436 82//437
f 81//438 83//439 71//440
f 78//441 64//442 62//443
f 62//444 64//445 68//446
f 49//447 56//448 67//449
f 78//450 60//451 64//452
f 74//453 65//454 57//455
f 45//456 85//457 68//458
f 45//459 86//460 85//461
f 69//462 66//463 67//464
f 77//465 73//466 66//467
f 53//468 80//469 70//470
f 53//471 68//472 64//473
f 75//474 58//475 54//476
f 74//477 85//478 86//479
f 66//480 69//481 55//482
f 84//483 83//484 48//485
f 57//486 61//487 76//488
f 66//489 76//490 61//491
f 76//492 66//493 73//494
usemtl pasted__pasted__BIG_1SG2 pasted__pasted__pasted__BIG_1SG2
f 18//495 87//496 19//497
f 19//498 87//499 86//500
f 18//501 7//502 87//503
f 45//504 19//505 86//506
